<svg width="38" height="28" viewBox="0 0 38 28" fill="none" xmlns="http://www.w3.org/2000/svg">
<path d="M3.99984 0.666992C3.11578 0.666992 2.26794 1.01818 1.64281 1.6433C1.01769 2.26842 0.666504 3.11627 0.666504 4.00033V22.3337H3.99984C3.99984 23.6597 4.52662 24.9315 5.4643 25.8692C6.40199 26.8069 7.67376 27.3337 8.99984 27.3337C10.3259 27.3337 11.5977 26.8069 12.5354 25.8692C13.4731 24.9315 13.9998 23.6597 13.9998 22.3337H23.9998C23.9998 23.6597 24.5266 24.9315 25.4643 25.8692C26.402 26.8069 27.6738 27.3337 28.9998 27.3337C30.3259 27.3337 31.5977 26.8069 32.5354 25.8692C33.4731 24.9315 33.9998 23.6597 33.9998 22.3337H37.3332V14.0003L32.3332 7.33366H27.3332V0.666992M15.6665 4.00033L22.3332 10.667L15.6665 17.3337V12.3337H5.6665V9.00033H15.6665M27.3332 9.83366H31.4998L34.7832 14.0003H27.3332M8.99984 19.8337C9.66288 19.8337 10.2988 20.097 10.7676 20.5659C11.2364 21.0347 11.4998 21.6706 11.4998 22.3337C11.4998 22.9967 11.2364 23.6326 10.7676 24.1014C10.2988 24.5703 9.66288 24.8337 8.99984 24.8337C8.3368 24.8337 7.70091 24.5703 7.23207 24.1014C6.76323 23.6326 6.49984 22.9967 6.49984 22.3337C6.49984 21.6706 6.76323 21.0347 7.23207 20.5659C7.70091 20.097 8.3368 19.8337 8.99984 19.8337ZM28.9998 19.8337C29.6629 19.8337 30.2988 20.097 30.7676 20.5659C31.2364 21.0347 31.4998 21.6706 31.4998 22.3337C31.4998 22.9967 31.2364 23.6326 30.7676 24.1014C30.2988 24.5703 29.6629 24.8337 28.9998 24.8337C28.3368 24.8337 27.7009 24.5703 27.2321 24.1014C26.7632 23.6326 26.4998 22.9967 26.4998 22.3337C26.4998 21.6706 26.7632 21.0347 27.2321 20.5659C27.7009 20.097 28.3368 19.8337 28.9998 19.8337Z" fill="white"/>
</svg>
