<svg width="28" height="28" viewBox="0 0 28 28" fill="none" xmlns="http://www.w3.org/2000/svg">
<path d="M14 0C6.31039 0 0 6.31039 0 14C0 21.6896 6.31039 28 14 28C21.6896 28 28 21.6896 28 14C28 6.31039 21.6896 0 14 0ZM20.3806 6.45936C20.7009 6.139 21.2203 6.139 21.5406 6.45936C21.861 6.77972 21.861 7.29909 21.5406 7.61944C21.2203 7.9398 20.7009 7.9398 20.3806 7.61944C20.0602 7.29909 20.0602 6.77972 20.3806 6.45936ZM13.1797 4.15625C13.1797 3.70284 13.5466 3.33594 14 3.33594C14.4534 3.33594 14.8203 3.70284 14.8203 4.15625V5.79688C14.8203 6.25029 14.4534 6.61719 14 6.61719C13.5466 6.61719 13.1797 6.25029 13.1797 5.79688V4.15625ZM4.15625 14.8203C3.70284 14.8203 3.33594 14.4534 3.33594 14C3.33594 13.5466 3.70284 13.1797 4.15625 13.1797H5.79688C6.25029 13.1797 6.61719 13.5466 6.61719 14C6.61719 14.4534 6.25029 14.8203 5.79688 14.8203H4.15625ZM7.61944 21.5406C7.29909 21.861 6.77972 21.861 6.45936 21.5406C6.139 21.2203 6.139 20.7009 6.45936 20.3806C6.77972 20.0601 7.29909 20.0601 7.61944 20.3806C7.9398 20.7009 7.9398 21.2203 7.61944 21.5406ZM7.61944 7.61944C7.29909 7.9398 6.77972 7.9398 6.45936 7.61944C6.139 7.29909 6.139 6.77972 6.45936 6.45936C6.77972 6.139 7.29909 6.139 7.61944 6.45936C7.9398 6.77972 7.9398 7.29909 7.61944 7.61944ZM14.8203 23.8438C14.8203 24.2972 14.4534 24.6641 14 24.6641C13.5466 24.6641 13.1797 24.2972 13.1797 23.8438V22.2031C13.1797 21.7497 13.5466 21.3828 14 21.3828C14.4534 21.3828 14.8203 21.7497 14.8203 22.2031V23.8438ZM19.5018 19.5018C19.1814 19.8223 18.6623 19.8223 18.3419 19.5018L13.42 14.58C13.2662 14.4262 13.1797 14.2179 13.1797 14V9.07812C13.1797 8.62471 13.5466 8.25781 14 8.25781C14.4534 8.25781 14.8203 8.62471 14.8203 9.07812V13.6603L19.5018 18.3419C19.8223 18.6623 19.8223 19.1814 19.5018 19.5018ZM21.5406 21.5406C21.2203 21.861 20.7009 21.861 20.3806 21.5406C20.0602 21.2203 20.0602 20.7009 20.3806 20.3806C20.7009 20.0601 21.2203 20.0601 21.5406 20.3806C21.8609 20.7009 21.8609 21.2203 21.5406 21.5406ZM24.6641 14C24.6641 14.4534 24.2972 14.8203 23.8438 14.8203H22.2031C21.7497 14.8203 21.3828 14.4534 21.3828 14C21.3828 13.5466 21.7497 13.1797 22.2031 13.1797H23.8438C24.2972 13.1797 24.6641 13.5466 24.6641 14Z" fill="#181919"/>
</svg>
