<svg width="101" height="100" viewBox="0 0 101 100" fill="none" xmlns="http://www.w3.org/2000/svg">
<rect x="0.5" width="100" height="100" rx="50" fill="#E97B08"/>
<path d="M65.4601 56.52L60.3801 55.94C59.7828 55.8699 59.1773 55.936 58.6092 56.1334C58.0411 56.3309 57.5251 56.6545 57.1001 57.08L53.4201 60.76C47.7425 57.8725 43.1276 53.2576 40.2401 47.58L43.9401 43.88C44.8001 43.02 45.2201 41.82 45.0801 40.6L44.5001 35.56C44.3867 34.5844 43.9185 33.6845 43.1846 33.0317C42.4506 32.3789 41.5023 32.0189 40.5201 32.02H37.0601C34.8001 32.02 32.9201 33.9 33.0601 36.16C34.1201 53.24 47.7801 66.88 64.8401 67.94C67.1001 68.08 68.9801 66.2 68.9801 63.94V60.48C69.0001 58.46 67.4801 56.76 65.4601 56.52Z" fill="white"/>
</svg>
