<svg width="220" height="120" viewBox="0 0 220 120" fill="none" xmlns="http://www.w3.org/2000/svg">
<path d="M65.8703 33.4676C69.5892 33.4676 72.604 30.4527 72.604 26.7338C72.604 23.0148 69.5892 20 65.8703 20C62.1513 20 59.1365 23.0148 59.1365 26.7338C59.1365 30.4527 62.1513 33.4676 65.8703 33.4676Z" fill="#010066"/>
<path d="M68.216 36.6783C66.5382 36.3377 64.7139 36.3526 63.066 36.7411C51.8709 38.0528 48.2358 51.0109 49.2623 60.8912C49.7075 65.1628 56.4413 65.2076 55.9916 60.8912C55.618 57.2905 55.7779 51.8566 57.6918 47.9944C57.6918 52.6888 57.6918 57.3831 57.6918 62.076C57.6918 62.2418 57.7082 62.3972 57.7157 62.5571C57.7112 62.6333 57.6933 62.6975 57.6933 62.7752C57.6933 73.9494 57.6739 85.119 57.2122 96.2842C57.0075 101.248 64.7035 101.228 64.9067 96.2842C65.2682 87.5335 65.3594 78.7782 65.3803 70.0215C65.7448 70.0454 66.1094 70.0454 66.474 70.0245C66.4964 78.7812 66.5845 87.5365 66.9431 96.2842C67.1478 101.228 74.8437 101.248 74.6376 96.2842C74.1759 85.119 74.1595 73.9494 74.1595 62.7752C74.1595 62.4286 74.1131 62.1134 74.0429 61.8101C74.0325 56.9588 73.8472 52.1031 73.904 47.2548C76.1959 51.1349 76.405 57.0529 76.0076 60.8882C75.5564 65.2016 82.2917 65.1583 82.7369 60.8882C83.7872 50.8032 79.9774 37.509 68.216 36.6783Z" fill="#010066"/>
<path d="M109.677 33.4676C113.396 33.4676 116.411 30.4527 116.411 26.7338C116.411 23.0148 113.396 20 109.677 20C105.958 20 102.943 23.0148 102.943 26.7338C102.943 30.4527 105.958 33.4676 109.677 33.4676Z" fill="#010066"/>
<path d="M112.023 36.6783C110.345 36.3377 108.521 36.3526 106.873 36.7411C95.6778 38.0528 92.0427 51.0109 93.0691 60.8912C93.5144 65.1628 100.248 65.2076 99.7984 60.8912C99.4249 57.2905 99.5848 51.8566 101.499 47.9944C101.499 52.6888 101.499 57.3831 101.499 62.076C101.499 62.2418 101.515 62.3972 101.523 62.5571C101.518 62.6333 101.5 62.6975 101.5 62.7752C101.5 73.9494 101.481 85.119 101.019 96.2842C100.814 101.248 108.51 101.228 108.714 96.2842C109.075 87.5335 109.166 78.7782 109.187 70.0215C109.552 70.0454 109.916 70.0454 110.281 70.0245C110.303 78.7812 110.391 87.5365 110.75 96.2842C110.955 101.228 118.651 101.248 118.444 96.2842C117.983 85.119 117.966 73.9494 117.966 62.7752C117.966 62.4286 117.92 62.1134 117.85 61.8101C117.839 56.9588 117.654 52.1031 117.711 47.2548C120.003 51.1349 120.212 57.0529 119.815 60.8882C119.363 65.2016 126.099 65.1583 126.544 60.8882C127.594 50.8032 123.784 37.509 112.023 36.6783Z" fill="#010066"/>
<path d="M153.484 33.4676C157.203 33.4676 160.218 30.4527 160.218 26.7338C160.218 23.0148 157.203 20 153.484 20C149.765 20 146.75 23.0148 146.75 26.7338C146.75 30.4527 149.765 33.4676 153.484 33.4676Z" fill="#010066"/>
<path d="M155.83 36.6783C154.152 36.3377 152.328 36.3526 150.68 36.7411C139.485 38.0528 135.85 51.0109 136.876 60.8912C137.322 65.1628 144.055 65.2076 143.606 60.8912C143.232 57.2905 143.392 51.8566 145.306 47.9944C145.306 52.6888 145.306 57.3831 145.306 62.076C145.306 62.2418 145.322 62.3972 145.33 62.5571C145.325 62.6333 145.307 62.6975 145.307 62.7752C145.307 73.9494 145.288 85.119 144.826 96.2842C144.622 101.248 152.317 101.228 152.521 96.2842C152.882 87.5335 152.973 78.7782 152.994 70.0215C153.359 70.0454 153.723 70.0454 154.088 70.0245C154.11 78.7812 154.199 87.5365 154.557 96.2842C154.762 101.228 162.458 101.248 162.252 96.2842C161.79 85.119 161.773 73.9494 161.773 62.7752C161.773 62.4286 161.727 62.1134 161.657 61.8101C161.646 56.9588 161.461 52.1031 161.518 47.2548C163.81 51.1349 164.019 57.0529 163.622 60.8882C163.17 65.2016 169.906 65.1583 170.351 60.8882C171.401 50.8032 167.591 37.509 155.83 36.6783Z" fill="#010066"/>
</svg>
