<svg width="220" height="120" viewBox="0 0 220 120" fill="none" xmlns="http://www.w3.org/2000/svg">
<path d="M109.677 33.4676C113.396 33.4676 116.411 30.4527 116.411 26.7338C116.411 23.0148 113.396 20 109.677 20C105.958 20 102.944 23.0148 102.944 26.7338C102.944 30.4527 105.958 33.4676 109.677 33.4676Z" fill="#010066"/>
<path d="M112.023 36.6783C110.345 36.3377 108.521 36.3526 106.873 36.7411C95.6779 38.0528 92.0428 51.0109 93.0693 60.8912C93.5145 65.1628 100.248 65.2076 99.7986 60.8912C99.425 57.2905 99.5849 51.8566 101.499 47.9944C101.499 52.6888 101.499 57.3831 101.499 62.076C101.499 62.2418 101.515 62.3972 101.523 62.5571C101.518 62.6333 101.5 62.6975 101.5 62.7752C101.5 73.9494 101.481 85.119 101.019 96.2842C100.815 101.248 108.51 101.228 108.714 96.2842C109.075 87.5335 109.166 78.7782 109.187 70.0215C109.552 70.0454 109.916 70.0454 110.281 70.0245C110.303 78.7812 110.392 87.5365 110.75 96.2842C110.955 101.228 118.651 101.248 118.445 96.2842C117.983 85.119 117.966 73.9494 117.966 62.7752C117.966 62.4286 117.92 62.1134 117.85 61.8101C117.839 56.9588 117.654 52.1031 117.711 47.2548C120.003 51.1349 120.212 57.0529 119.815 60.8882C119.363 65.2016 126.099 65.1583 126.544 60.8882C127.594 50.8032 123.784 37.509 112.023 36.6783Z" fill="#010066"/>
</svg>
