<svg width="220" height="120" viewBox="0 0 220 120" fill="none" xmlns="http://www.w3.org/2000/svg">
<path d="M87.7738 33.4676C91.4928 33.4676 94.5076 30.4527 94.5076 26.7338C94.5076 23.0148 91.4928 20 87.7738 20C84.0549 20 81.04 23.0148 81.04 26.7338C81.04 30.4527 84.0549 33.4676 87.7738 33.4676Z" fill="#010066"/>
<path d="M90.1196 36.6783C88.4418 36.3377 86.6175 36.3526 84.9695 36.7411C73.7745 38.0528 70.1394 51.0109 71.1658 60.8912C71.6111 65.1628 78.3448 65.2076 77.8951 60.8912C77.5216 57.2905 77.6815 51.8566 79.5954 47.9944C79.5954 52.6888 79.5954 57.3831 79.5954 62.076C79.5954 62.2418 79.6118 62.3972 79.6193 62.5571C79.6148 62.6333 79.5969 62.6975 79.5969 62.7752C79.5969 73.9494 79.5774 85.119 79.1158 96.2842C78.9111 101.248 86.607 101.228 86.8102 96.2842C87.1718 87.5335 87.2629 78.7782 87.2839 70.0215C87.6484 70.0454 88.013 70.0454 88.3775 70.0245C88.3999 78.7812 88.4881 87.5365 88.8467 96.2842C89.0513 101.228 96.7473 101.248 96.5411 96.2842C96.0795 85.119 96.063 73.9494 96.063 62.7752C96.063 62.4286 96.0167 62.1134 95.9465 61.8101C95.936 56.9588 95.7508 52.1031 95.8075 47.2548C98.0994 51.1349 98.3086 57.0529 97.9112 60.8882C97.46 65.2016 104.195 65.1583 104.64 60.8882C105.691 50.8032 101.881 37.509 90.1196 36.6783Z" fill="#010066"/>
<path d="M131.581 33.4676C135.3 33.4676 138.314 30.4527 138.314 26.7338C138.314 23.0148 135.3 20 131.581 20C127.862 20 124.847 23.0148 124.847 26.7338C124.847 30.4527 127.862 33.4676 131.581 33.4676Z" fill="#010066"/>
<path d="M133.926 36.6783C132.249 36.3377 130.424 36.3526 128.776 36.7411C117.581 38.0528 113.946 51.0109 114.973 60.8912C115.418 65.1628 122.152 65.2076 121.702 60.8912C121.328 57.2905 121.488 51.8566 123.402 47.9944C123.402 52.6888 123.402 57.3831 123.402 62.076C123.402 62.2418 123.419 62.3972 123.426 62.5571C123.422 62.6333 123.404 62.6975 123.404 62.7752C123.404 73.9494 123.384 85.119 122.923 96.2842C122.718 101.248 130.414 101.228 130.617 96.2842C130.979 87.5335 131.07 78.7782 131.091 70.0215C131.455 70.0454 131.82 70.0454 132.184 70.0245C132.207 78.7812 132.295 87.5365 132.654 96.2842C132.858 101.228 140.554 101.248 140.348 96.2842C139.886 85.119 139.87 73.9494 139.87 62.7752C139.87 62.4286 139.824 62.1134 139.753 61.8101C139.743 56.9588 139.558 52.1031 139.614 47.2548C141.906 51.1349 142.115 57.0529 141.718 60.8882C141.267 65.2016 148.002 65.1583 148.447 60.8882C149.498 50.8032 145.688 37.509 133.926 36.6783Z" fill="#010066"/>
</svg>
