<svg width="27" height="28" viewBox="0 0 27 28" fill="none" xmlns="http://www.w3.org/2000/svg">
<path d="M16.826 14C23.476 7.4375 11.6985 0 11.6985 0L7.21411 1.20312C7.21411 1.20312 15.9641 6.45313 6.49224 11.8956C-1.38276 16.4325 -0.0702641 22.1112 4.68974 28L20.1904 26.1975C15.2247 23.3144 10.7622 19.9806 16.826 14ZM8.07599 16.1306C8.09495 16.0922 8.12188 16.0582 8.155 16.031C8.18812 16.0037 8.22665 15.9839 8.26804 15.9727C8.30944 15.9615 8.35273 15.9593 8.39505 15.9662C8.43737 15.973 8.47775 15.9888 8.51349 16.0125C8.58412 16.0521 8.63621 16.118 8.65834 16.1959C8.68048 16.2738 8.67087 16.3573 8.63161 16.4281C8.28671 17.0331 8.04427 17.6909 7.91411 18.375C7.90083 18.4453 7.86337 18.5087 7.80823 18.5542C7.7531 18.5998 7.68375 18.6246 7.61224 18.6244H7.55974C7.51962 18.619 7.48118 18.6048 7.44715 18.5829C7.41313 18.561 7.38435 18.5318 7.36286 18.4975C7.33922 18.4651 7.32238 18.4282 7.31336 18.3891C7.30434 18.35 7.30332 18.3095 7.31036 18.27C7.45152 17.5185 7.71614 16.7956 8.09349 16.1306H8.07599ZM8.51349 23.0212C8.46704 23.0436 8.41628 23.0555 8.36474 23.0562C8.31017 23.0566 8.25654 23.0421 8.20955 23.0144C8.16255 22.9866 8.12396 22.9467 8.09786 22.8988C7.74441 22.2571 7.48649 21.5674 7.33224 20.8512C7.31446 20.7718 7.3286 20.6885 7.37161 20.6194C7.41833 20.5524 7.48865 20.5055 7.56849 20.4881H7.62974C7.69982 20.4883 7.76779 20.5122 7.82259 20.5558C7.8774 20.5995 7.91582 20.6605 7.93161 20.7288C8.07202 21.3872 8.3094 22.0212 8.63599 22.61C8.67517 22.6775 8.68747 22.7574 8.67045 22.8336C8.65342 22.9098 8.60832 22.9768 8.54411 23.0212H8.51349ZM13.3872 4.51937C13.3968 4.48026 13.4142 4.44347 13.4382 4.41116C13.4623 4.37885 13.4925 4.35168 13.5272 4.33125C13.5742 4.3055 13.6268 4.29196 13.6804 4.29188C13.7343 4.29202 13.7873 4.30622 13.8341 4.33307C13.8809 4.35992 13.9199 4.3985 13.9472 4.445C14.3232 5.08612 14.5893 5.78554 14.7347 6.51438C14.743 6.55377 14.7433 6.59441 14.7356 6.63392C14.7279 6.67343 14.7124 6.711 14.69 6.74443C14.6676 6.77785 14.6387 6.80646 14.605 6.82856C14.5714 6.85066 14.5337 6.86581 14.4941 6.87313H14.4372C14.3663 6.87354 14.2975 6.84935 14.2424 6.80467C14.1874 6.75999 14.1495 6.69759 14.1354 6.62812C14.0033 5.96526 13.7608 5.32931 13.4179 4.74688C13.3975 4.71306 13.3842 4.67543 13.379 4.6363C13.3737 4.59717 13.3765 4.55737 13.3872 4.51937ZM10.946 25.9131C10.9175 25.9422 10.8834 25.9653 10.8459 25.9811C10.8083 25.9969 10.768 26.005 10.7272 26.005C10.6865 26.005 10.6462 25.9969 10.6086 25.9811C10.571 25.9653 10.537 25.9422 10.5085 25.9131C10.176 25.5981 9.89599 25.3137 9.63349 25.0381C9.60603 25.0079 9.58489 24.9725 9.57131 24.934C9.55774 24.8955 9.55201 24.8546 9.55446 24.8138C9.5569 24.7731 9.56748 24.7332 9.58556 24.6966C9.60364 24.66 9.62886 24.6273 9.65974 24.6006C9.71434 24.5497 9.78632 24.5215 9.86099 24.5219C9.90449 24.5217 9.94755 24.5306 9.98746 24.5479C10.0274 24.5652 10.0633 24.5906 10.0929 24.6225C10.3247 24.8806 10.5916 25.1519 10.911 25.4538C10.9471 25.4786 10.9775 25.5108 11.0001 25.5484C11.0227 25.5859 11.037 25.6279 11.0419 25.6715C11.0469 25.715 11.0425 25.7591 11.029 25.8008C11.0154 25.8425 10.9931 25.8808 10.9635 25.9131H10.946ZM11.6679 13.125L11.4229 13.3219C10.9736 13.6661 10.5469 14.0387 10.1454 14.4375C10.0875 14.4959 10.0088 14.5289 9.92661 14.5294C9.8663 14.5294 9.80733 14.5116 9.75709 14.4782C9.70685 14.4448 9.66759 14.3974 9.64423 14.3418C9.62086 14.2862 9.61444 14.2249 9.62576 14.1656C9.63708 14.1064 9.66564 14.0518 9.70786 14.0087C10.1187 13.5904 10.5572 13.2002 11.0204 12.8406L11.261 12.6438C11.3166 12.5984 11.3861 12.5736 11.4579 12.5737C11.5022 12.5738 11.5459 12.5837 11.586 12.6026C11.6261 12.6215 11.6615 12.649 11.6897 12.6831C11.7424 12.7451 11.7691 12.8251 11.7641 12.9062C11.7615 12.9889 11.727 13.0673 11.6679 13.125ZM12.3722 2.7825C12.3448 2.81034 12.3121 2.83243 12.2761 2.84745C12.24 2.86248 12.2013 2.87015 12.1622 2.87C12.1211 2.86995 12.0804 2.86137 12.0428 2.84481C12.0051 2.82824 11.9713 2.80404 11.9435 2.77375C11.6985 2.52 11.4404 2.275 11.1997 2.06063C11.1378 2.0066 11.0998 1.93021 11.094 1.8482C11.0883 1.7662 11.1153 1.68526 11.1691 1.62313C11.198 1.59002 11.2336 1.56351 11.2736 1.54539C11.3136 1.52728 11.3571 1.51798 11.401 1.51813C11.4735 1.5181 11.5435 1.54455 11.5979 1.5925C11.8647 1.82 12.136 2.07812 12.3941 2.345C12.4485 2.40477 12.4782 2.48294 12.4772 2.56375C12.4767 2.60565 12.467 2.64691 12.4488 2.68469C12.4307 2.72246 12.4046 2.75584 12.3722 2.7825ZM13.3872 11.2044C13.3232 11.2031 13.2609 11.1833 13.2079 11.1475C13.1741 11.1237 13.1455 11.0932 13.1238 11.058C13.1021 11.0229 13.0878 10.9836 13.0816 10.9428C13.0755 10.9019 13.0777 10.8602 13.0881 10.8202C13.0985 10.7802 13.117 10.7427 13.1422 10.71C13.4697 10.2584 13.7333 9.76374 13.9254 9.24C13.948 9.18153 13.9876 9.13114 14.039 9.09529C14.0904 9.05943 14.1514 9.03975 14.2141 9.03875C14.249 9.03453 14.2842 9.03453 14.3191 9.03875C14.3951 9.06733 14.4569 9.12455 14.4913 9.19815C14.5256 9.27175 14.5298 9.35587 14.5029 9.4325C14.2881 10.0103 13.9936 10.5551 13.6279 11.0513C13.6032 11.0944 13.5684 11.1309 13.5265 11.1575C13.4845 11.1842 13.4368 11.2003 13.3872 11.2044Z" fill="#181919"/>
<path d="M2.7825 10.2724H1.85938C1.80136 10.2724 1.74572 10.2955 1.7047 10.3365C1.66367 10.3775 1.64062 10.4332 1.64062 10.4912C1.64175 10.5488 1.66515 10.6038 1.70593 10.6446C1.74672 10.6854 1.80171 10.7088 1.85938 10.7099H4.77313C4.83079 10.7088 4.88578 10.6854 4.92657 10.6446C4.96735 10.6038 4.99076 10.5488 4.99188 10.4912C4.99188 10.4332 4.96883 10.3775 4.9278 10.3365C4.88678 10.2955 4.83114 10.2724 4.77313 10.2724H3.85V8.99493H6.62812C6.0114 8.46445 5.50711 7.81587 5.145 7.08743H5.95C5.43855 6.53928 4.99763 5.92934 4.6375 5.2718C4.89783 5.35945 5.17537 5.38346 5.44688 5.3418C4.90032 4.87648 4.44234 4.31623 4.095 3.68805H4.725C4.08147 2.99777 3.60281 2.17058 3.325 1.26868C3.04078 2.17259 2.55454 2.99994 1.90312 3.68805H2.53312C2.18579 4.31623 1.7278 4.87648 1.18125 5.3418C1.45988 5.38706 1.74536 5.36302 2.0125 5.2718C1.6507 5.92829 1.20993 6.53803 0.7 7.08743H1.4875C1.1246 7.81658 0.618737 8.46528 0 8.99493H2.7825V10.2724Z" fill="#181919"/>
<path d="M23.9966 22.5308H23.2222V20.8246H26.7747C25.9836 20.1438 25.3378 19.3105 24.876 18.3746H25.8954C25.2493 17.6744 24.6924 16.8971 24.2372 16.0602C24.5693 16.1721 24.9231 16.2036 25.2697 16.1521C24.5722 15.5564 23.987 14.8408 23.5416 14.0389H24.3466C23.5192 13.1594 22.9028 12.1032 22.5441 10.9502C22.1854 12.1032 21.569 13.1594 20.7416 14.0389H21.5466C21.1047 14.8533 20.5193 15.581 19.8185 16.1871C20.1651 16.2386 20.5189 16.2071 20.851 16.0952C20.3934 16.9198 19.8365 17.6853 19.1929 18.3746H20.2079C19.7452 19.3051 19.1011 20.1336 18.3135 20.8114H21.866V22.5177H21.0872C21.0296 22.5188 20.9746 22.5422 20.9338 22.583C20.893 22.6238 20.8696 22.6788 20.8685 22.7364C20.8685 22.7945 20.8915 22.8501 20.9325 22.8911C20.9736 22.9321 21.0292 22.9552 21.0872 22.9552H23.9966C24.0546 22.9552 24.1103 22.9321 24.1513 22.8911C24.1923 22.8501 24.2154 22.7945 24.2154 22.7364C24.212 22.6807 24.1875 22.6284 24.1468 22.5902C24.1062 22.552 24.0524 22.5307 23.9966 22.5308Z" fill="#181919"/>
</svg>
