<svg width="100" height="120" viewBox="0 0 100 120" fill="none" xmlns="http://www.w3.org/2000/svg">
<path d="M87.3849 36.0326V16.1107H75.6662V36.0326H68.6349V20.7982H56.9162V36.0326H31.3693V29.1642H43.0923L38.0759 0H17.6312L12.6151 29.1645H24.338V36.0328H0.78125V43.0641H7.8125V68.6109H92.1875V43.0641H99.2188V36.0328L87.3849 36.0326ZM59.375 58.7669H40.625V51.7357H59.375V58.7669Z" fill="black"/>
<path d="M31.3695 29.1642V36.0326L24.3382 36.0328V29.1645H12.6152L17.6313 0H38.0761L43.0924 29.1642H31.3695Z" fill="#E97B08"/>
<path d="M7.8125 104.001H19.4141V109.453C19.4141 111.392 17.837 112.969 15.8984 112.969H12.3828V120H15.8984C21.714 120 26.4453 115.269 26.4453 109.453V104.001H73.5547V109.453C73.5547 115.269 78.286 120 84.1016 120H87.6172V112.969H84.1016C82.163 112.969 80.5859 111.392 80.5859 109.453V104.001H92.1875V75.6418H7.8125V104.001ZM40.625 86.3059H59.375V93.3372H40.625V86.3059Z" fill="black"/>
</svg>
