<svg width="32" height="32" viewBox="0 0 32 32" fill="none" xmlns="http://www.w3.org/2000/svg">
<path d="M4.00016 5.33301C3.29292 5.33301 2.61464 5.61396 2.11454 6.11406C1.61445 6.61415 1.3335 7.29243 1.3335 7.99967V22.6663H4.00016C4.00016 23.7272 4.42159 24.7446 5.17174 25.4948C5.92188 26.2449 6.9393 26.6663 8.00016 26.6663C9.06103 26.6663 10.0784 26.2449 10.8286 25.4948C11.5787 24.7446 12.0002 23.7272 12.0002 22.6663H20.0002C20.0002 23.7272 20.4216 24.7446 21.1717 25.4948C21.9219 26.2449 22.9393 26.6663 24.0002 26.6663C25.061 26.6663 26.0784 26.2449 26.8286 25.4948C27.5787 24.7446 28.0002 23.7272 28.0002 22.6663H30.6668V15.9997L26.6668 10.6663H22.6668V5.33301M13.3335 7.99967L18.6668 13.333L13.3335 18.6663V14.6663H5.3335V11.9997H13.3335M22.6668 12.6663H26.0002L28.6268 15.9997H22.6668M8.00016 20.6663C8.5306 20.6663 9.0393 20.8771 9.41438 21.2521C9.78945 21.6272 10.0002 22.1359 10.0002 22.6663C10.0002 23.1968 9.78945 23.7055 9.41438 24.0806C9.0393 24.4556 8.5306 24.6663 8.00016 24.6663C7.46973 24.6663 6.96102 24.4556 6.58595 24.0806C6.21088 23.7055 6.00016 23.1968 6.00016 22.6663C6.00016 22.1359 6.21088 21.6272 6.58595 21.2521C6.96102 20.8771 7.46973 20.6663 8.00016 20.6663ZM24.0002 20.6663C24.5306 20.6663 25.0393 20.8771 25.4144 21.2521C25.7894 21.6272 26.0002 22.1359 26.0002 22.6663C26.0002 23.1968 25.7894 23.7055 25.4144 24.0806C25.0393 24.4556 24.5306 24.6663 24.0002 24.6663C23.4697 24.6663 22.961 24.4556 22.586 24.0806C22.2109 23.7055 22.0002 23.1968 22.0002 22.6663C22.0002 22.1359 22.2109 21.6272 22.586 21.2521C22.961 20.8771 23.4697 20.6663 24.0002 20.6663Z" fill="white"/>
</svg>
