<svg width="220" height="120" viewBox="0 0 220 120" fill="none" xmlns="http://www.w3.org/2000/svg">
<path d="M206.498 90.3862L204.374 93.2622H20.57L13.926 86.6182C13.926 86.6182 59.494 31.5842 60.556 31.1102C61.618 30.6382 139.794 19.6922 140.306 19.5442C140.816 19.3962 155.552 19.5442 155.552 19.5442L206.5 90.3842L206.498 90.3862Z" fill="#0E1316"/>
<path d="M113.1 97.0282V84.9882H115.154V97.0282H113.1Z" fill="#303D49"/>
<path d="M132.512 97.0283V84.9883H134.566V97.0283H132.512Z" fill="#303D49"/>
<path d="M113.1 95.9658H134.566V98.0198H113.1V95.9658Z" fill="#E97B08"/>
<path d="M188.862 97.0283V84.9883H190.916V97.0283H188.862Z" fill="#303D49"/>
<path d="M200.622 97.0262V84.9862H202.676V97.0262H200.622Z" fill="#303D49"/>
<path d="M40.2863 103.293C30.8433 103.293 23.1883 95.6376 23.1883 86.1947C23.1883 76.7517 30.8433 69.0967 40.2863 69.0967C49.7292 69.0967 57.3843 76.7517 57.3843 86.1947C57.3843 95.6376 49.7292 103.293 40.2863 103.293Z" fill="#303D49"/>
<path d="M39.0177 93.8934C34.7601 93.2023 31.8688 89.1906 32.5599 84.9329C33.251 80.6753 37.2628 77.7841 41.5204 78.4752C45.778 79.1663 48.6692 83.1781 47.9781 87.4357C47.287 91.6933 43.2753 94.5845 39.0177 93.8934Z" fill="#E97B08"/>
<g style="mix-blend-mode:overlay" opacity="0.3">
<path d="M39.4278 91.3686C36.5646 90.9038 34.6204 88.2061 35.0851 85.3429C35.5499 82.4798 38.2476 80.5355 41.1108 81.0003C43.9739 81.465 45.9182 84.1628 45.4534 87.0259C44.9887 89.8891 42.2909 91.8333 39.4278 91.3686Z" fill="white"/>
</g>
<path d="M40.2862 89.6707C38.3665 89.6707 36.8102 88.1144 36.8102 86.1947C36.8102 84.2749 38.3665 82.7187 40.2862 82.7187C42.2059 82.7187 43.7622 84.2749 43.7622 86.1947C43.7622 88.1144 42.2059 89.6707 40.2862 89.6707Z" fill="#E97B08"/>
<path d="M39.8584 81.849C39.8584 82.085 40.0504 82.2771 40.2864 82.2771C40.5224 82.2771 40.7144 82.085 40.7144 81.849C40.7144 81.613 40.5224 81.421 40.2864 81.421C40.0504 81.421 39.8584 81.613 39.8584 81.849ZM40.2864 79.915C40.4724 79.915 40.6224 80.065 40.6224 80.251C40.6224 80.437 40.4724 80.587 40.2864 80.587C40.1004 80.587 39.9504 80.437 39.9504 80.251C39.9504 80.065 40.1004 79.915 40.2864 79.915ZM42.6744 82.061C42.8804 82.179 42.9504 82.441 42.8304 82.647C42.7124 82.853 42.4504 82.9231 42.2444 82.8031C42.0384 82.6851 41.9684 82.423 42.0884 82.217C42.2064 82.011 42.4684 81.941 42.6744 82.061ZM44.4224 83.8071C44.5404 84.0131 44.4704 84.275 44.2664 84.393C44.0604 84.511 43.7984 84.441 43.6804 84.237C43.5624 84.031 43.6324 83.769 43.8364 83.651C44.0424 83.533 44.3044 83.6031 44.4224 83.8071ZM45.0624 86.195C45.0624 86.431 44.8704 86.623 44.6344 86.623C44.3984 86.623 44.2064 86.431 44.2064 86.195C44.2064 85.959 44.3984 85.767 44.6344 85.767C44.8704 85.767 45.0624 85.959 45.0624 86.195ZM44.4224 88.5831C44.3044 88.7891 44.0424 88.859 43.8364 88.739C43.6304 88.621 43.5604 88.3591 43.6804 88.1531C43.7984 87.9471 44.0604 87.877 44.2664 87.997C44.4724 88.115 44.5424 88.3771 44.4224 88.5831ZM42.6744 90.3311C42.4684 90.4491 42.2064 90.379 42.0884 90.175C41.9704 89.969 42.0404 89.707 42.2444 89.589C42.4504 89.471 42.7124 89.541 42.8304 89.745C42.9484 89.951 42.8784 90.2131 42.6744 90.3311ZM40.2864 90.969C40.0504 90.969 39.8584 90.7771 39.8584 90.5411C39.8584 90.3051 40.0504 90.113 40.2864 90.113C40.5224 90.113 40.7144 90.3051 40.7144 90.5411C40.7144 90.7771 40.5224 90.969 40.2864 90.969ZM37.9004 90.3311C37.6944 90.2131 37.6244 89.951 37.7444 89.745C37.8624 89.539 38.1244 89.469 38.3304 89.589C38.5364 89.707 38.6064 89.969 38.4864 90.175C38.3684 90.381 38.1064 90.4511 37.9004 90.3311ZM36.1524 88.5831C36.0344 88.3771 36.1044 88.115 36.3084 87.997C36.5124 87.879 36.7764 87.9491 36.8944 88.1531C37.0124 88.3591 36.9424 88.621 36.7384 88.739C36.5344 88.857 36.2704 88.7871 36.1524 88.5831ZM35.5124 86.195C35.5124 85.959 35.7044 85.767 35.9404 85.767C36.1764 85.767 36.3684 85.959 36.3684 86.195C36.3684 86.431 36.1764 86.623 35.9404 86.623C35.7044 86.623 35.5124 86.431 35.5124 86.195ZM36.1524 83.8071C36.2704 83.6011 36.5324 83.531 36.7384 83.651C36.9444 83.769 37.0144 84.031 36.8944 84.237C36.7764 84.443 36.5144 84.513 36.3084 84.393C36.1024 84.275 36.0324 84.0131 36.1524 83.8071ZM42.4344 80.295C42.6084 80.359 42.6984 80.551 42.6344 80.725C42.5704 80.899 42.3784 80.989 42.2044 80.925C42.0304 80.861 41.9404 80.669 42.0044 80.495C42.0684 80.321 42.2604 80.231 42.4344 80.295ZM44.3244 81.385C44.4664 81.505 44.4844 81.717 44.3664 81.859C44.2464 82.001 44.0344 82.019 43.8924 81.901C43.7504 81.781 43.7324 81.5691 43.8504 81.4271C43.9704 81.2851 44.1824 81.267 44.3244 81.385ZM45.7264 83.0551C45.8184 83.2151 45.7644 83.421 45.6044 83.513C45.4444 83.605 45.2384 83.551 45.1464 83.391C45.0544 83.231 45.1084 83.0251 45.2684 82.9331C45.4284 82.8411 45.6344 82.8951 45.7264 83.0551ZM46.4724 85.1051C46.5044 85.2871 46.3824 85.461 46.2004 85.495C46.0184 85.527 45.8444 85.405 45.8104 85.223C45.7784 85.041 45.9004 84.8671 46.0824 84.8331C46.2644 84.8011 46.4384 84.9231 46.4724 85.1051ZM46.4724 87.285C46.4404 87.467 46.2664 87.5891 46.0824 87.5571C45.9004 87.5251 45.7784 87.351 45.8104 87.167C45.8424 86.985 46.0164 86.863 46.2004 86.895C46.3824 86.927 46.5044 87.101 46.4724 87.285ZM45.7264 89.335C45.6344 89.495 45.4284 89.5511 45.2684 89.4571C45.1084 89.3651 45.0524 89.159 45.1464 88.999C45.2384 88.839 45.4444 88.7831 45.6044 88.8771C45.7644 88.9711 45.8204 89.175 45.7264 89.335ZM44.3244 91.005C44.1824 91.125 43.9704 91.105 43.8504 90.963C43.7304 90.821 43.7504 90.6091 43.8924 90.4891C44.0344 90.3691 44.2464 90.3891 44.3664 90.5311C44.4864 90.6731 44.4664 90.885 44.3244 91.005ZM42.4344 92.097C42.2604 92.161 42.0664 92.071 42.0044 91.897C41.9404 91.723 42.0304 91.529 42.2044 91.467C42.3784 91.403 42.5724 91.493 42.6344 91.667C42.6964 91.841 42.6084 92.035 42.4344 92.097ZM40.2864 92.475C40.1004 92.475 39.9504 92.3251 39.9504 92.1391C39.9504 91.9531 40.1004 91.803 40.2864 91.803C40.4724 91.803 40.6224 91.9531 40.6224 92.1391C40.6224 92.3251 40.4724 92.475 40.2864 92.475ZM38.1404 92.097C37.9664 92.033 37.8764 91.841 37.9404 91.667C38.0044 91.493 38.1964 91.403 38.3704 91.467C38.5444 91.531 38.6344 91.723 38.5704 91.897C38.5064 92.071 38.3144 92.161 38.1404 92.097ZM36.2504 91.005C36.1084 90.885 36.0904 90.6731 36.2084 90.5311C36.3284 90.3891 36.5404 90.3711 36.6824 90.4891C36.8244 90.6091 36.8424 90.821 36.7244 90.963C36.6044 91.105 36.3924 91.123 36.2504 91.005ZM34.8484 89.335C34.7564 89.175 34.8104 88.9691 34.9704 88.8771C35.1304 88.7851 35.3364 88.839 35.4284 88.999C35.5204 89.159 35.4664 89.3651 35.3064 89.4571C35.1465 89.5491 34.9404 89.495 34.8484 89.335ZM34.1024 87.285C34.0704 87.103 34.1924 86.929 34.3744 86.895C34.5564 86.863 34.7304 86.985 34.7644 87.167C34.7964 87.349 34.6744 87.5231 34.4924 87.5571C34.3104 87.5891 34.1364 87.467 34.1024 87.285ZM34.1024 85.1051C34.1344 84.9231 34.3084 84.8011 34.4924 84.8331C34.6744 84.8651 34.7964 85.039 34.7644 85.223C34.7324 85.405 34.5584 85.527 34.3744 85.495C34.1924 85.463 34.0704 85.2891 34.1024 85.1051ZM34.8484 83.0551C34.9404 82.8951 35.1465 82.8391 35.3064 82.9331C35.4664 83.0251 35.5224 83.231 35.4284 83.391C35.3364 83.551 35.1304 83.607 34.9704 83.513C34.8104 83.421 34.7544 83.2151 34.8484 83.0551ZM36.2504 81.385C36.3924 81.265 36.6044 81.2851 36.7244 81.4271C36.8444 81.5691 36.8244 81.781 36.6824 81.901C36.5404 82.021 36.3284 82.001 36.2084 81.859C36.0884 81.717 36.1084 81.505 36.2504 81.385ZM38.1404 80.295C38.3144 80.231 38.5084 80.321 38.5704 80.495C38.6344 80.669 38.5444 80.863 38.3704 80.925C38.1964 80.987 38.0024 80.899 37.9404 80.725C37.8784 80.551 37.9664 80.357 38.1404 80.295ZM37.9004 82.061C38.1064 81.943 38.3684 82.013 38.4864 82.217C38.6044 82.423 38.5344 82.6851 38.3304 82.8031C38.1244 82.9211 37.8624 82.851 37.7444 82.647C37.6264 82.441 37.6964 82.179 37.9004 82.061Z" fill="#B69652"/>
<g style="mix-blend-mode:overlay" opacity="0.3">
<path d="M30.5382 75.1227L31.0782 74.6707L29.9122 72.6087C29.4962 72.9267 29.0962 73.2627 28.7122 73.6167L30.5402 75.1247L30.5382 75.1227ZM33.7062 70.4107C34.1862 70.2107 34.6782 70.0287 35.1802 69.8727L35.5722 72.2167L34.9102 72.4567L33.7062 70.4107ZM29.2162 76.4447L28.7642 76.9847L26.7022 75.8187C27.0202 75.4027 27.3562 75.0027 27.7102 74.6187L29.2182 76.4467L29.2162 76.4447ZM54.8722 83.9807L54.7502 83.2867L56.9702 82.4567C57.0842 82.9627 57.1722 83.4787 57.2402 84.0007L54.8722 83.9807ZM50.0362 75.1227L49.4962 74.6707L50.6622 72.6087C51.0782 72.9267 51.4782 73.2627 51.8622 73.6167L50.0342 75.1247L50.0362 75.1227ZM45.6622 72.4567L45.0002 72.2167L45.3922 69.8727C45.8942 70.0287 46.3862 70.2107 46.8662 70.4107L45.6602 72.4567H45.6622ZM54.2662 81.4807L54.0262 80.8187L56.0722 79.6147C56.2722 80.0947 56.4542 80.5867 56.6102 81.0887L54.2662 81.4807ZM51.3582 76.4447L52.8662 74.6167C53.2202 75.0007 53.5562 75.4027 53.8742 75.8167L51.8122 76.9827L51.3602 76.4427L51.3582 76.4447ZM26.5482 80.8207L26.3082 81.4827L23.9642 81.0907C24.1202 80.5887 24.3022 80.0967 24.5022 79.6167L26.5482 80.8207ZM27.6902 78.5167L27.3382 79.1267L25.1042 78.3347C25.3462 77.8687 25.6082 77.4167 25.8902 76.9787L27.6922 78.5167H27.6902ZM47.3562 99.1427L47.9662 98.7907L49.5042 100.593C49.0642 100.875 48.6122 101.137 48.1482 101.379L47.3562 99.1447V99.1427ZM32.6082 98.7907L33.2182 99.1427L32.4262 101.377C31.9602 101.135 31.5082 100.873 31.0702 100.591L32.6082 98.7887V98.7907ZM25.8242 83.2867L25.7022 83.9807L23.3342 84.0007C23.4002 83.4787 23.4902 82.9627 23.6042 82.4567L25.8242 83.2867ZM52.8842 78.5167L54.6862 76.9787C54.9682 77.4187 55.2302 77.8707 55.4722 78.3347L53.2382 79.1267L52.8862 78.5167H52.8842ZM27.6902 93.8747L25.8882 95.4127C25.6062 94.9727 25.3442 94.5207 25.1022 94.0567L27.3362 93.2647L27.6882 93.8747H27.6902ZM25.5382 86.5467L23.2082 86.9787C23.1962 86.7187 23.1882 86.4587 23.1882 86.1947C23.1882 85.9307 23.1962 85.6707 23.2082 85.4107L25.5382 85.8427V86.5467ZM47.9662 73.5987L47.3562 73.2467L48.1482 71.0127C48.6142 71.2547 49.0662 71.5167 49.5042 71.7987L47.9662 73.6007V73.5987ZM33.2182 73.2467L32.6082 73.5987L31.0702 71.7967C31.5082 71.5147 31.9622 71.2527 32.4262 71.0107L33.2182 73.2447V73.2467ZM37.3802 100.659L38.0742 100.781L38.0942 103.149C37.5722 103.083 37.0562 102.993 36.5502 102.879L37.3802 100.659ZM34.9122 99.9327L35.5742 100.173L35.1822 102.517C34.6802 102.361 34.1882 102.179 33.7082 101.979L34.9142 99.9327H34.9122ZM39.5042 103.273L39.9362 100.943H40.6402L41.0722 103.273C40.8122 103.285 40.5522 103.293 40.2882 103.293C40.0242 103.293 39.7642 103.285 39.5042 103.273ZM37.3802 71.7327L36.5502 69.5127C37.0562 69.3987 37.5722 69.3107 38.0942 69.2427L38.0742 71.6107L37.3802 71.7327ZM39.9342 71.4467L39.5022 69.1167C39.7622 69.1047 40.0222 69.0967 40.2862 69.0967C40.5502 69.0967 40.8102 69.1047 41.0702 69.1167L40.6382 71.4467H39.9342ZM30.5382 97.2667L31.0782 97.7187L29.9122 99.7807C29.4962 99.4627 29.0962 99.1267 28.7122 98.7727L30.5402 97.2647L30.5382 97.2667ZM26.7002 96.5727L28.7622 95.4067L29.2142 95.9467L27.7062 97.7747C27.3522 97.3907 27.0162 96.9887 26.6982 96.5747L26.7002 96.5727ZM25.7022 88.4087L25.8242 89.1027L23.6042 89.9327C23.4902 89.4267 23.4022 88.9107 23.3342 88.3887L25.7022 88.4087ZM26.3082 90.9087L26.5482 91.5707L24.5022 92.7747C24.3022 92.2947 24.1202 91.8027 23.9642 91.3007L26.3082 90.9087ZM54.0262 91.5707L54.2662 90.9087L56.6102 91.3007C56.4542 91.8027 56.2722 92.2947 56.0722 92.7747L54.0262 91.5687V91.5707ZM55.0362 85.8427L57.3662 85.4107C57.3782 85.6707 57.3862 85.9307 57.3862 86.1947C57.3862 86.4587 57.3782 86.7187 57.3662 86.9787L55.0362 86.5467V85.8427ZM52.8842 93.8747L53.2362 93.2647L55.4702 94.0567C55.2282 94.5227 54.9662 94.9747 54.6842 95.4127L52.8822 93.8747H52.8842ZM51.3582 95.9447L51.8102 95.4047L53.8722 96.5707C53.5542 96.9867 53.2182 97.3867 52.8642 97.7707L51.3562 95.9427L51.3582 95.9447ZM42.5022 71.6087L42.4822 69.2407C43.0042 69.3067 43.5202 69.3967 44.0262 69.5107L43.1962 71.7307L42.5022 71.6087ZM54.7502 89.1027L54.8722 88.4087L57.2402 88.3887C57.1742 88.9107 57.0842 89.4267 56.9702 89.9327L54.7502 89.1027ZM50.6642 99.7807L49.4982 97.7187L50.0382 97.2667L51.8662 98.7747C51.4822 99.1287 51.0802 99.4647 50.6662 99.7827L50.6642 99.7807ZM42.5022 100.781L43.1962 100.659L44.0262 102.879C43.5202 102.993 43.0042 103.081 42.4822 103.149L42.5022 100.781ZM45.0002 100.175L45.6622 99.9347L46.8662 101.981C46.3862 102.181 45.8942 102.363 45.3922 102.519L45.0002 100.175Z" fill="white"/>
</g>
<g style="mix-blend-mode:overlay" opacity="0.3">
<path d="M40.2863 69.0967C49.7303 69.0967 57.3843 76.7527 57.3843 86.1947C57.3843 95.6367 49.7283 103.293 40.2863 103.293C30.8443 103.293 23.1883 95.6367 23.1883 86.1947C23.1883 76.7527 30.8443 69.0967 40.2863 69.0967ZM40.2863 101.523C48.7523 101.523 55.6143 94.6607 55.6143 86.1947C55.6143 77.7287 48.7523 70.8667 40.2863 70.8667C31.8203 70.8667 24.9583 77.7287 24.9583 86.1947C24.9583 94.6607 31.8203 101.523 40.2863 101.523Z" fill="white"/>
</g>
<g style="mix-blend-mode:overlay" opacity="0.3">
<path d="M40.2863 74.3488C46.8283 74.3488 52.1323 79.6528 52.1323 86.1948C52.1323 92.7368 46.8283 98.0408 40.2863 98.0408C33.7443 98.0408 28.4403 92.7368 28.4403 86.1948C28.4403 79.6528 33.7443 74.3488 40.2863 74.3488ZM40.2863 95.0928C45.2003 95.0928 49.1843 91.1088 49.1843 86.1948C49.1843 81.2808 45.2003 77.2968 40.2863 77.2968C35.3723 77.2968 31.3883 81.2808 31.3883 86.1948C31.3883 91.1088 35.3723 95.0928 40.2863 95.0928Z" fill="white"/>
</g>
<path d="M183.234 91.878H207.798L210.344 90.544V69.088L207.678 67.39V66.42L210.344 65.692V44.842L200.524 15.87L194.462 11.02H150.336L148.276 12.838V60.964L154.082 68.78C157.052 66.81 160.616 65.662 164.448 65.662C174.824 65.662 183.236 74.074 183.236 84.45V91.878H183.234ZM11.0098 9H142.134L146.094 13.202V60.964L152.674 69.814C149.608 72.284 147.332 75.696 146.292 79.614L143.816 90.058H59.6558L54.7498 84.448H25.8237L20.9178 90.058H11.5338L6.80576 85.33V13.202L11.0078 9H11.0098Z" fill="#E97B08"/>
<g style="mix-blend-mode:overlay" opacity="0.3">
<path d="M151.592 65.4282L154.084 68.7822C157.054 66.8122 160.618 65.6642 164.45 65.6642C174.826 65.6642 183.238 74.0762 183.238 84.4522V91.8802H187.326V84.4522C187.326 71.8382 177.064 61.5782 164.452 61.5782C161.258 61.5782 158.136 62.2362 155.256 63.5042L151.596 65.4322L151.592 65.4282Z" fill="white"/>
</g>
<path d="M210.344 44.8419H207.676L198.402 18.2939H201.346L210.344 44.8419Z" fill="#303D49"/>
<path d="M148.276 48.1163V57.3303H187.312L175.276 48.1163H148.276ZM146.094 57.3283H6.80553V48.1143H146.094V57.3283Z" fill="#010066"/>
<g style="mix-blend-mode:overlay" opacity="0.3">
<path d="M142.746 81.0462H11.01V9.00018L6.80804 13.2022V85.3302L11.536 90.0582H20.92L25.826 84.4482H54.752L59.658 90.0582H143.818L146.294 79.6142C147.334 75.6962 149.61 72.2862 152.676 69.8142L146.096 60.9642V13.2022L142.748 9.64818V81.0442L142.746 81.0462ZM183.234 91.0842H206.984L210.342 90.1382V90.5442L207.796 91.8782H183.234V91.0842ZM154.082 68.7822L148.276 60.9662V12.8402L150.336 11.0222V60.3902L155.172 68.1122C154.8 68.3242 154.436 68.5462 154.082 68.7822Z" fill="white"/>
</g>
<g style="mix-blend-mode:overlay" opacity="0.3">
<path d="M55.8024 85.6543L59.6564 90.0603H143.816L144.86 85.6543H55.8024ZM24.7723 85.6543L20.9184 90.0603H11.5343L7.12836 85.6543H24.7703H24.7723Z" fill="white"/>
</g>
<g style="mix-blend-mode:overlay" opacity="0.3">
<path d="M148.276 16.5343H200.75L200.894 16.9603V17.3863H196.064L205.332 45.1103L205.354 45.1763V66.5383H207.676V67.3883H207.678H186.856L179.714 57.9883L165.49 53.1303V65.6883C165.208 65.6723 164.924 65.6663 164.638 65.6623V17.3803H148.274V16.5283L148.276 16.5343ZM165.492 52.2363L180.238 57.2723L187.28 66.5423H204.502V45.3183L195.166 17.3883H165.492V52.2383V52.2363Z" fill="white"/>
</g>
<path d="M200.322 41.5698L193.534 19.5479H169.29V37.0039L179.796 38.6198L186.262 41.5698H200.322ZM200.322 48.1158V57.3299H196.038L185.916 49.3898V48.1178H200.322V48.1158Z" fill="#303D49"/>
<g style="mix-blend-mode:overlay" opacity="0.3">
<path d="M200.322 48.1162V57.3302H196.038L185.916 49.3902V48.1182H200.322V48.1162ZM187.624 49.7442L195.904 56.2402H199.408V48.7042H187.624V49.7462V49.7442Z" fill="white"/>
</g>
<g style="mix-blend-mode:overlay" opacity="0.3">
<path d="M91.6466 66.5406H109.669V90.0606H108.817V67.3926H91.6466V70.8886H84.8946V67.3926H67.7246V90.0606H66.8726V66.5406H91.6466ZM85.7466 70.0366H90.7946V67.3926H85.7466V70.0366ZM134.641 31.1426V86.8886H113.101V31.1426H134.641ZM113.951 86.0386H133.789V31.9946H113.951V86.0386Z" fill="white"/>
</g>
<path d="M152.358 98.2845C145.68 91.6073 145.68 80.7814 152.358 74.1042C159.035 67.427 169.861 67.427 176.538 74.1042C183.215 80.7814 183.215 91.6073 176.538 98.2844C169.861 104.962 159.035 104.962 152.358 98.2845Z" fill="#303D49"/>
<path d="M164.449 94.0038C160.135 94.0038 156.639 90.5071 156.639 86.1938C156.639 81.8805 160.135 78.3838 164.449 78.3838C168.762 78.3838 172.259 81.8805 172.259 86.1938C172.259 90.5071 168.762 94.0038 164.449 94.0038Z" fill="#E97B08"/>
<g style="mix-blend-mode:overlay" opacity="0.3">
<path d="M159.595 88.2046C158.485 85.5248 159.758 82.4525 162.438 81.3425C165.117 80.2325 168.19 81.5051 169.3 84.1849C170.41 86.8647 169.137 89.937 166.457 91.047C163.778 92.157 160.705 90.8844 159.595 88.2046Z" fill="white"/>
</g>
<path d="M164.449 89.6698C162.529 89.6698 160.973 88.1135 160.973 86.1938C160.973 84.274 162.529 82.7178 164.449 82.7178C166.369 82.7178 167.925 84.274 167.925 86.1938C167.925 88.1135 166.369 89.6698 164.449 89.6698Z" fill="#E97B08"/>
<path d="M164.019 81.8481C164.019 82.0841 164.211 82.2761 164.447 82.2761C164.683 82.2761 164.875 82.0841 164.875 81.8481C164.875 81.6121 164.683 81.4201 164.447 81.4201C164.211 81.4201 164.019 81.6121 164.019 81.8481ZM164.449 79.9141C164.635 79.9141 164.785 80.0641 164.785 80.2501C164.785 80.4361 164.635 80.5861 164.449 80.5861C164.263 80.5861 164.113 80.4361 164.113 80.2501C164.113 80.0641 164.263 79.9141 164.449 79.9141ZM166.835 82.0601C167.041 82.1781 167.111 82.4401 166.991 82.6461C166.873 82.8521 166.611 82.9221 166.405 82.8021C166.199 82.6841 166.129 82.4221 166.249 82.2161C166.367 82.0101 166.629 81.9401 166.835 82.0601ZM168.583 83.8061C168.701 84.0121 168.631 84.2741 168.427 84.3921C168.221 84.5101 167.959 84.4401 167.841 84.2361C167.723 84.0301 167.793 83.7681 167.997 83.6501C168.203 83.5321 168.465 83.6021 168.583 83.8061ZM169.223 86.1941C169.223 86.4301 169.031 86.6221 168.795 86.6221C168.559 86.6221 168.367 86.4301 168.367 86.1941C168.367 85.9581 168.559 85.7661 168.795 85.7661C169.031 85.7661 169.223 85.9581 169.223 86.1941ZM168.583 88.5821C168.465 88.7881 168.203 88.8581 167.997 88.7381C167.791 88.6181 167.721 88.3581 167.841 88.1521C167.959 87.9461 168.221 87.8761 168.427 87.9961C168.633 88.1141 168.703 88.3761 168.583 88.5821ZM166.835 90.3301C166.629 90.4481 166.367 90.3781 166.249 90.1741C166.131 89.9681 166.201 89.7061 166.405 89.5881C166.611 89.4701 166.873 89.5401 166.991 89.7441C167.109 89.9501 167.039 90.2121 166.835 90.3301ZM164.449 90.9681C164.213 90.9681 164.021 90.7761 164.021 90.5401C164.021 90.3041 164.213 90.1121 164.449 90.1121C164.685 90.1121 164.877 90.3041 164.877 90.5401C164.877 90.7761 164.685 90.9681 164.449 90.9681ZM162.061 90.3301C161.855 90.2121 161.785 89.9501 161.905 89.7441C162.023 89.5381 162.285 89.4681 162.491 89.5881C162.697 89.7061 162.767 89.9681 162.647 90.1741C162.529 90.3801 162.267 90.4501 162.061 90.3301ZM160.313 88.5821C160.195 88.3761 160.265 88.1141 160.469 87.9961C160.675 87.8781 160.937 87.9481 161.055 88.1521C161.173 88.3581 161.103 88.6201 160.899 88.7381C160.695 88.8561 160.431 88.7861 160.313 88.5821ZM159.673 86.1941C159.673 85.9581 159.865 85.7661 160.101 85.7661C160.337 85.7661 160.529 85.9581 160.529 86.1941C160.529 86.4301 160.337 86.6221 160.101 86.6221C159.865 86.6221 159.673 86.4301 159.673 86.1941ZM160.313 83.8061C160.431 83.6001 160.693 83.5301 160.899 83.6501C161.105 83.7681 161.175 84.0301 161.055 84.2361C160.937 84.4421 160.675 84.5121 160.469 84.3921C160.263 84.2741 160.193 84.0121 160.313 83.8061ZM166.597 80.2941C166.771 80.3581 166.861 80.5501 166.797 80.7241C166.733 80.8981 166.541 80.9881 166.367 80.9241C166.193 80.8601 166.103 80.6681 166.167 80.4941C166.231 80.3201 166.423 80.2301 166.597 80.2941ZM168.485 81.3841C168.627 81.5041 168.645 81.7161 168.527 81.8581C168.407 82.0001 168.195 82.0181 168.053 81.9001C167.911 81.7821 167.893 81.5681 168.011 81.4261C168.131 81.2841 168.343 81.2661 168.485 81.3841ZM169.887 83.0541C169.979 83.2141 169.925 83.4201 169.765 83.5121C169.605 83.6041 169.399 83.5501 169.307 83.3901C169.215 83.2301 169.269 83.0241 169.429 82.9321C169.589 82.8401 169.795 82.8941 169.887 83.0541ZM170.633 85.1041C170.665 85.2861 170.543 85.4601 170.361 85.4941C170.179 85.5261 170.005 85.4041 169.971 85.2221C169.939 85.0401 170.061 84.8661 170.243 84.8321C170.425 84.8001 170.599 84.9221 170.633 85.1041ZM170.633 87.2841C170.601 87.4661 170.427 87.5881 170.243 87.5561C170.061 87.5241 169.939 87.3501 169.971 87.1661C170.003 86.9841 170.177 86.8621 170.361 86.8941C170.543 86.9261 170.665 87.1001 170.633 87.2841ZM169.887 89.3341C169.795 89.4941 169.589 89.5501 169.429 89.4561C169.269 89.3621 169.213 89.1581 169.307 88.9981C169.399 88.8381 169.605 88.7821 169.765 88.8761C169.925 88.9681 169.981 89.1741 169.887 89.3341ZM168.485 91.0041C168.343 91.1241 168.131 91.1041 168.011 90.9621C167.891 90.8201 167.911 90.6081 168.053 90.4881C168.195 90.3681 168.407 90.3881 168.527 90.5301C168.647 90.6721 168.627 90.8841 168.485 91.0041ZM166.597 92.096C166.423 92.16 166.229 92.07 166.167 91.896C166.103 91.722 166.193 91.5281 166.367 91.4661C166.541 91.4021 166.735 91.4921 166.797 91.6661C166.861 91.8401 166.771 92.034 166.597 92.096ZM164.449 92.4741C164.263 92.4741 164.113 92.3241 164.113 92.1381C164.113 91.9521 164.263 91.8021 164.449 91.8021C164.635 91.8021 164.785 91.9521 164.785 92.1381C164.785 92.3241 164.635 92.4741 164.449 92.4741ZM162.301 92.096C162.127 92.032 162.037 91.8401 162.101 91.6661C162.165 91.4921 162.357 91.4021 162.531 91.4661C162.705 91.5301 162.795 91.722 162.731 91.896C162.667 92.07 162.475 92.16 162.301 92.096ZM160.411 91.0041C160.269 90.8841 160.251 90.6721 160.369 90.5301C160.487 90.3881 160.701 90.3701 160.843 90.4881C160.985 90.6081 161.003 90.8201 160.885 90.9621C160.765 91.1041 160.553 91.1221 160.411 91.0041ZM159.009 89.3341C158.917 89.1741 158.971 88.9681 159.131 88.8761C159.291 88.7841 159.497 88.8381 159.589 88.9981C159.681 89.1581 159.627 89.3641 159.467 89.4561C159.307 89.5481 159.101 89.4941 159.009 89.3341ZM158.265 87.2841C158.233 87.1021 158.355 86.9281 158.537 86.8941C158.719 86.8621 158.893 86.9841 158.927 87.1661C158.959 87.3481 158.837 87.5221 158.655 87.5561C158.473 87.5881 158.299 87.4661 158.265 87.2841ZM158.265 85.1041C158.297 84.9221 158.471 84.8001 158.655 84.8321C158.837 84.8641 158.959 85.0381 158.927 85.2221C158.895 85.4041 158.721 85.5261 158.537 85.4941C158.355 85.4621 158.233 85.2881 158.265 85.1041ZM159.009 83.0541C159.101 82.8941 159.307 82.8381 159.467 82.9321C159.627 83.0241 159.683 83.2301 159.589 83.3901C159.497 83.5501 159.291 83.6061 159.131 83.5121C158.971 83.4201 158.915 83.2141 159.009 83.0541ZM160.411 81.3841C160.553 81.2641 160.765 81.2841 160.885 81.4261C161.005 81.5681 160.985 81.7801 160.843 81.9001C160.701 82.0201 160.489 82.0001 160.369 81.8581C160.249 81.7161 160.269 81.5041 160.411 81.3841ZM162.301 80.2941C162.475 80.2301 162.669 80.3201 162.731 80.4941C162.795 80.6681 162.705 80.8621 162.531 80.9241C162.357 80.9861 162.163 80.8981 162.101 80.7241C162.037 80.5501 162.127 80.3561 162.301 80.2941ZM162.061 82.0601C162.267 81.9421 162.529 82.0121 162.647 82.2161C162.765 82.4221 162.695 82.6841 162.491 82.8021C162.285 82.9201 162.023 82.8501 161.905 82.6461C161.787 82.4401 161.857 82.1781 162.061 82.0601Z" fill="#B69652"/>
<g style="mix-blend-mode:overlay" opacity="0.3">
<path d="M154.698 75.1217L155.238 74.6697L154.072 72.6077C153.656 72.9257 153.256 73.2617 152.872 73.6157L154.7 75.1237L154.698 75.1217ZM157.868 70.4097C158.348 70.2097 158.84 70.0277 159.342 69.8717L159.734 72.2157L159.072 72.4557L157.868 70.4097ZM153.376 76.4437L152.924 76.9837L150.862 75.8177C151.18 75.4017 151.516 75.0017 151.87 74.6177L153.378 76.4457L153.376 76.4437ZM179.032 83.9797L178.91 83.2857L181.13 82.4557C181.244 82.9617 181.332 83.4777 181.4 83.9997L179.032 83.9797ZM174.198 75.1217L173.658 74.6697L174.824 72.6077C175.24 72.9257 175.64 73.2617 176.024 73.6157L174.196 75.1237L174.198 75.1217ZM169.822 72.4557L169.16 72.2157L169.552 69.8717C170.054 70.0277 170.546 70.2097 171.026 70.4097L169.82 72.4557H169.822ZM178.426 81.4797L178.186 80.8177L180.232 79.6137C180.432 80.0937 180.614 80.5857 180.77 81.0877L178.426 81.4797ZM175.52 76.4437L177.028 74.6157C177.382 74.9997 177.718 75.4017 178.036 75.8157L175.974 76.9817L175.522 76.4417L175.52 76.4437ZM150.71 80.8197L150.47 81.4817L148.126 81.0897C148.282 80.5877 148.464 80.0957 148.664 79.6157L150.71 80.8197ZM151.852 78.5157L151.5 79.1257L149.266 78.3337C149.508 77.8677 149.77 77.4157 150.052 76.9777L151.854 78.5157H151.852ZM171.516 99.1417L172.126 98.7897L173.664 100.592C173.224 100.874 172.772 101.136 172.308 101.378L171.516 99.1437V99.1417ZM156.768 98.7897L157.378 99.1417L156.586 101.376C156.12 101.134 155.668 100.872 155.23 100.59L156.768 98.7877V98.7897ZM149.984 83.2857L149.862 83.9797L147.494 83.9997C147.56 83.4777 147.65 82.9617 147.764 82.4557L149.984 83.2857ZM177.044 78.5157L178.846 76.9777C179.128 77.4177 179.39 77.8697 179.632 78.3337L177.398 79.1257L177.046 78.5157H177.044ZM151.852 93.8737L150.05 95.4117C149.768 94.9717 149.506 94.5197 149.264 94.0557L151.498 93.2637L151.85 93.8737H151.852ZM149.7 86.5457L147.37 86.9777C147.358 86.7177 147.35 86.4577 147.35 86.1937C147.35 85.9297 147.358 85.6697 147.37 85.4097L149.7 85.8417V86.5457ZM172.126 73.5977L171.516 73.2457L172.308 71.0117C172.774 71.2537 173.226 71.5157 173.664 71.7977L172.126 73.5997V73.5977ZM157.378 73.2457L156.768 73.5977L155.23 71.7957C155.668 71.5137 156.122 71.2517 156.586 71.0097L157.378 73.2437V73.2457ZM161.54 100.658L162.234 100.78L162.254 103.148C161.732 103.082 161.216 102.992 160.71 102.878L161.54 100.658ZM159.072 99.9317L159.734 100.172L159.342 102.516C158.84 102.36 158.348 102.178 157.868 101.978L159.074 99.9317H159.072ZM163.664 103.272L164.096 100.942H164.8L165.232 103.272C164.972 103.284 164.712 103.292 164.448 103.292C164.184 103.292 163.924 103.284 163.664 103.272ZM161.54 71.7317L160.71 69.5117C161.216 69.3977 161.732 69.3097 162.254 69.2417L162.234 71.6097L161.54 71.7317ZM164.096 71.4457L163.664 69.1157C163.924 69.1037 164.184 69.0957 164.448 69.0957C164.712 69.0957 164.972 69.1037 165.232 69.1157L164.8 71.4457H164.096ZM154.698 97.2657L155.238 97.7177L154.072 99.7797C153.656 99.4617 153.256 99.1257 152.872 98.7717L154.7 97.2637L154.698 97.2657ZM150.862 96.5717L152.924 95.4057L153.376 95.9457L151.868 97.7737C151.514 97.3897 151.178 96.9877 150.86 96.5737L150.862 96.5717ZM149.862 88.4077L149.984 89.1017L147.764 89.9317C147.65 89.4257 147.562 88.9097 147.494 88.3877L149.862 88.4077ZM150.468 90.9077L150.708 91.5697L148.662 92.7737C148.462 92.2937 148.28 91.8017 148.124 91.2997L150.468 90.9077ZM178.186 91.5697L178.426 90.9077L180.77 91.2997C180.614 91.8017 180.432 92.2937 180.232 92.7737L178.186 91.5677V91.5697ZM179.196 85.8417L181.526 85.4097C181.538 85.6697 181.546 85.9297 181.546 86.1937C181.546 86.4577 181.538 86.7177 181.526 86.9777L179.196 86.5457V85.8417ZM177.044 93.8737L177.396 93.2637L179.63 94.0557C179.388 94.5217 179.126 94.9737 178.844 95.4117L177.042 93.8737H177.044ZM175.52 95.9437L175.972 95.4037L178.034 96.5697C177.716 96.9857 177.38 97.3857 177.026 97.7697L175.518 95.9417L175.52 95.9437ZM166.662 71.6077L166.642 69.2397C167.164 69.3057 167.68 69.3957 168.186 69.5097L167.356 71.7297L166.662 71.6077ZM178.91 89.1017L179.032 88.4077L181.4 88.3877C181.334 88.9097 181.244 89.4257 181.13 89.9317L178.91 89.1017ZM174.824 99.7797L173.658 97.7177L174.198 97.2657L176.026 98.7737C175.642 99.1277 175.24 99.4637 174.826 99.7817L174.824 99.7797ZM166.662 100.78L167.356 100.658L168.186 102.878C167.68 102.992 167.164 103.08 166.642 103.148L166.662 100.78ZM169.16 100.174L169.822 99.9337L171.026 101.98C170.546 102.18 170.054 102.362 169.552 102.518L169.16 100.174Z" fill="white"/>
</g>
<g style="mix-blend-mode:overlay" opacity="0.3">
<path d="M164.448 69.0957C173.892 69.0957 181.546 76.7517 181.546 86.1937C181.546 95.6357 173.89 103.292 164.448 103.292C155.006 103.292 147.35 95.6357 147.35 86.1937C147.35 76.7517 155.006 69.0957 164.448 69.0957ZM164.448 101.522C172.914 101.522 179.776 94.6597 179.776 86.1937C179.776 77.7277 172.914 70.8657 164.448 70.8657C155.982 70.8657 149.12 77.7277 149.12 86.1937C149.12 94.6597 155.982 101.522 164.448 101.522Z" fill="white"/>
</g>
<g style="mix-blend-mode:overlay" opacity="0.3">
<path d="M164.448 74.3477C170.99 74.3477 176.294 79.6517 176.294 86.1937C176.294 92.7357 170.99 98.0397 164.448 98.0397C157.906 98.0397 152.602 92.7357 152.602 86.1937C152.602 79.6517 157.906 74.3477 164.448 74.3477ZM164.448 95.0917C169.362 95.0917 173.346 91.1077 173.346 86.1937C173.346 81.2797 169.362 77.2957 164.448 77.2957C159.534 77.2957 155.55 81.2797 155.55 86.1937C155.55 91.1077 159.534 95.0917 164.448 95.0917Z" fill="white"/>
</g>
<g style="mix-blend-mode:overlay" opacity="0.3">
<path d="M169.288 37.0039V19.5459H169.974L170.166 36.1459L180.442 36.8859L186.404 38.0199H197.872L192.68 19.5459H193.534L200.322 41.5699H186.26L179.794 38.6199L169.288 37.0039Z" fill="white"/>
</g>
<g style="mix-blend-mode:overlay" opacity="0.5">
<path d="M189.652 48.1169L194.894 56.4329L196.038 57.3309H200.322V48.1169H189.652ZM187.778 19.5469L199.042 37.4129L200.324 41.5689H186.262L185.23 41.0989L171.642 19.5469H187.778ZM169.288 33.8509V23.8049L178.504 38.4209L171.49 37.3409L169.288 33.8489V33.8509Z" fill="white"/>
</g>
<g style="mix-blend-mode:overlay" opacity="0.6">
<path d="M188.862 70.8662H202.554V75.5362H188.862V70.8662Z" fill="white"/>
</g>
<g style="mix-blend-mode:overlay" opacity="0.3">
<path d="M188.862 70.8662H202.554V75.5362H200.67V71.4622H188.862V70.8662Z" fill="white"/>
</g>
<g style="mix-blend-mode:overlay" opacity="0.6">
<path d="M188.862 77.7227H202.554V82.3927H188.862V77.7227Z" fill="white"/>
</g>
<g style="mix-blend-mode:overlay" opacity="0.3">
<path d="M188.862 77.7227H202.554V82.3927H200.67V78.3187H188.862V77.7227Z" fill="white"/>
</g>
<g style="mix-blend-mode:overlay" opacity="0.6">
<path d="M188.862 84.9658H202.554V89.6358H188.862V84.9658Z" fill="white"/>
</g>
<g style="mix-blend-mode:overlay" opacity="0.3">
<path d="M188.862 84.9658H202.554V89.6338H200.67V85.5618H188.862V84.9658Z" fill="white"/>
</g>
<path d="M188.862 95.9658H202.676V98.0198H188.862V95.9658Z" fill="#E97B08"/>
<path d="M117.898 39.3145H130.062V47.0645H117.898V39.3145Z" fill="#303D49"/>
<g style="mix-blend-mode:overlay" opacity="0.3">
<path d="M130.062 39.3145V47.0645H117.898V39.3145H130.062ZM118.433 45.5945L119.333 46.4945H128.562L129.341 45.7165V40.4785L128.703 39.8905H119.024L118.436 40.4785V45.5925L118.433 45.5945Z" fill="white"/>
</g>
<g style="mix-blend-mode:overlay" opacity="0.5">
<path d="M120.316 39.3145L125.203 47.0645H130.062V39.3145H120.316ZM117.898 40.9065L121.78 47.0645H117.898V40.9065Z" fill="white"/>
</g>
<g style="mix-blend-mode:overlay" opacity="0.3">
<path d="M117.795 62.2266C118.399 62.2266 118.891 62.7166 118.891 63.3226V64.7986C118.891 65.4026 118.401 65.8926 117.795 65.8926H115.715V62.2266H117.795Z" fill="white"/>
</g>
<path d="M115.714 62.2266H116.92V65.8926H115.714V62.2266Z" fill="#273239"/>
<path d="M85.7459 67.3926H90.7939V68.7146H85.7459V67.3926Z" fill="#273239"/>
<g style="mix-blend-mode:overlay" opacity="0.3">
<path d="M148.276 52.7227V60.9667L154.054 59.0167H178.186L186.46 69.2427H207.798V91.8787L210.344 90.5447V69.0887L207.678 67.3907H186.858L179.716 57.9927L165.492 53.1347L164.83 52.7207H148.276V52.7227Z" fill="white"/>
</g>
<path d="M208.97 70.2998H211.152V85.3318H208.97V70.2998Z" fill="#303D49"/>
<path d="M211.152 81.0459H212V84.4419H211.152V81.0459Z" fill="#9AA6B2"/>
<path d="M211.152 76.502H212V79.8979H211.152V76.502Z" fill="#9AA6B2"/>
<path d="M211.152 71.9563H212V75.3523H211.152V71.9563Z" fill="#9AA6B2"/>
<g style="mix-blend-mode:overlay" opacity="0.3">
<path d="M151.853 38.4195H169.289L178.505 39.8915L185.983 43.3515H204.373L194.637 14.5875H148.277V12.8395L150.337 11.0195H194.463L200.525 15.8695L210.345 44.8415V65.6935L207.677 66.4195V47.0635H151.853V38.4195Z" fill="white"/>
<path d="M142.135 9L146.095 13.202H6.80673L11.0107 9H142.135Z" fill="white"/>
<path d="M151.853 38.4195H169.289L178.505 39.8915L185.983 43.3515H204.373L194.637 14.5875H148.277V12.8395L150.337 11.0195H194.463L200.525 15.8695L210.345 44.8415V65.6935L207.677 66.4195V47.0635H151.853V38.4195Z" fill="white"/>
<path d="M142.135 9L146.095 13.202H6.80673L11.0107 9H142.135Z" fill="white"/>
</g>
<path d="M205.964 43.3518C206.246 43.3518 206.474 43.1238 206.474 42.8418V20.6338C206.474 19.3578 205.788 18.1698 204.686 17.5298L199.59 14.5758C199.044 14.2598 198.422 14.0918 197.79 14.0918H193.224C192.942 14.0918 192.714 14.3198 192.714 14.6018C192.714 14.8838 192.942 15.1118 193.224 15.1118H197.79C198.242 15.1118 198.686 15.2318 199.076 15.4578L204.172 18.4118C204.962 18.8698 205.452 19.7198 205.452 20.6318V42.8398C205.452 43.1218 205.68 43.3498 205.962 43.3498L205.964 43.3518Z" fill="#B69652"/>
<path d="M206.514 27.708C207.296 27.708 207.93 28.342 207.93 29.124V39.858C207.93 40.64 207.296 41.274 206.514 41.274H205.066V27.71H206.514V27.708Z" fill="#303D49"/>
<path d="M207.93 22.5107V25.4367C207.93 26.2187 207.296 26.8527 206.514 26.8527H205.066V21.0967H206.514C207.296 21.0967 207.93 21.7307 207.93 22.5127V22.5107Z" fill="#303D49"/>
<g style="mix-blend-mode:overlay" opacity="0.3">
<path d="M176.026 44.7821C176.026 45.7621 175.232 46.5561 174.252 46.5561H171.86C170.88 46.5561 170.086 45.7621 170.086 44.7821V41.4121H176.028V44.7821H176.026Z" fill="white"/>
</g>
<path d="M176.026 41.4122V43.3662H170.084V41.4122H176.026Z" fill="#273239"/>
</svg>
