<svg width="120" height="82" viewBox="0 0 120 82" fill="none" xmlns="http://www.w3.org/2000/svg">
<path d="M15.6877 60.8125C14.6837 62.9738 14.1673 65.3294 14.1752 67.7125H5.9127C5.45851 67.7125 5.02293 67.5321 4.70177 67.2109C4.38062 66.8898 4.2002 66.4542 4.2002 66V60.8125H15.6877Z" fill="black"/>
<path d="M75.9873 65.0625C75.5846 64.1766 74.9357 63.4251 74.1179 62.8977C73.3001 62.3702 72.3479 62.089 71.3748 62.0875H54.0998C52.7527 62.0875 51.4605 62.6218 50.5068 63.5732C49.5531 64.5246 49.0156 65.8154 49.0123 67.1625V67.7125H47.3748C47.3827 65.3294 46.8663 62.9738 45.8623 60.8125H75.8623C75.7918 62.2302 75.8336 63.6514 75.9873 65.0625Z" fill="black"/>
<path d="M75.1 0.0875244H3.275C2.40527 0.0908314 1.57229 0.438652 0.958463 1.05482C0.344638 1.67099 -6.28699e-06 2.50529 0 3.37502L0 55.1375C0 56.0061 0.345044 56.8391 0.959225 57.4533C1.57341 58.0675 2.40642 58.4125 3.275 58.4125H17.2125C18.7354 56.1953 20.7751 54.3821 23.1554 53.1293C25.5357 51.8765 28.1852 51.2219 30.875 51.2219C33.5649 51.2219 36.2143 51.8765 38.5946 53.1293C40.9749 54.3821 43.0146 56.1953 44.5375 58.4125C44.6625 58.5375 44.15 58.4125 75.8875 58.4125V12.4375C75.8942 11.4684 76.123 10.5138 76.5564 9.64698C76.9898 8.78018 77.6162 8.02432 78.3875 7.43752V3.37502C78.3875 2.50312 78.0411 1.66694 77.4246 1.05041C76.8081 0.433885 75.9719 0.0875244 75.1 0.0875244ZM45.125 32.25C44.5599 32.8177 43.8278 33.1895 43.036 33.311C42.2442 33.4325 41.4343 33.2972 40.725 32.925V44.5875H9.875V33.0375C9.30077 33.2784 8.6756 33.3724 8.05592 33.3112C7.43624 33.25 6.84156 33.0354 6.32556 32.6869C5.80955 32.3383 5.38847 31.8667 5.1003 31.3147C4.81214 30.7627 4.66598 30.1477 4.675 29.525C4.67379 29.0306 4.77035 28.5409 4.95913 28.0839C5.14792 27.627 5.42519 27.2119 5.775 26.8625L22.775 9.85002C23.1242 9.49285 23.5413 9.20905 24.0018 9.0153C24.4622 8.82155 24.9567 8.72174 25.4563 8.72174C25.9558 8.72174 26.4503 8.82155 26.9107 9.0153C27.3712 9.20905 27.7883 9.49285 28.1375 9.85002L45.125 26.8625C45.486 27.2122 45.7731 27.6308 45.9691 28.0935C46.1651 28.5563 46.2661 29.0537 46.2661 29.5563C46.2661 30.0588 46.1651 30.5563 45.9691 31.019C45.7731 31.4818 45.486 31.9004 45.125 32.25ZM70.7375 30.625L64.775 36.575C64.6869 36.6614 64.5752 36.7198 64.4539 36.7428C64.3327 36.7657 64.2074 36.7523 64.0938 36.7042C63.9801 36.6561 63.8833 36.5754 63.8154 36.4723C63.7476 36.3693 63.7118 36.2484 63.7125 36.125V31.4375H48.0875C47.746 31.4375 47.4186 31.3019 47.1771 31.0604C46.9356 30.819 46.8 30.4915 46.8 30.15C46.8 29.8086 46.9356 29.4811 47.1771 29.2396C47.4186 28.9982 47.746 28.8625 48.0875 28.8625H63.75V24.2C63.7467 24.0756 63.7807 23.953 63.8476 23.848C63.9145 23.7429 64.0112 23.6603 64.1253 23.6106C64.2395 23.5609 64.3659 23.5464 64.4883 23.569C64.6107 23.5917 64.7236 23.6503 64.8125 23.7375L70.7375 29.75C70.8372 29.8692 70.8918 30.0196 70.8918 30.175C70.8918 30.3304 70.8372 30.4808 70.7375 30.6V30.625Z" fill="#EC7715"/>
<path d="M119.55 51.8875H115.275C114.787 51.885 114.318 51.6958 113.965 51.3588C113.612 51.0218 113.401 50.5625 113.375 50.075L112.975 41.525C112.963 41.2676 113.004 41.0105 113.094 40.7691C113.184 40.5277 113.322 40.307 113.499 40.1202C113.677 39.9334 113.89 39.7844 114.126 39.6821C114.363 39.5798 114.618 39.5264 114.875 39.525H118.975L118.613 31.6375C118.538 30.175 118.85 31.15 108.325 11.0125C107.942 10.2633 107.361 9.63385 106.644 9.19293C105.928 8.75201 105.104 8.51661 104.263 8.51247H82.2752C81.7653 8.51083 81.26 8.60984 80.7885 8.80384C80.3169 8.99784 79.8882 9.28301 79.5271 9.643C79.1659 10.003 78.8794 10.4307 78.6839 10.9017C78.4883 11.3726 78.3877 11.8775 78.3877 12.3875V63.9125C78.3872 64.8855 78.7515 65.8233 79.4087 66.5407C80.066 67.2581 80.9684 67.703 81.9377 67.7875C81.9244 63.3849 83.6606 59.1573 86.7644 56.0349C89.8681 52.9124 94.0851 51.1507 98.4877 51.1375C102.89 51.1242 107.118 52.8604 110.24 55.9641C113.363 59.0679 115.124 63.2849 115.138 67.6875C116.561 67.399 117.833 66.6095 118.723 65.4626C119.613 64.3156 120.062 62.8874 119.988 61.4375L119.55 51.8875ZM94.6252 40.6375H92.7502C92.4187 40.6375 92.1007 40.5058 91.8663 40.2714C91.6319 40.0369 91.5002 39.719 91.5002 39.3875C91.5002 39.056 91.6319 38.738 91.8663 38.5036C92.1007 38.2692 92.4187 38.1375 92.7502 38.1375H94.6252C94.9567 38.1375 95.2747 38.2692 95.5091 38.5036C95.7435 38.738 95.8752 39.056 95.8752 39.3875C95.8719 39.7168 95.7388 40.0316 95.5047 40.2633C95.2706 40.495 94.9546 40.625 94.6252 40.625V40.6375ZM105.8 32.125H88.8877V46.5625C88.8877 46.9039 88.752 47.2314 88.5106 47.4729C88.2691 47.7143 87.9417 47.85 87.6002 47.85C87.2587 47.85 86.9312 47.7143 86.6898 47.4729C86.4483 47.2314 86.3127 46.9039 86.3127 46.5625V16.5625C86.3127 16.042 86.5195 15.5428 86.8875 15.1748C87.2555 14.8067 87.7547 14.6 88.2752 14.6H99.5252C99.9937 14.599 100.453 14.7298 100.851 14.9773C101.249 15.2249 101.569 15.5792 101.775 16L108.175 28.2125C108.385 28.62 108.487 29.0747 108.47 29.5328C108.454 29.991 108.32 30.4372 108.082 30.8288C107.843 31.2203 107.508 31.5441 107.109 31.7688C106.709 31.9936 106.259 32.112 105.8 32.1125V32.125Z" fill="black"/>
<path d="M119.438 49.4H115.85L115.513 42.0375H119.088L119.438 49.4Z" fill="black"/>
<path d="M88.8125 29.6125V17.1125H99.5625C106.413 30.225 106.025 29.3876 105.95 29.5126C105.875 29.6376 107.075 29.6125 88.8125 29.6125Z" fill="black"/>
<path d="M30.8748 53.7126C28.0866 53.7175 25.3625 54.549 23.0468 56.1019C20.7311 57.6548 18.9277 59.8593 17.8648 62.4369C16.8018 65.0145 16.5268 67.8494 17.0747 70.5832C17.6226 73.3171 18.9687 75.8271 20.9429 77.796C22.917 79.7649 25.4306 81.1044 28.1659 81.645C30.9012 82.1856 33.7353 81.9031 36.3101 80.8333C38.8848 79.7634 41.0846 77.9542 42.6313 75.6344C44.178 73.3146 45.0023 70.5883 44.9998 67.8001C44.9998 65.9469 44.6342 64.112 43.9239 62.4003C43.2136 60.6887 42.1725 59.1341 40.8604 57.8254C39.5483 56.5168 37.9909 55.4799 36.2774 54.7741C34.5639 54.0684 32.728 53.7076 30.8748 53.7126ZM30.8748 75.7376C29.3058 75.7475 27.7692 75.2914 26.4597 74.4272C25.1501 73.563 24.1266 72.3295 23.5187 70.883C22.9109 69.4365 22.746 67.8422 23.0451 66.302C23.3443 64.7617 24.0938 63.3449 25.1989 62.2311C26.304 61.1173 27.7148 60.3565 29.2526 60.0453C30.7904 59.734 32.386 59.8862 33.8373 60.4826C35.2885 61.079 36.53 62.0928 37.4046 63.3954C38.2791 64.6981 38.7473 66.2311 38.7498 67.8001C38.7466 69.8935 37.9179 71.9011 36.4435 73.3872C34.9691 74.8732 32.9681 75.7178 30.8748 75.7376Z" fill="black"/>
<path d="M30.8749 73.225C29.7999 73.2349 28.7461 72.9252 27.8474 72.3351C26.9487 71.7451 26.2456 70.9013 25.8274 69.9109C25.4091 68.9206 25.2945 67.8283 25.4981 66.7726C25.7018 65.717 26.2145 64.7457 26.9711 63.982C27.7278 63.2183 28.6943 62.6966 29.748 62.4832C30.8017 62.2698 31.895 62.3743 32.8892 62.7834C33.8835 63.1925 34.7337 63.8877 35.332 64.7809C35.9304 65.6741 36.2499 66.7249 36.2499 67.8C36.2532 69.2312 35.6896 70.6054 34.6823 71.6221C33.675 72.6388 32.306 73.2151 30.8749 73.225Z" fill="black"/>
<path d="M81.9375 67.8C82.0875 67.8125 82.625 67.8 81.9375 67.8V67.8Z" fill="black"/>
<path d="M98.5375 53.7125C95.7483 53.7125 93.0217 54.5398 90.7027 56.0897C88.3837 57.6396 86.5764 59.8424 85.5096 62.4196C84.4428 64.9968 84.1643 67.8324 84.7094 70.5679C85.2544 73.3034 86.5986 75.8157 88.5717 77.7872C90.5449 79.7586 93.0584 81.1005 95.7944 81.6431C98.5304 82.1858 101.366 81.9047 103.942 80.8356C106.518 79.7665 108.719 77.9574 110.267 75.637C111.815 73.3166 112.64 70.5893 112.638 67.8C112.638 65.949 112.273 64.1161 111.564 62.4061C110.855 60.6961 109.816 59.1426 108.507 57.8342C107.197 56.5259 105.643 55.4885 103.932 54.7813C102.222 54.0741 100.389 53.7109 98.5375 53.7125ZM98.5375 75.7375C96.9706 75.7375 95.4389 75.273 94.1359 74.4028C92.8329 73.5325 91.8171 72.2956 91.217 70.8482C90.6168 69.4008 90.4591 67.808 90.7639 66.271C91.0687 64.7341 91.8222 63.322 92.9293 62.2131C94.0364 61.1043 95.4473 60.3485 96.9838 60.0413C98.5202 59.7341 100.113 59.8893 101.562 60.4872C103.01 61.0851 104.249 62.0989 105.121 63.4005C105.993 64.7022 106.46 66.2332 106.462 67.8C106.463 69.903 105.628 71.9201 104.142 73.4083C102.656 74.8965 100.64 75.7342 98.5375 75.7375Z" fill="black"/>
<path d="M98.5373 73.225C97.4643 73.225 96.4155 72.9068 95.5233 72.3107C94.6312 71.7146 93.9359 70.8673 93.5253 69.8761C93.1147 68.8848 93.0072 67.794 93.2165 66.7416C93.4259 65.6893 93.9425 64.7226 94.7012 63.9639C95.4599 63.2052 96.4266 62.6886 97.4789 62.4792C98.5313 62.2699 99.6221 62.3774 100.613 62.788C101.605 63.1986 102.452 63.8939 103.048 64.786C103.644 65.6782 103.962 66.727 103.962 67.8C103.962 69.2388 103.391 70.6187 102.373 71.6361C101.356 72.6534 99.9761 73.225 98.5373 73.225Z" fill="black"/>
<path d="M71.3749 64.5751H54.1124C52.6834 64.5751 51.5249 65.7335 51.5249 67.1626V68.4376C51.5249 69.8666 52.6834 71.0251 54.1124 71.0251H71.3749C72.8039 71.0251 73.9624 69.8666 73.9624 68.4376V67.1626C73.9624 65.7335 72.8039 64.5751 71.3749 64.5751Z" fill="black"/>
<path d="M38.225 30.6625V42.05H29.7875V29.4625H20.8125V42.05H12.375V30.975L25.4625 17.9L38.225 30.6625Z" fill="black"/>
<path d="M42.5002 30.8251C42.3306 30.8277 42.1623 30.7959 42.0054 30.7314C41.8485 30.6669 41.7064 30.5712 41.5877 30.4501L25.4627 14.3626L9.3752 30.4376C9.25619 30.5607 9.1141 30.6591 8.95703 30.7273C8.79997 30.7955 8.63101 30.8321 8.4598 30.835C8.28859 30.8379 8.11849 30.8071 7.9592 30.7443C7.79992 30.6814 7.65457 30.5878 7.53145 30.4688C7.40834 30.3498 7.30987 30.2077 7.24167 30.0506C7.17347 29.8936 7.13688 29.7246 7.13398 29.5534C7.13107 29.3822 7.16192 29.2121 7.22476 29.0528C7.2876 28.8935 7.38119 28.7482 7.5002 28.6251L24.5002 11.6251C24.6171 11.5002 24.7584 11.4006 24.9154 11.3326C25.0724 11.2645 25.2416 11.2294 25.4127 11.2294C25.5838 11.2294 25.753 11.2645 25.91 11.3326C26.067 11.4006 26.2083 11.5002 26.3252 11.6251L43.3627 28.6251C43.5606 28.7938 43.7009 29.0201 43.7641 29.2723C43.8273 29.5246 43.8102 29.7903 43.7153 30.0324C43.6204 30.2745 43.4523 30.4809 43.2345 30.623C43.0167 30.7651 42.76 30.8357 42.5002 30.8251Z" fill="black"/>
</svg>
