<svg width="40" height="40" viewBox="0 0 40 40" fill="none" xmlns="http://www.w3.org/2000/svg">
<path d="M28 4H12C7.52 4 4 7.52 4 12V28C4 32.48 7.52 36 12 36H28C32.48 36 36 32.48 36 28V12C36 7.52 32.48 4 28 4ZM32.8 28C32.8 30.72 30.72 32.8 28 32.8H12C9.28 32.8 7.2 30.72 7.2 28V12C7.2 9.28 9.28 7.2 12 7.2H28C30.72 7.2 32.8 9.28 32.8 12V28Z" fill="#E97B08"/>
<path d="M20 12C15.52 12 12 15.52 12 20C12 24.48 15.52 28 20 28C24.48 28 28 24.48 28 20C28 15.52 24.48 12 20 12ZM20 24.8C17.28 24.8 15.2 22.72 15.2 20C15.2 17.28 17.28 15.2 20 15.2C22.72 15.2 24.8 17.28 24.8 20C24.8 22.72 22.72 24.8 20 24.8Z" fill="#E97B08"/>
<path d="M28 13.6C28.8837 13.6 29.6 12.8836 29.6 12C29.6 11.1163 28.8837 10.4 28 10.4C27.1164 10.4 26.4 11.1163 26.4 12C26.4 12.8836 27.1164 13.6 28 13.6Z" fill="#E97B08"/>
</svg>
