<svg width="220" height="120" viewBox="0 0 220 120" fill="none" xmlns="http://www.w3.org/2000/svg">
<path d="M41.6261 69.3578L120.792 31.2098H134.316C134.316 31.2098 137.678 46.2398 141.01 56.8058L201.218 66.2718L205.932 79.6558V85.1798L203.168 87.9018H94.4521L92.4241 89.9298H23.0201L19.3721 86.2818L41.6261 69.3558V69.3578Z" fill="#0E1316"/>
<path d="M134.008 27.9756L140.546 28.1396L157.74 34.5536L183.076 53.4756L202.452 59.2976L205.09 61.1176L209 70.8516L207.544 83.4056L202.684 86.7716C202.336 83.9276 201.908 80.4536 201.846 80.1236L201.842 80.0916C200.542 73.0956 194.41 67.7996 187.038 67.7996C179.188 67.7996 172.744 73.8056 172.042 81.4716L171.526 87.0456H131.756V30.0896C132.57 29.4336 133.336 28.7316 134.006 27.9756H134.008Z" fill="#E97B08"/>
<path d="M131.758 55.6602H140.136L185.894 59.7522L197.31 61.1622L201.742 62.2602L203.53 63.6922H131.758V55.6602Z" fill="#010066"/>
<g style="mix-blend-mode:overlay" opacity="0.3">
<path d="M145.86 65.5399C144.248 65.5399 142.942 64.6176 142.942 63.4799C142.942 62.3422 144.248 61.4199 145.86 61.4199C147.471 61.4199 148.778 62.3422 148.778 63.4799C148.778 64.6176 147.471 65.5399 145.86 65.5399Z" fill="black"/>
</g>
<path d="M143.066 62.6084H148.654C149.134 62.6084 149.524 62.9984 149.524 63.4784C149.524 63.9584 149.134 64.3484 148.654 64.3484H143.066C142.586 64.3484 142.196 63.9584 142.196 63.4784C142.196 62.9984 142.586 62.6084 143.066 62.6084Z" fill="#303D49"/>
<path d="M207.772 67.7959L203.314 66.9399L200.95 62.7539L197.31 61.1619L195.81 59.1619L205.088 61.1179L207.772 67.7959Z" fill="#7C8B9B"/>
<g style="mix-blend-mode:overlay" opacity="0.3">
<path d="M206.278 64.0799L205.798 62.8879H201.022L201.696 64.0799H206.278ZM206.618 64.9259L207.772 67.7959L203.314 66.9379L202.176 64.9239H206.618V64.9259Z" fill="white"/>
</g>
<path d="M185.894 59.7519L158.148 38.3759L137.68 35.4639L140.136 55.6599L144.594 58.2059L183.528 60.5719L185.894 59.7519Z" fill="#303D49"/>
<g style="mix-blend-mode:overlay" opacity="0.3">
<path d="M141.228 54.6139L145.322 56.8639L172.476 58.4339L172.886 52.1559L156.16 38.0919L158.148 38.3759L185.894 59.7519L183.528 60.5719L144.594 58.2059L140.136 55.6599L137.68 35.4639L138.592 35.5939L141.228 54.6139Z" fill="black"/>
</g>
<g style="mix-blend-mode:overlay" opacity="0.5">
<path d="M163.048 59.3279L181.272 60.4359L176.072 52.1859L158.148 38.3759L149.02 37.0779L163.048 59.3279ZM138.164 39.4479L137.68 35.4639L143.01 36.2219L157.358 58.9819L150.204 58.5479L138.162 39.4479H138.164Z" fill="white"/>
</g>
<g style="mix-blend-mode:overlay" opacity="0.3">
<path d="M200.248 75.6299L204.008 71.8619L204.096 71.8399C205.652 71.4519 207.786 70.9159 208.912 70.6299L209 70.8519L208.946 71.3259C207.64 71.6559 205.326 72.2359 204.35 72.4799L200.576 76.2599C200.472 76.0479 200.362 75.8379 200.25 75.6299H200.248Z" fill="black"/>
</g>
<g style="mix-blend-mode:overlay" opacity="0.3">
<path d="M136.878 83.3359L138.02 61.8519L134.614 28.0339L134.954 27.9999L135.296 28.0079L135.858 33.5799L157.918 36.3979L158.006 36.4099L176.362 50.0179L176.49 50.1119L177.5 66.3719V66.4079L176.676 71.9339C176.394 72.2019 176.122 72.4779 175.862 72.7659L176.818 66.3799L175.83 50.4719L157.744 37.0659L135.93 34.2799L138.702 61.8119V61.8379L137.562 83.3379H171.87L171.806 84.0199H131.756V83.3379H136.878V83.3359Z" fill="black"/>
</g>
<g style="mix-blend-mode:overlay" opacity="0.3">
<path d="M182.176 54.9135C181.88 54.8215 175.918 50.1295 175.918 50.1295L157.782 36.6215L140.042 30.8175L131.758 30.5435V30.0915C132.572 29.4355 133.338 28.7335 134.008 27.9775L140.546 28.1415L157.74 34.5555L183.076 53.4775L202.452 59.2995L205.09 61.1195L209 70.8515L207.544 83.4055L206.546 84.0935L206.97 71.1195L202.684 63.2015L200.95 62.7555L137.68 60.5715H131.758V57.3255H144.696L185.894 59.7515C185.894 59.7515 182.47 55.0055 182.176 54.9135Z" fill="white"/>
</g>
<g style="mix-blend-mode:overlay" opacity="0.3">
<path d="M202.452 84.8643C203.866 84.1543 206.154 82.9463 207.684 82.1963L207.544 83.4043L202.684 86.7703C202.608 86.1523 202.53 85.5043 202.45 84.8643H202.452Z" fill="black"/>
</g>
<g style="mix-blend-mode:overlay" opacity="0.3">
<path d="M131.758 83.3356V30.0896L134.008 27.9756L135.44 62.8856V83.3356H171.87L171.528 87.0436H131.758V83.3356Z" fill="black"/>
</g>
<g style="mix-blend-mode:overlay" opacity="0.3">
<path d="M131.758 67.0919H174.822L174.08 71.6719H131.758V67.0919Z" fill="white"/>
</g>
<g style="mix-blend-mode:overlay" opacity="0.3">
<path d="M131.758 75.2139H172.21L169.808 79.7959H131.758V75.2139Z" fill="white"/>
</g>
<path d="M175.092 59.2519L172.646 58.5119L171.676 59.0479H169.198L168.262 58.3119V50.7819L169.09 50.1299H172.364L173.108 50.7139V56.8139L173.85 56.2319L175.28 56.6439L176.158 58.6599L175.092 59.2519Z" fill="#E97B08"/>
<g style="mix-blend-mode:overlay" opacity="0.3">
<path d="M169.838 58.2682L172.646 58.5122L171.676 59.0482H169.198L168.262 58.3122V50.7822L169.838 51.0682V58.2682Z" fill="black"/>
<path d="M175.93 58.1363L176.158 58.6603L175.092 59.2523L172.646 58.5123L173.25 57.3263L175.93 58.1363Z" fill="black"/>
</g>
<path d="M44.0905 92.4856C38.7731 87.1682 38.7731 78.547 44.0905 73.2296C49.4078 67.9123 58.029 67.9123 63.3464 73.2296C68.6638 78.547 68.6638 87.1682 63.3464 92.4856C58.029 97.803 49.4079 97.803 44.0905 92.4856Z" fill="#303D49"/>
<path d="M53.718 89.0779C50.2828 89.0779 47.498 86.2932 47.498 82.8579C47.498 79.4227 50.2828 76.6379 53.718 76.6379C57.1532 76.6379 59.938 79.4227 59.938 82.8579C59.938 86.2932 57.1532 89.0779 53.718 89.0779Z" fill="#5D7184"/>
<g style="mix-blend-mode:overlay" opacity="0.3">
<path d="M50.7613 85.8147C49.1282 84.1816 49.1282 81.5337 50.7613 79.9005C52.3945 78.2673 55.0424 78.2673 56.6756 79.9005C58.3087 81.5337 58.3087 84.1816 56.6756 85.8147C55.0424 87.4479 52.3945 87.4479 50.7613 85.8147Z" fill="black"/>
</g>
<path d="M52.0658 85.0658C50.8405 84.1516 50.5884 82.4172 51.5027 81.192C52.4169 79.9668 54.1513 79.7147 55.3765 80.6289C56.6017 81.5432 56.8538 83.2775 55.9396 84.5027C55.0253 85.728 53.291 85.9801 52.0658 85.0658Z" fill="#5D7184"/>
<path d="M53.376 79.3975C53.376 79.5855 53.528 79.7395 53.718 79.7395C53.908 79.7395 54.06 79.5875 54.06 79.3975C54.06 79.2075 53.908 79.0555 53.718 79.0555C53.528 79.0555 53.376 79.2075 53.376 79.3975ZM53.718 77.8575C53.866 77.8575 53.986 77.9775 53.986 78.1255C53.986 78.2735 53.866 78.3935 53.718 78.3935C53.57 78.3935 53.45 78.2735 53.45 78.1255C53.45 77.9775 53.57 77.8575 53.718 77.8575ZM55.618 79.5655C55.782 79.6595 55.838 79.8695 55.742 80.0315C55.646 80.1935 55.438 80.2515 55.276 80.1555C55.112 80.0615 55.056 79.8515 55.152 79.6895C55.246 79.5255 55.456 79.4695 55.618 79.5655ZM57.01 80.9575C57.104 81.1215 57.048 81.3295 56.886 81.4235C56.724 81.5175 56.514 81.4615 56.42 81.2995C56.326 81.1375 56.382 80.9275 56.544 80.8335C56.708 80.7395 56.916 80.7955 57.01 80.9575ZM57.52 82.8575C57.52 83.0455 57.368 83.1995 57.178 83.1995C56.988 83.1995 56.836 83.0475 56.836 82.8575C56.836 82.6675 56.988 82.5155 57.178 82.5155C57.368 82.5155 57.52 82.6675 57.52 82.8575ZM57.01 84.7595C56.916 84.9235 56.706 84.9795 56.544 84.8835C56.38 84.7895 56.324 84.5795 56.42 84.4175C56.514 84.2535 56.724 84.1975 56.886 84.2935C57.048 84.3895 57.106 84.5975 57.01 84.7595ZM55.618 86.1515C55.454 86.2455 55.246 86.1895 55.152 86.0275C55.058 85.8655 55.114 85.6555 55.276 85.5615C55.44 85.4675 55.648 85.5235 55.742 85.6855C55.836 85.8495 55.78 86.0575 55.618 86.1515ZM53.718 86.6595C53.53 86.6595 53.376 86.5075 53.376 86.3175C53.376 86.1275 53.528 85.9755 53.718 85.9755C53.908 85.9755 54.06 86.1275 54.06 86.3175C54.06 86.5075 53.908 86.6595 53.718 86.6595ZM51.816 86.1515C51.652 86.0575 51.596 85.8475 51.692 85.6855C51.786 85.5215 51.996 85.4655 52.158 85.5615C52.32 85.6575 52.378 85.8655 52.282 86.0275C52.186 86.1895 51.978 86.2475 51.816 86.1515ZM50.424 84.7595C50.33 84.5955 50.386 84.3875 50.548 84.2935C50.712 84.1995 50.92 84.2555 51.014 84.4175C51.108 84.5815 51.052 84.7895 50.89 84.8835C50.728 84.9775 50.518 84.9215 50.424 84.7595ZM49.916 82.8575C49.916 82.6695 50.068 82.5155 50.258 82.5155C50.448 82.5155 50.6 82.6675 50.6 82.8575C50.6 83.0475 50.448 83.1995 50.258 83.1995C50.068 83.1995 49.916 83.0475 49.916 82.8575ZM50.424 80.9575C50.518 80.7935 50.728 80.7375 50.89 80.8335C51.052 80.9295 51.11 81.1375 51.014 81.2995C50.918 81.4615 50.71 81.5195 50.548 81.4235C50.384 81.3295 50.328 81.1195 50.424 80.9575ZM55.428 78.1595C55.566 78.2095 55.638 78.3635 55.588 78.5015C55.538 78.6395 55.384 78.7115 55.246 78.6615C55.108 78.6115 55.036 78.4575 55.086 78.3195C55.136 78.1815 55.29 78.1095 55.428 78.1595ZM56.932 79.0275C57.046 79.1215 57.06 79.2915 56.964 79.4035C56.87 79.5175 56.7 79.5315 56.588 79.4355C56.476 79.3395 56.46 79.1715 56.556 79.0595C56.65 78.9455 56.82 78.9315 56.932 79.0275ZM58.048 80.3575C58.122 80.4855 58.078 80.6495 57.95 80.7235C57.822 80.7975 57.658 80.7535 57.584 80.6255C57.51 80.4975 57.554 80.3335 57.682 80.2595C57.81 80.1855 57.974 80.2295 58.048 80.3575ZM58.642 81.9895C58.668 82.1355 58.57 82.2735 58.426 82.2995C58.28 82.3255 58.142 82.2275 58.116 82.0835C58.09 81.9375 58.188 81.7995 58.332 81.7735C58.478 81.7475 58.616 81.8455 58.642 81.9895ZM58.642 83.7255C58.616 83.8715 58.478 83.9675 58.332 83.9415C58.186 83.9155 58.09 83.7775 58.116 83.6315C58.142 83.4855 58.28 83.3895 58.426 83.4155C58.572 83.4415 58.668 83.5795 58.642 83.7255ZM58.048 85.3575C57.974 85.4855 57.81 85.5295 57.682 85.4555C57.554 85.3815 57.51 85.2175 57.584 85.0895C57.658 84.9615 57.822 84.9175 57.95 84.9915C58.078 85.0655 58.122 85.2295 58.048 85.3575ZM56.932 86.6895C56.818 86.7835 56.65 86.7695 56.556 86.6575C56.462 86.5435 56.476 86.3755 56.588 86.2815C56.7 86.1875 56.87 86.2015 56.964 86.3135C57.058 86.4275 57.044 86.5955 56.932 86.6895ZM55.428 87.5575C55.29 87.6075 55.136 87.5355 55.086 87.3975C55.036 87.2595 55.108 87.1055 55.246 87.0555C55.384 87.0055 55.538 87.0775 55.588 87.2155C55.638 87.3535 55.566 87.5075 55.428 87.5575ZM53.718 87.8595C53.57 87.8595 53.45 87.7395 53.45 87.5915C53.45 87.4435 53.57 87.3235 53.718 87.3235C53.866 87.3235 53.986 87.4435 53.986 87.5915C53.986 87.7395 53.866 87.8595 53.718 87.8595ZM52.008 87.5575C51.87 87.5075 51.798 87.3535 51.848 87.2155C51.898 87.0775 52.052 87.0055 52.19 87.0555C52.328 87.1055 52.4 87.2595 52.35 87.3975C52.3 87.5355 52.146 87.6075 52.008 87.5575ZM50.502 86.6895C50.388 86.5955 50.374 86.4255 50.47 86.3135C50.564 86.1995 50.734 86.1855 50.846 86.2815C50.96 86.3755 50.974 86.5455 50.878 86.6575C50.784 86.7715 50.614 86.7855 50.502 86.6895ZM49.386 85.3575C49.312 85.2295 49.356 85.0655 49.484 84.9915C49.612 84.9175 49.776 84.9615 49.85 85.0895C49.924 85.2175 49.88 85.3815 49.752 85.4555C49.624 85.5295 49.46 85.4855 49.386 85.3575ZM48.792 83.7255C48.766 83.5795 48.864 83.4415 49.008 83.4155C49.154 83.3895 49.292 83.4875 49.318 83.6315C49.344 83.7775 49.246 83.9155 49.102 83.9415C48.958 83.9675 48.818 83.8695 48.792 83.7255ZM48.792 81.9895C48.818 81.8435 48.956 81.7475 49.102 81.7735C49.248 81.7995 49.344 81.9375 49.318 82.0835C49.292 82.2295 49.154 82.3255 49.008 82.2995C48.862 82.2735 48.766 82.1355 48.792 81.9895ZM49.386 80.3575C49.46 80.2295 49.624 80.1855 49.752 80.2595C49.88 80.3335 49.924 80.4975 49.85 80.6255C49.776 80.7535 49.612 80.7975 49.484 80.7235C49.356 80.6495 49.312 80.4855 49.386 80.3575ZM50.502 79.0275C50.616 78.9335 50.784 78.9475 50.878 79.0595C50.972 79.1735 50.958 79.3415 50.846 79.4355C50.732 79.5295 50.564 79.5155 50.47 79.4035C50.376 79.2895 50.39 79.1215 50.502 79.0275ZM52.008 78.1595C52.146 78.1095 52.3 78.1815 52.35 78.3195C52.4 78.4575 52.328 78.6115 52.19 78.6615C52.052 78.7115 51.898 78.6395 51.848 78.5015C51.798 78.3635 51.87 78.2095 52.008 78.1595ZM51.816 79.5655C51.98 79.4715 52.188 79.5275 52.282 79.6895C52.376 79.8535 52.32 80.0615 52.158 80.1555C51.996 80.2495 51.786 80.1935 51.692 80.0315C51.598 79.8695 51.654 79.6595 51.816 79.5655Z" fill="#303D49"/>
<g style="mix-blend-mode:overlay" opacity="0.3">
<path d="M45.9542 74.0423L46.3842 73.6823L45.4542 72.0403C45.1242 72.2943 44.8042 72.5603 44.4982 72.8423L45.9542 74.0423ZM48.4782 70.2883C48.8602 70.1283 49.2522 69.9843 49.6522 69.8603L49.9642 71.7263L49.4382 71.9183L48.4782 70.2883ZM44.9002 75.0943L44.5402 75.5243L42.8982 74.5943C43.1522 74.2643 43.4182 73.9443 43.7002 73.6383L44.9002 75.0943ZM65.3322 81.0963L65.2342 80.5443L67.0022 79.8843C67.0922 80.2883 67.1642 80.6983 67.2162 81.1143L65.3302 81.0983L65.3322 81.0963ZM61.4822 74.0423L61.0522 73.6823L61.9822 72.0403C62.3122 72.2943 62.6322 72.5603 62.9382 72.8423L61.4822 74.0423ZM57.9982 71.9183L57.4722 71.7263L57.7842 69.8603C58.1842 69.9843 58.5762 70.1283 58.9582 70.2883L57.9982 71.9183ZM64.8502 79.1043L64.6582 78.5783L66.2882 77.6183C66.4482 78.0003 66.5922 78.3923 66.7162 78.7923L64.8502 79.1043ZM62.5342 75.0943L63.7342 73.6383C64.0162 73.9443 64.2822 74.2643 64.5362 74.5943L62.8942 75.5243L62.5342 75.0943ZM42.7782 78.5783L42.5862 79.1043L40.7202 78.7923C40.8442 78.3923 40.9882 78.0003 41.1482 77.6183L42.7782 78.5783ZM43.6862 76.7443L43.4062 77.2303L41.6262 76.6003C41.8182 76.2303 42.0262 75.8703 42.2522 75.5203L43.6862 76.7463V76.7443ZM59.3462 93.1703L59.8322 92.8903L61.0562 94.3243C60.7062 94.5483 60.3462 94.7563 59.9762 94.9503L59.3462 93.1703ZM47.6022 92.8903L48.0882 93.1703L47.4582 94.9503C47.0882 94.7583 46.7282 94.5503 46.3782 94.3243L47.6042 92.8903H47.6022ZM42.2002 80.5423L42.1022 81.0943L40.2162 81.1103C40.2702 80.6943 40.3402 80.2843 40.4302 79.8803L42.1982 80.5423H42.2002ZM63.7482 76.7443L65.1822 75.5203C65.4062 75.8703 65.6142 76.2303 65.8082 76.6003L64.0282 77.2303L63.7482 76.7443ZM43.6862 88.9743L42.2522 90.1983C42.0282 89.8483 41.8182 89.4883 41.6262 89.1183L43.4062 88.4883L43.6862 88.9743ZM41.9722 83.1383L40.1162 83.4823C40.1062 83.2763 40.1002 83.0683 40.1002 82.8583C40.1002 82.6483 40.1062 82.4403 40.1162 82.2343L41.9722 82.5783V83.1383ZM59.8322 72.8283L59.3462 72.5483L59.9762 70.7683C60.3462 70.9603 60.7062 71.1683 61.0562 71.3943L59.8302 72.8283H59.8322ZM48.0882 72.5483L47.6022 72.8283L46.3782 71.3943C46.7282 71.1703 47.0882 70.9603 47.4582 70.7683L48.0882 72.5483ZM51.4022 94.3763L51.9542 94.4743L51.9702 96.3603C51.5542 96.3063 51.1442 96.2363 50.7402 96.1463L51.4002 94.3783L51.4022 94.3763ZM49.4382 93.7983L49.9642 93.9903L49.6522 95.8563C49.2522 95.7323 48.8602 95.5883 48.4782 95.4283L49.4382 93.7983ZM53.0942 96.4583L53.4382 94.6023H53.9982L54.3422 96.4583C54.1362 96.4683 53.9282 96.4743 53.7182 96.4743C53.5082 96.4743 53.3002 96.4683 53.0942 96.4583ZM51.4022 71.3403L50.7422 69.5723C51.1462 69.4823 51.5562 69.4103 51.9722 69.3583L51.9562 71.2443L51.4042 71.3423L51.4022 71.3403ZM53.4382 71.1143L53.0942 69.2583C53.3002 69.2483 53.5082 69.2423 53.7182 69.2423C53.9282 69.2423 54.1362 69.2483 54.3422 69.2583L53.9982 71.1143H53.4382ZM45.9542 91.6763L46.3842 92.0363L45.4542 93.6783C45.1242 93.4243 44.8042 93.1583 44.4982 92.8763L45.9542 91.6763ZM42.8982 91.1223L44.5402 90.1923L44.9002 90.6223L43.7002 92.0783C43.4182 91.7723 43.1522 91.4523 42.8982 91.1223ZM42.1022 84.6223L42.2002 85.1743L40.4322 85.8343C40.3422 85.4303 40.2702 85.0203 40.2182 84.6043L42.1042 84.6203L42.1022 84.6223ZM42.5862 86.6123L42.7782 87.1383L41.1482 88.0983C40.9882 87.7163 40.8442 87.3243 40.7202 86.9243L42.5862 86.6123ZM64.6582 87.1383L64.8502 86.6123L66.7162 86.9243C66.5922 87.3243 66.4482 87.7163 66.2882 88.0983L64.6582 87.1383ZM65.4622 82.5783L67.3182 82.2343C67.3282 82.4423 67.3342 82.6483 67.3342 82.8583C67.3342 83.0683 67.3282 83.2763 67.3182 83.4823L65.4622 83.1383V82.5783ZM63.7482 88.9743L64.0282 88.4883L65.8082 89.1183C65.6162 89.4883 65.4082 89.8483 65.1822 90.1983L63.7482 88.9723V88.9743ZM62.5342 90.6223L62.8942 90.1923L64.5362 91.1223C64.2822 91.4523 64.0162 91.7723 63.7342 92.0783L62.5342 90.6223ZM55.4802 71.2443L55.4642 69.3583C55.8802 69.4123 56.2902 69.4823 56.6942 69.5723L56.0342 71.3403L55.4822 71.2423L55.4802 71.2443ZM65.2342 85.1743L65.3322 84.6223L67.2182 84.6063C67.1642 85.0223 67.0942 85.4323 67.0042 85.8363L65.2362 85.1763L65.2342 85.1743ZM61.9822 93.6783L61.0522 92.0363L61.4822 91.6763L62.9382 92.8763C62.6322 93.1583 62.3122 93.4243 61.9822 93.6783ZM55.4802 94.4743L56.0322 94.3763L56.6922 96.1443C56.2882 96.2343 55.8782 96.3063 55.4622 96.3583L55.4782 94.4723L55.4802 94.4743ZM57.4702 93.9903L57.9962 93.7983L58.9562 95.4283C58.5742 95.5883 58.1822 95.7323 57.7822 95.8563L57.4702 93.9903Z" fill="black"/>
</g>
<g style="mix-blend-mode:overlay" opacity="0.3">
<path d="M53.7182 69.2423C61.2382 69.2423 67.3342 75.3383 67.3342 82.8583C67.3342 90.3783 61.2382 96.4743 53.7182 96.4743C46.1982 96.4743 40.1022 90.3783 40.1022 82.8583C40.1022 75.3383 46.1982 69.2423 53.7182 69.2423ZM53.7182 95.0643C60.4602 95.0643 65.9242 89.6003 65.9242 82.8583C65.9242 76.1163 60.4602 70.6523 53.7182 70.6523C46.9762 70.6523 41.5122 76.1163 41.5122 82.8583C41.5122 89.6003 46.9762 95.0643 53.7182 95.0643Z" fill="black"/>
</g>
<g style="mix-blend-mode:overlay" opacity="0.3">
<path d="M53.718 73.424C58.928 73.424 63.152 77.648 63.152 82.858C63.152 88.068 58.928 92.292 53.718 92.292C48.508 92.292 44.284 88.068 44.284 82.858C44.284 77.648 48.508 73.424 53.718 73.424ZM53.718 89.944C57.632 89.944 60.804 86.772 60.804 82.858C60.804 78.944 57.632 75.7719 53.718 75.7719C49.804 75.7719 46.632 78.944 46.632 82.858C46.632 86.772 49.804 89.944 53.718 89.944Z" fill="white"/>
</g>
<path d="M12.3521 45.1543L17.2941 23.3723L22.4881 21.1943H127.282C127.958 21.7963 128.606 22.4523 129.246 23.1123V87.0443H70.3541L67.0041 79.8823H40.4321L36.8821 87.0443H16.6261C16.6261 87.0443 11.8501 45.1543 12.3541 45.1543H12.3521Z" fill="#E97B08"/>
<path d="M129.246 63.6922H14.0421C13.7421 60.8882 13.4541 58.1422 13.2021 55.6602H129.246V63.6922Z" fill="#010066"/>
<path d="M177.411 92.4864C172.094 87.169 172.094 78.5479 177.411 73.2305C182.729 67.9131 191.35 67.9131 196.667 73.2305C201.985 78.5479 201.985 87.169 196.667 92.4864C191.35 97.8038 182.729 97.8038 177.411 92.4864Z" fill="#303D49"/>
<path d="M187.04 89.0779C183.605 89.0779 180.82 86.2931 180.82 82.8579C180.82 79.4227 183.605 76.6379 187.04 76.6379C190.475 76.6379 193.26 79.4227 193.26 82.8579C193.26 86.2931 190.475 89.0779 187.04 89.0779Z" fill="#5D7184"/>
<g style="mix-blend-mode:overlay" opacity="0.3">
<path d="M184.082 85.8156C182.449 84.1824 182.449 81.5345 184.082 79.9013C185.715 78.2682 188.363 78.2682 189.996 79.9013C191.629 81.5345 191.629 84.1824 189.996 85.8156C188.363 87.4488 185.715 87.4488 184.082 85.8156Z" fill="black"/>
</g>
<path d="M184.88 84.5906C183.924 83.3983 184.114 81.6562 185.307 80.6993C186.499 79.7424 188.241 79.9332 189.198 81.1255C190.155 82.3177 189.964 84.0599 188.772 85.0167C187.579 85.9736 185.837 85.7828 184.88 84.5906Z" fill="#5D7184"/>
<path d="M186.698 79.3974C186.698 79.5854 186.85 79.7394 187.04 79.7394C187.23 79.7394 187.382 79.5874 187.382 79.3974C187.382 79.2074 187.23 79.0554 187.04 79.0554C186.85 79.0554 186.698 79.2074 186.698 79.3974ZM187.04 77.8574C187.188 77.8574 187.308 77.9774 187.308 78.1254C187.308 78.2734 187.188 78.3934 187.04 78.3934C186.892 78.3934 186.772 78.2734 186.772 78.1254C186.772 77.9774 186.892 77.8574 187.04 77.8574ZM188.94 79.5654C189.104 79.6594 189.16 79.8694 189.064 80.0314C188.968 80.1934 188.76 80.2514 188.598 80.1554C188.434 80.0614 188.378 79.8514 188.474 79.6894C188.568 79.5254 188.778 79.4694 188.94 79.5654ZM190.332 80.9574C190.426 81.1214 190.37 81.3294 190.208 81.4234C190.046 81.5174 189.836 81.4614 189.742 81.2994C189.648 81.1374 189.704 80.9274 189.866 80.8334C190.03 80.7394 190.238 80.7954 190.332 80.9574ZM190.842 82.8574C190.842 83.0454 190.69 83.1994 190.5 83.1994C190.31 83.1994 190.158 83.0474 190.158 82.8574C190.158 82.6674 190.31 82.5154 190.5 82.5154C190.69 82.5154 190.842 82.6674 190.842 82.8574ZM190.332 84.7594C190.238 84.9234 190.028 84.9794 189.866 84.8834C189.702 84.7894 189.646 84.5794 189.742 84.4174C189.836 84.2534 190.046 84.1974 190.208 84.2934C190.37 84.3894 190.428 84.5974 190.332 84.7594ZM188.94 86.1514C188.776 86.2454 188.568 86.1894 188.474 86.0274C188.38 85.8654 188.436 85.6554 188.598 85.5614C188.762 85.4674 188.97 85.5234 189.064 85.6854C189.158 85.8494 189.102 86.0574 188.94 86.1514ZM187.04 86.6594C186.852 86.6594 186.698 86.5074 186.698 86.3174C186.698 86.1274 186.85 85.9754 187.04 85.9754C187.23 85.9754 187.382 86.1274 187.382 86.3174C187.382 86.5074 187.23 86.6594 187.04 86.6594ZM185.138 86.1514C184.974 86.0574 184.918 85.8474 185.014 85.6854C185.108 85.5214 185.318 85.4654 185.48 85.5614C185.642 85.6574 185.7 85.8654 185.604 86.0274C185.508 86.1894 185.3 86.2474 185.138 86.1514ZM183.746 84.7594C183.652 84.5954 183.708 84.3874 183.87 84.2934C184.034 84.1994 184.242 84.2554 184.336 84.4174C184.43 84.5814 184.374 84.7894 184.212 84.8834C184.05 84.9774 183.84 84.9214 183.746 84.7594ZM183.236 82.8574C183.236 82.6694 183.388 82.5154 183.578 82.5154C183.768 82.5154 183.92 82.6674 183.92 82.8574C183.92 83.0474 183.768 83.1994 183.578 83.1994C183.388 83.1994 183.236 83.0474 183.236 82.8574ZM183.746 80.9574C183.84 80.7934 184.05 80.7374 184.212 80.8334C184.374 80.9294 184.432 81.1374 184.336 81.2994C184.24 81.4614 184.032 81.5194 183.87 81.4234C183.706 81.3294 183.65 81.1194 183.746 80.9574ZM188.75 78.1594C188.888 78.2094 188.96 78.3634 188.91 78.5014C188.86 78.6394 188.706 78.7114 188.568 78.6614C188.43 78.6114 188.358 78.4574 188.408 78.3194C188.458 78.1814 188.612 78.1094 188.75 78.1594ZM190.254 79.0274C190.368 79.1214 190.382 79.2914 190.286 79.4034C190.192 79.5174 190.022 79.5314 189.91 79.4354C189.796 79.3414 189.782 79.1714 189.878 79.0594C189.972 78.9454 190.142 78.9314 190.254 79.0274ZM191.37 80.3574C191.444 80.4854 191.4 80.6494 191.272 80.7234C191.144 80.7974 190.98 80.7534 190.906 80.6254C190.832 80.4974 190.876 80.3334 191.004 80.2594C191.132 80.1854 191.296 80.2294 191.37 80.3574ZM191.964 81.9894C191.99 82.1354 191.892 82.2734 191.748 82.2994C191.602 82.3254 191.464 82.2274 191.438 82.0834C191.412 81.9374 191.51 81.7994 191.654 81.7734C191.8 81.7474 191.938 81.8454 191.964 81.9894ZM191.964 83.7254C191.938 83.8714 191.8 83.9674 191.654 83.9414C191.508 83.9154 191.412 83.7774 191.438 83.6314C191.464 83.4854 191.602 83.3894 191.748 83.4154C191.894 83.4414 191.99 83.5794 191.964 83.7254ZM191.37 85.3574C191.296 85.4854 191.132 85.5294 191.004 85.4554C190.876 85.3814 190.832 85.2174 190.906 85.0894C190.98 84.9614 191.144 84.9174 191.272 84.9914C191.4 85.0654 191.444 85.2294 191.37 85.3574ZM190.254 86.6894C190.14 86.7834 189.972 86.7694 189.878 86.6574C189.784 86.5434 189.798 86.3754 189.91 86.2814C190.024 86.1874 190.192 86.2014 190.286 86.3134C190.38 86.4274 190.366 86.5954 190.254 86.6894ZM188.75 87.5574C188.612 87.6074 188.458 87.5354 188.408 87.3974C188.358 87.2594 188.43 87.1054 188.568 87.0554C188.706 87.0054 188.86 87.0774 188.91 87.2154C188.96 87.3534 188.888 87.5074 188.75 87.5574ZM187.04 87.8594C186.892 87.8594 186.772 87.7394 186.772 87.5914C186.772 87.4434 186.892 87.3234 187.04 87.3234C187.188 87.3234 187.308 87.4434 187.308 87.5914C187.308 87.7394 187.188 87.8594 187.04 87.8594ZM185.328 87.5574C185.19 87.5074 185.118 87.3534 185.168 87.2154C185.218 87.0774 185.372 87.0054 185.51 87.0554C185.648 87.1054 185.72 87.2594 185.67 87.3974C185.62 87.5354 185.466 87.6074 185.328 87.5574ZM183.824 86.6894C183.71 86.5954 183.696 86.4254 183.792 86.3134C183.886 86.1994 184.056 86.1854 184.168 86.2814C184.28 86.3774 184.296 86.5454 184.2 86.6574C184.106 86.7714 183.936 86.7854 183.824 86.6894ZM182.708 85.3574C182.634 85.2294 182.678 85.0654 182.806 84.9914C182.934 84.9174 183.098 84.9614 183.172 85.0894C183.246 85.2174 183.202 85.3814 183.074 85.4554C182.946 85.5294 182.782 85.4854 182.708 85.3574ZM182.114 83.7254C182.088 83.5794 182.186 83.4414 182.33 83.4154C182.476 83.3894 182.614 83.4874 182.64 83.6314C182.666 83.7774 182.568 83.9154 182.424 83.9414C182.278 83.9674 182.14 83.8694 182.114 83.7254ZM182.114 81.9894C182.14 81.8434 182.278 81.7474 182.424 81.7734C182.57 81.7994 182.666 81.9374 182.64 82.0834C182.614 82.2294 182.476 82.3254 182.33 82.2994C182.184 82.2734 182.088 82.1354 182.114 81.9894ZM182.708 80.3574C182.782 80.2294 182.946 80.1854 183.074 80.2594C183.202 80.3334 183.246 80.4974 183.172 80.6254C183.098 80.7534 182.934 80.7974 182.806 80.7234C182.678 80.6494 182.634 80.4854 182.708 80.3574ZM183.824 79.0274C183.938 78.9334 184.106 78.9474 184.2 79.0594C184.294 79.1734 184.28 79.3414 184.168 79.4354C184.056 79.5294 183.886 79.5154 183.792 79.4034C183.698 79.2894 183.712 79.1214 183.824 79.0274ZM185.328 78.1594C185.466 78.1094 185.62 78.1814 185.67 78.3194C185.72 78.4574 185.648 78.6114 185.51 78.6614C185.372 78.7114 185.218 78.6394 185.168 78.5014C185.118 78.3634 185.19 78.2094 185.328 78.1594ZM185.138 79.5654C185.302 79.4714 185.51 79.5274 185.604 79.6894C185.698 79.8534 185.642 80.0614 185.48 80.1554C185.318 80.2494 185.108 80.1934 185.014 80.0314C184.92 79.8694 184.976 79.6594 185.138 79.5654Z" fill="#303D49"/>
<g style="mix-blend-mode:overlay" opacity="0.3">
<path d="M179.276 74.0422L179.706 73.6822L178.776 72.0402C178.446 72.2942 178.126 72.5602 177.82 72.8422L179.276 74.0422ZM181.8 70.2882C182.182 70.1282 182.574 69.9842 182.974 69.8602L183.286 71.7262L182.76 71.9182L181.8 70.2882ZM178.222 75.0942L177.862 75.5242L176.22 74.5942C176.474 74.2642 176.74 73.9442 177.022 73.6382L178.222 75.0942ZM198.654 81.0962L198.556 80.5442L200.324 79.8842C200.414 80.2882 200.486 80.6982 200.538 81.1142L198.652 81.0982L198.654 81.0962ZM194.804 74.0422L194.374 73.6822L195.304 72.0402C195.634 72.2942 195.954 72.5602 196.26 72.8422L194.804 74.0422ZM191.32 71.9182L190.794 71.7262L191.106 69.8602C191.506 69.9842 191.898 70.1282 192.28 70.2882L191.32 71.9182ZM198.172 79.1042L197.98 78.5782L199.61 77.6182C199.77 78.0002 199.914 78.3922 200.038 78.7922L198.172 79.1042ZM195.856 75.0942L197.056 73.6382C197.338 73.9442 197.604 74.2642 197.858 74.5942L196.216 75.5242L195.856 75.0942ZM176.098 78.5782L175.906 79.1042L174.04 78.7922C174.164 78.3922 174.308 78.0002 174.468 77.6182L176.098 78.5782ZM177.008 76.7442L176.728 77.2302L174.948 76.6002C175.14 76.2302 175.348 75.8702 175.574 75.5202L177.008 76.7462V76.7442ZM192.668 93.1702L193.154 92.8902L194.378 94.3242C194.028 94.5482 193.668 94.7562 193.298 94.9502L192.668 93.1702ZM180.924 92.8902L181.41 93.1702L180.78 94.9502C180.41 94.7582 180.05 94.5502 179.7 94.3242L180.926 92.8902H180.924ZM175.522 80.5422L175.424 81.0942L173.538 81.1102C173.592 80.6942 173.662 80.2842 173.752 79.8802L175.52 80.5422H175.522ZM197.07 76.7442L198.504 75.5202C198.728 75.8702 198.936 76.2302 199.13 76.6002L197.35 77.2302L197.07 76.7442ZM177.008 88.9742L175.574 90.1982C175.35 89.8482 175.14 89.4882 174.948 89.1182L176.728 88.4882L177.008 88.9742ZM175.294 83.1382L173.438 83.4822C173.428 83.2762 173.422 83.0682 173.422 82.8582C173.422 82.6482 173.428 82.4402 173.438 82.2342L175.294 82.5782V83.1382ZM193.154 72.8282L192.668 72.5482L193.298 70.7682C193.668 70.9602 194.028 71.1682 194.378 71.3942L193.152 72.8282H193.154ZM181.41 72.5482L180.924 72.8282L179.7 71.3942C180.05 71.1702 180.41 70.9602 180.78 70.7682L181.41 72.5482ZM184.724 94.3762L185.276 94.4742L185.292 96.3602C184.876 96.3062 184.466 96.2362 184.062 96.1462L184.722 94.3782L184.724 94.3762ZM182.758 93.7982L183.284 93.9902L182.972 95.8562C182.572 95.7322 182.18 95.5882 181.798 95.4282L182.758 93.7982ZM186.414 96.4582L186.758 94.6022H187.318L187.662 96.4582C187.456 96.4682 187.248 96.4742 187.038 96.4742C186.828 96.4742 186.62 96.4682 186.414 96.4582ZM184.724 71.3402L184.064 69.5722C184.468 69.4822 184.878 69.4102 185.294 69.3582L185.278 71.2442L184.726 71.3422L184.724 71.3402ZM186.758 71.1142L186.414 69.2582C186.622 69.2482 186.828 69.2422 187.038 69.2422C187.248 69.2422 187.456 69.2482 187.662 69.2582L187.318 71.1142H186.758ZM179.276 91.6762L179.706 92.0362L178.776 93.6782C178.446 93.4242 178.126 93.1582 177.82 92.8762L179.276 91.6762ZM176.22 91.1222L177.862 90.1922L178.222 90.6222L177.022 92.0782C176.74 91.7722 176.474 91.4522 176.22 91.1222ZM175.424 84.6222L175.522 85.1742L173.754 85.8342C173.664 85.4302 173.592 85.0202 173.54 84.6042L175.426 84.6202L175.424 84.6222ZM175.906 86.6122L176.098 87.1382L174.468 88.0982C174.308 87.7162 174.164 87.3242 174.04 86.9242L175.906 86.6122ZM197.98 87.1382L198.172 86.6122L200.038 86.9242C199.914 87.3242 199.77 87.7162 199.61 88.0982L197.98 87.1382ZM198.784 82.5782L200.64 82.2342C200.65 82.4422 200.656 82.6482 200.656 82.8582C200.656 83.0682 200.65 83.2762 200.64 83.4822L198.784 83.1382V82.5782ZM197.07 88.9742L197.35 88.4882L199.13 89.1182C198.938 89.4882 198.73 89.8482 198.504 90.1982L197.07 88.9722V88.9742ZM195.856 90.6222L196.216 90.1922L197.858 91.1222C197.604 91.4522 197.338 91.7722 197.056 92.0782L195.856 90.6222ZM188.802 71.2442L188.786 69.3582C189.202 69.4122 189.612 69.4822 190.016 69.5722L189.356 71.3402L188.804 71.2422L188.802 71.2442ZM198.556 85.1742L198.654 84.6222L200.54 84.6062C200.486 85.0222 200.416 85.4322 200.326 85.8362L198.558 85.1762L198.556 85.1742ZM195.302 93.6782L194.372 92.0362L194.802 91.6762L196.258 92.8762C195.952 93.1582 195.632 93.4242 195.302 93.6782ZM188.802 94.4742L189.354 94.3762L190.014 96.1442C189.61 96.2342 189.2 96.3062 188.784 96.3582L188.8 94.4722L188.802 94.4742ZM190.792 93.9902L191.318 93.7982L192.278 95.4282C191.896 95.5882 191.504 95.7322 191.104 95.8562L190.792 93.9902Z" fill="black"/>
</g>
<g style="mix-blend-mode:overlay" opacity="0.3">
<path d="M187.04 69.2422C194.56 69.2422 200.656 75.3382 200.656 82.8582C200.656 90.3782 194.56 96.4742 187.04 96.4742C179.52 96.4742 173.424 90.3782 173.424 82.8582C173.424 75.3382 179.52 69.2422 187.04 69.2422ZM187.04 95.0642C193.782 95.0642 199.246 89.6002 199.246 82.8582C199.246 76.1162 193.782 70.6522 187.04 70.6522C180.298 70.6522 174.834 76.1162 174.834 82.8582C174.834 89.6002 180.298 95.0642 187.04 95.0642Z" fill="black"/>
</g>
<g style="mix-blend-mode:overlay" opacity="0.3">
<path d="M187.04 73.4239C192.25 73.4239 196.474 77.6479 196.474 82.8579C196.474 88.0679 192.25 92.2919 187.04 92.2919C181.83 92.2919 177.606 88.0679 177.606 82.8579C177.606 77.6479 181.83 73.4239 187.04 73.4239ZM187.04 89.9439C190.954 89.9439 194.126 86.7719 194.126 82.8579C194.126 78.9439 190.954 75.7719 187.04 75.7719C183.126 75.7719 179.954 78.9439 179.954 82.8579C179.954 86.7719 183.126 89.9439 187.04 89.9439Z" fill="white"/>
</g>
<g style="mix-blend-mode:overlay" opacity="0.3">
<path d="M129.246 72.0479V87.0439H70.3541L67.0041 79.8819H40.4321L36.8821 87.0439H16.6261L14.9501 72.0479H129.246Z" fill="black"/>
</g>
<g style="mix-blend-mode:overlay" opacity="0.3">
<path d="M129.246 84.8018V87.0438H70.3541L69.3061 84.8018H129.246Z" fill="black"/>
</g>
<g style="mix-blend-mode:overlay" opacity="0.3">
<path d="M37.9919 84.8018L36.8819 87.0438H16.6259L16.3759 84.8018H37.9919Z" fill="black"/>
</g>
<g style="mix-blend-mode:overlay" opacity="0.3">
<path d="M12.3521 45.1459L12.6181 43.9659H129.246V50.0319H12.6501C12.3781 47.0439 12.2461 45.1459 12.3521 45.1459Z" fill="white"/>
</g>
<g style="mix-blend-mode:overlay" opacity="0.3">
<path d="M22.4901 21.1943H127.282C127.958 21.7963 128.606 22.4523 129.246 23.1123V23.4143L17.2961 23.3723L22.4901 21.1943Z" fill="white"/>
</g>
<g style="mix-blend-mode:overlay" opacity="0.3">
<path d="M18.94 46.5459H21.118V48.7239H18.94V46.5459Z" fill="black"/>
</g>
<g style="mix-blend-mode:overlay" opacity="0.3">
<path d="M18.94 59.2754H21.118V61.4534H18.94V59.2754Z" fill="black"/>
</g>
<path d="M20.028 60.8059C20.306 60.8059 20.53 60.5799 20.53 60.3039V47.6379C20.53 47.3599 20.304 47.1359 20.028 47.1359C19.752 47.1359 19.526 47.3619 19.526 47.6379V60.3039C19.526 60.5819 19.752 60.8059 20.028 60.8059Z" fill="#AD9360"/>
<g style="mix-blend-mode:overlay" opacity="0.3">
<path d="M111.664 43.4579L116.008 39.1119V32.8439L111.664 28.4999H97.6841L93.3401 32.8439V39.1119L97.6841 43.4579H111.664Z" fill="black"/>
</g>
<path d="M110.96 41.7581L114.31 38.4081V33.5481L110.96 30.1981H98.3878L95.0378 33.5481V38.4081L98.3878 41.7581H110.96Z" fill="#5D7184"/>
<path d="M98.9159 31.4716H104.674H110.432L113.036 34.0756V35.9776V37.8816L110.432 40.4836H104.674H98.9159L96.3119 37.8816V35.9776V34.0756L98.9159 31.4716Z" fill="#303D49"/>
<g style="mix-blend-mode:overlay" opacity="0.5">
<path d="M96.9999 33.3876L101.474 40.4836H106.228L100.546 31.4716H98.9159L96.9999 33.3876ZM104.674 31.4716H110.432L113.036 34.0756V37.8816L110.432 40.4856H110.008L104.326 31.4736H104.674V31.4716Z" fill="white"/>
</g>
<g style="mix-blend-mode:overlay" opacity="0.3">
<path d="M111.23 28.8514C111.474 28.8514 111.672 29.0494 111.672 29.2934C111.672 29.5374 111.474 29.7354 111.23 29.7354C110.986 29.7354 110.788 29.5374 110.788 29.2934C110.788 29.0494 110.986 28.8514 111.23 28.8514Z" fill="black"/>
</g>
<g style="mix-blend-mode:overlay" opacity="0.3">
<path d="M115.084 32.7694C115.328 32.7694 115.526 32.9674 115.526 33.2114C115.526 33.4554 115.328 33.6534 115.084 33.6534C114.84 33.6534 114.642 33.4554 114.642 33.2114C114.642 32.9674 114.84 32.7694 115.084 32.7694Z" fill="black"/>
</g>
<g style="mix-blend-mode:overlay" opacity="0.3">
<path d="M113.166 30.7675C113.41 30.7675 113.608 30.9655 113.608 31.2095C113.608 31.4535 113.41 31.6515 113.166 31.6515C112.922 31.6515 112.724 31.4535 112.724 31.2095C112.724 30.9655 112.922 30.7675 113.166 30.7675Z" fill="black"/>
</g>
<g style="mix-blend-mode:overlay" opacity="0.3">
<path d="M115.19 35.4315C115.434 35.4315 115.632 35.6295 115.632 35.8735C115.632 36.1175 115.434 36.3155 115.19 36.3155C114.946 36.3155 114.748 36.1175 114.748 35.8735C114.748 35.6295 114.946 35.4315 115.19 35.4315Z" fill="black"/>
</g>
<g style="mix-blend-mode:overlay" opacity="0.3">
<path d="M94.2663 32.7694C94.0223 32.7694 93.8243 32.9674 93.8243 33.2114C93.8243 33.4554 94.0223 33.6534 94.2663 33.6534C94.5103 33.6534 94.7083 33.4554 94.7083 33.2114C94.7083 32.9674 94.5103 32.7694 94.2663 32.7694Z" fill="black"/>
</g>
<g style="mix-blend-mode:overlay" opacity="0.3">
<path d="M96.1823 30.7675C95.9383 30.7675 95.7403 30.9655 95.7403 31.2095C95.7403 31.4535 95.9383 31.6515 96.1823 31.6515C96.4263 31.6515 96.6243 31.4535 96.6243 31.2095C96.6243 30.9655 96.4263 30.7675 96.1823 30.7675Z" fill="black"/>
</g>
<g style="mix-blend-mode:overlay" opacity="0.3">
<path d="M94.266 39.1858C94.022 39.1858 93.824 38.9878 93.824 38.7438C93.824 38.4998 94.022 38.3018 94.266 38.3018C94.51 38.3018 94.708 38.4998 94.708 38.7438C94.708 38.9878 94.51 39.1858 94.266 39.1858Z" fill="black"/>
</g>
<g style="mix-blend-mode:overlay" opacity="0.3">
<path d="M96.1823 41.1876C95.9383 41.1876 95.7403 40.9896 95.7403 40.7456C95.7403 40.5016 95.9383 40.3036 96.1823 40.3036C96.4263 40.3036 96.6243 40.5016 96.6243 40.7456C96.6243 40.9896 96.4263 41.1876 96.1823 41.1876Z" fill="black"/>
</g>
<g style="mix-blend-mode:overlay" opacity="0.3">
<path d="M115.084 39.1858C115.328 39.1858 115.526 38.9878 115.526 38.7438C115.526 38.4998 115.328 38.3018 115.084 38.3018C114.84 38.3018 114.642 38.4998 114.642 38.7438C114.642 38.9878 114.84 39.1858 115.084 39.1858Z" fill="black"/>
</g>
<g style="mix-blend-mode:overlay" opacity="0.3">
<path d="M113.166 41.1876C113.41 41.1876 113.608 40.9896 113.608 40.7456C113.608 40.5016 113.41 40.3036 113.166 40.3036C112.922 40.3036 112.724 40.5016 112.724 40.7456C112.724 40.9896 112.922 41.1876 113.166 41.1876Z" fill="black"/>
</g>
<g style="mix-blend-mode:overlay" opacity="0.3">
<path d="M94.1603 35.4315C93.9163 35.4315 93.7183 35.6295 93.7183 35.8735C93.7183 36.1175 93.9163 36.3155 94.1603 36.3155C94.4043 36.3155 94.6023 36.1175 94.6023 35.8735C94.6023 35.6295 94.4043 35.4315 94.1603 35.4315Z" fill="black"/>
</g>
<g style="mix-blend-mode:overlay" opacity="0.3">
<path d="M98.1203 28.8514C97.8763 28.8514 97.6783 29.0494 97.6783 29.2934C97.6783 29.5374 97.8763 29.7354 98.1203 29.7354C98.3643 29.7354 98.5623 29.5374 98.5623 29.2934C98.5623 29.0494 98.3643 28.8514 98.1203 28.8514Z" fill="black"/>
</g>
<g style="mix-blend-mode:overlay" opacity="0.3">
<path d="M107.952 28.8514C108.196 28.8514 108.394 29.0494 108.394 29.2934C108.394 29.5374 108.196 29.7354 107.952 29.7354C107.708 29.7354 107.51 29.5374 107.51 29.2934C107.51 29.0494 107.708 28.8514 107.952 28.8514Z" fill="black"/>
</g>
<g style="mix-blend-mode:overlay" opacity="0.3">
<path d="M104.674 28.8514C104.918 28.8514 105.116 29.0494 105.116 29.2934C105.116 29.5374 104.918 29.7354 104.674 29.7354C104.43 29.7354 104.232 29.5374 104.232 29.2934C104.232 29.0494 104.43 28.8514 104.674 28.8514Z" fill="black"/>
</g>
<g style="mix-blend-mode:overlay" opacity="0.3">
<path d="M101.396 28.8514C101.64 28.8514 101.838 29.0494 101.838 29.2934C101.838 29.5374 101.64 29.7354 101.396 29.7354C101.152 29.7354 100.954 29.5374 100.954 29.2934C100.954 29.0494 101.152 28.8514 101.396 28.8514Z" fill="black"/>
</g>
<g style="mix-blend-mode:overlay" opacity="0.3">
<path d="M98.1203 43.1036C97.8763 43.1036 97.6783 42.9056 97.6783 42.6616C97.6783 42.4176 97.8763 42.2196 98.1203 42.2196C98.3643 42.2196 98.5623 42.4176 98.5623 42.6616C98.5623 42.9056 98.3643 43.1036 98.1203 43.1036Z" fill="black"/>
</g>
<g style="mix-blend-mode:overlay" opacity="0.3">
<path d="M111.23 43.1036C111.474 43.1036 111.672 42.9056 111.672 42.6616C111.672 42.4176 111.474 42.2196 111.23 42.2196C110.986 42.2196 110.788 42.4176 110.788 42.6616C110.788 42.9056 110.986 43.1036 111.23 43.1036Z" fill="black"/>
</g>
<g style="mix-blend-mode:overlay" opacity="0.3">
<path d="M101.396 43.1036C101.152 43.1036 100.954 42.9056 100.954 42.6616C100.954 42.4176 101.152 42.2196 101.396 42.2196C101.64 42.2196 101.838 42.4176 101.838 42.6616C101.838 42.9056 101.64 43.1036 101.396 43.1036Z" fill="black"/>
</g>
<g style="mix-blend-mode:overlay" opacity="0.3">
<path d="M104.674 43.1036C104.43 43.1036 104.232 42.9056 104.232 42.6616C104.232 42.4176 104.43 42.2196 104.674 42.2196C104.918 42.2196 105.116 42.4176 105.116 42.6616C105.116 42.9056 104.918 43.1036 104.674 43.1036Z" fill="black"/>
</g>
<g style="mix-blend-mode:overlay" opacity="0.3">
<path d="M107.952 43.1036C107.708 43.1036 107.51 42.9056 107.51 42.6616C107.51 42.4176 107.708 42.2196 107.952 42.2196C108.196 42.2196 108.394 42.4176 108.394 42.6616C108.394 42.9056 108.196 43.1036 107.952 43.1036Z" fill="black"/>
</g>
<g style="mix-blend-mode:overlay" opacity="0.3">
<path d="M76.7019 43.4579L81.0459 39.1119V32.8439L76.7019 28.4999H62.7219L58.3779 32.8439V39.1119L62.7219 43.4579H76.7019Z" fill="black"/>
</g>
<path d="M75.9981 41.7581L79.3481 38.4081V33.5481L75.9981 30.1981H63.4261L60.0761 33.5481V38.4081L63.4261 41.7581H75.9981Z" fill="#5D7184"/>
<path d="M63.9537 31.4725H69.7117H75.4697L78.0737 34.0765V35.9785V37.8825L75.4697 40.4845H69.7117H63.9537L61.3497 37.8825V35.9785V34.0765L63.9537 31.4725Z" fill="#303D49"/>
<g style="mix-blend-mode:overlay" opacity="0.5">
<path d="M62.0377 33.3885L66.5117 40.4845H71.2657L65.5837 31.4725H63.9537L62.0377 33.3885ZM69.7117 31.4725H75.4697L78.0737 34.0765V37.8825L75.4697 40.4865H75.0457L69.3637 31.4745H69.7117V31.4725Z" fill="white"/>
</g>
<g style="mix-blend-mode:overlay" opacity="0.3">
<path d="M76.268 28.8514C76.512 28.8514 76.71 29.0494 76.71 29.2934C76.71 29.5374 76.512 29.7354 76.268 29.7354C76.024 29.7354 75.826 29.5374 75.826 29.2934C75.826 29.0494 76.024 28.8514 76.268 28.8514Z" fill="black"/>
</g>
<g style="mix-blend-mode:overlay" opacity="0.3">
<path d="M80.12 32.7694C80.364 32.7694 80.562 32.9674 80.562 33.2114C80.562 33.4554 80.364 33.6534 80.12 33.6534C79.876 33.6534 79.678 33.4554 79.678 33.2114C79.678 32.9674 79.876 32.7694 80.12 32.7694Z" fill="black"/>
</g>
<g style="mix-blend-mode:overlay" opacity="0.3">
<path d="M78.204 30.7675C78.448 30.7675 78.646 30.9655 78.646 31.2095C78.646 31.4535 78.448 31.6515 78.204 31.6515C77.96 31.6515 77.762 31.4535 77.762 31.2095C77.762 30.9655 77.96 30.7675 78.204 30.7675Z" fill="black"/>
</g>
<g style="mix-blend-mode:overlay" opacity="0.3">
<path d="M80.2279 35.4315C80.4719 35.4315 80.6699 35.6295 80.6699 35.8735C80.6699 36.1175 80.4719 36.3155 80.2279 36.3155C79.9839 36.3155 79.7859 36.1175 79.7859 35.8735C79.7859 35.6295 79.9839 35.4315 80.2279 35.4315Z" fill="black"/>
</g>
<g style="mix-blend-mode:overlay" opacity="0.3">
<path d="M59.3041 32.7694C59.0601 32.7694 58.8621 32.9674 58.8621 33.2114C58.8621 33.4554 59.0601 33.6534 59.3041 33.6534C59.5481 33.6534 59.7461 33.4554 59.7461 33.2114C59.7461 32.9674 59.5481 32.7694 59.3041 32.7694Z" fill="black"/>
</g>
<g style="mix-blend-mode:overlay" opacity="0.3">
<path d="M61.2201 30.7675C60.9761 30.7675 60.7781 30.9655 60.7781 31.2095C60.7781 31.4535 60.9761 31.6515 61.2201 31.6515C61.4641 31.6515 61.6621 31.4535 61.6621 31.2095C61.6621 30.9655 61.4641 30.7675 61.2201 30.7675Z" fill="black"/>
</g>
<g style="mix-blend-mode:overlay" opacity="0.3">
<path d="M59.3041 39.1856C59.0601 39.1856 58.8621 38.9876 58.8621 38.7436C58.8621 38.4996 59.0601 38.3016 59.3041 38.3016C59.5481 38.3016 59.7461 38.4996 59.7461 38.7436C59.7461 38.9876 59.5481 39.1856 59.3041 39.1856Z" fill="black"/>
</g>
<g style="mix-blend-mode:overlay" opacity="0.3">
<path d="M61.2201 41.1886C60.9761 41.1886 60.7781 40.9906 60.7781 40.7466C60.7781 40.5026 60.9761 40.3046 61.2201 40.3046C61.4641 40.3046 61.6621 40.5026 61.6621 40.7466C61.6621 40.9906 61.4641 41.1886 61.2201 41.1886Z" fill="black"/>
</g>
<g style="mix-blend-mode:overlay" opacity="0.3">
<path d="M80.12 39.1856C80.364 39.1856 80.562 38.9876 80.562 38.7436C80.562 38.4996 80.364 38.3016 80.12 38.3016C79.876 38.3016 79.678 38.4996 79.678 38.7436C79.678 38.9876 79.876 39.1856 80.12 39.1856Z" fill="black"/>
</g>
<g style="mix-blend-mode:overlay" opacity="0.3">
<path d="M78.204 41.1886C78.448 41.1886 78.646 40.9906 78.646 40.7466C78.646 40.5026 78.448 40.3046 78.204 40.3046C77.96 40.3046 77.762 40.5026 77.762 40.7466C77.762 40.9906 77.96 41.1886 78.204 41.1886Z" fill="black"/>
</g>
<g style="mix-blend-mode:overlay" opacity="0.3">
<path d="M59.1957 35.4315C58.9517 35.4315 58.7537 35.6295 58.7537 35.8735C58.7537 36.1175 58.9517 36.3155 59.1957 36.3155C59.4397 36.3155 59.6377 36.1175 59.6377 35.8735C59.6377 35.6295 59.4397 35.4315 59.1957 35.4315Z" fill="black"/>
</g>
<g style="mix-blend-mode:overlay" opacity="0.3">
<path d="M63.1562 28.8514C62.9122 28.8514 62.7141 29.0494 62.7141 29.2934C62.7141 29.5374 62.9122 29.7354 63.1562 29.7354C63.4002 29.7354 63.5981 29.5374 63.5981 29.2934C63.5981 29.0494 63.4002 28.8514 63.1562 28.8514Z" fill="black"/>
</g>
<g style="mix-blend-mode:overlay" opacity="0.3">
<path d="M72.9901 28.8514C73.2341 28.8514 73.4321 29.0494 73.4321 29.2934C73.4321 29.5374 73.2341 29.7354 72.9901 29.7354C72.7461 29.7354 72.5481 29.5374 72.5481 29.2934C72.5481 29.0494 72.7461 28.8514 72.9901 28.8514Z" fill="black"/>
</g>
<g style="mix-blend-mode:overlay" opacity="0.3">
<path d="M69.7118 28.8514C69.9558 28.8514 70.1538 29.0494 70.1538 29.2934C70.1538 29.5374 69.9558 29.7354 69.7118 29.7354C69.4678 29.7354 69.2698 29.5374 69.2698 29.2934C69.2698 29.0494 69.4678 28.8514 69.7118 28.8514Z" fill="black"/>
</g>
<g style="mix-blend-mode:overlay" opacity="0.3">
<path d="M66.434 28.8514C66.678 28.8514 66.876 29.0494 66.876 29.2934C66.876 29.5374 66.678 29.7354 66.434 29.7354C66.19 29.7354 65.992 29.5374 65.992 29.2934C65.992 29.0494 66.19 28.8514 66.434 28.8514Z" fill="black"/>
</g>
<g style="mix-blend-mode:overlay" opacity="0.3">
<path d="M63.1562 43.1046C62.9122 43.1046 62.7141 42.9066 62.7141 42.6626C62.7141 42.4186 62.9122 42.2206 63.1562 42.2206C63.4002 42.2206 63.5981 42.4186 63.5981 42.6626C63.5981 42.9066 63.4002 43.1046 63.1562 43.1046Z" fill="black"/>
</g>
<g style="mix-blend-mode:overlay" opacity="0.3">
<path d="M76.268 43.1046C76.512 43.1046 76.71 42.9066 76.71 42.6626C76.71 42.4186 76.512 42.2206 76.268 42.2206C76.024 42.2206 75.826 42.4186 75.826 42.6626C75.826 42.9066 76.024 43.1046 76.268 43.1046Z" fill="black"/>
</g>
<g style="mix-blend-mode:overlay" opacity="0.3">
<path d="M66.434 43.1046C66.19 43.1046 65.992 42.9066 65.992 42.6626C65.992 42.4186 66.19 42.2206 66.434 42.2206C66.678 42.2206 66.876 42.4186 66.876 42.6626C66.876 42.9066 66.678 43.1046 66.434 43.1046Z" fill="black"/>
</g>
<g style="mix-blend-mode:overlay" opacity="0.3">
<path d="M69.7118 43.1046C69.4678 43.1046 69.2698 42.9066 69.2698 42.6626C69.2698 42.4186 69.4678 42.2206 69.7118 42.2206C69.9558 42.2206 70.1538 42.4186 70.1538 42.6626C70.1538 42.9066 69.9558 43.1046 69.7118 43.1046Z" fill="black"/>
</g>
<g style="mix-blend-mode:overlay" opacity="0.3">
<path d="M72.9901 43.1046C72.7461 43.1046 72.5481 42.9066 72.5481 42.6626C72.5481 42.4186 72.7461 42.2206 72.9901 42.2206C73.2341 42.2206 73.4321 42.4186 73.4321 42.6626C73.4321 42.9066 73.2341 43.1046 72.9901 43.1046Z" fill="black"/>
</g>
<g style="mix-blend-mode:overlay" opacity="0.3">
<path d="M42.838 43.4579L47.184 39.1119V32.8439L42.838 28.4999H28.86L24.514 32.8439V39.1119L28.86 43.4579H42.838Z" fill="black"/>
</g>
<path d="M42.1338 41.7581L45.4838 38.4081V33.5481L42.1338 30.1981H29.5638L26.2138 33.5481V38.4081L29.5638 41.7581H42.1338Z" fill="#5D7184"/>
<path d="M30.0898 31.4716H35.8478H41.6058L44.2098 34.0756V35.9776V37.8816L41.6058 40.4836H35.8478H30.0898L27.4878 37.8816V35.9776V34.0756L30.0898 31.4716Z" fill="#303D49"/>
<g style="mix-blend-mode:overlay" opacity="0.5">
<path d="M28.1738 33.3876L32.6478 40.4836H37.4018L31.7198 31.4716H30.0898L28.1738 33.3876ZM35.8478 31.4716H41.6058L44.2098 34.0756V37.8816L41.6058 40.4856H41.1818L35.4998 31.4736H35.8478V31.4716Z" fill="white"/>
</g>
<g style="mix-blend-mode:overlay" opacity="0.3">
<path d="M42.4041 28.8514C42.6481 28.8514 42.8461 29.0494 42.8461 29.2934C42.8461 29.5374 42.6481 29.7354 42.4041 29.7354C42.1601 29.7354 41.9621 29.5374 41.9621 29.2934C41.9621 29.0494 42.1601 28.8514 42.4041 28.8514Z" fill="black"/>
</g>
<g style="mix-blend-mode:overlay" opacity="0.3">
<path d="M46.2581 32.7694C46.5021 32.7694 46.7001 32.9674 46.7001 33.2114C46.7001 33.4554 46.5021 33.6534 46.2581 33.6534C46.0141 33.6534 45.8161 33.4554 45.8161 33.2114C45.8161 32.9674 46.0141 32.7694 46.2581 32.7694Z" fill="black"/>
</g>
<g style="mix-blend-mode:overlay" opacity="0.3">
<path d="M44.3421 30.7675C44.5861 30.7675 44.7841 30.9655 44.7841 31.2095C44.7841 31.4535 44.5861 31.6515 44.3421 31.6515C44.0981 31.6515 43.9001 31.4535 43.9001 31.2095C43.9001 30.9655 44.0981 30.7675 44.3421 30.7675Z" fill="black"/>
</g>
<g style="mix-blend-mode:overlay" opacity="0.3">
<path d="M46.364 35.4315C46.608 35.4315 46.806 35.6295 46.806 35.8735C46.806 36.1175 46.608 36.3155 46.364 36.3155C46.12 36.3155 45.922 36.1175 45.922 35.8735C45.922 35.6295 46.12 35.4315 46.364 35.4315Z" fill="black"/>
</g>
<g style="mix-blend-mode:overlay" opacity="0.3">
<path d="M25.4402 32.7694C25.1962 32.7694 24.9982 32.9674 24.9982 33.2114C24.9982 33.4554 25.1962 33.6534 25.4402 33.6534C25.6842 33.6534 25.8822 33.4554 25.8822 33.2114C25.8822 32.9674 25.6842 32.7694 25.4402 32.7694Z" fill="black"/>
</g>
<g style="mix-blend-mode:overlay" opacity="0.3">
<path d="M27.3557 30.7675C27.1117 30.7675 26.9137 30.9655 26.9137 31.2095C26.9137 31.4535 27.1117 31.6515 27.3557 31.6515C27.5997 31.6515 27.7977 31.4535 27.7977 31.2095C27.7977 30.9655 27.5997 30.7675 27.3557 30.7675Z" fill="black"/>
</g>
<g style="mix-blend-mode:overlay" opacity="0.3">
<path d="M25.44 39.1858C25.196 39.1858 24.998 38.9878 24.998 38.7438C24.998 38.4998 25.196 38.3018 25.44 38.3018C25.684 38.3018 25.882 38.4998 25.882 38.7438C25.882 38.9878 25.684 39.1858 25.44 39.1858Z" fill="black"/>
</g>
<g style="mix-blend-mode:overlay" opacity="0.3">
<path d="M27.3557 41.1876C27.1117 41.1876 26.9137 40.9896 26.9137 40.7456C26.9137 40.5016 27.1117 40.3036 27.3557 40.3036C27.5997 40.3036 27.7977 40.5016 27.7977 40.7456C27.7977 40.9896 27.5997 41.1876 27.3557 41.1876Z" fill="black"/>
</g>
<g style="mix-blend-mode:overlay" opacity="0.3">
<path d="M46.2579 39.1858C46.5019 39.1858 46.7 38.9878 46.7 38.7438C46.7 38.4998 46.5019 38.3018 46.2579 38.3018C46.0139 38.3018 45.816 38.4998 45.816 38.7438C45.816 38.9878 46.0139 39.1858 46.2579 39.1858Z" fill="black"/>
</g>
<g style="mix-blend-mode:overlay" opacity="0.3">
<path d="M44.3421 41.1876C44.5861 41.1876 44.7841 40.9896 44.7841 40.7456C44.7841 40.5016 44.5861 40.3036 44.3421 40.3036C44.0981 40.3036 43.9001 40.5016 43.9001 40.7456C43.9001 40.9896 44.0981 41.1876 44.3421 41.1876Z" fill="black"/>
</g>
<g style="mix-blend-mode:overlay" opacity="0.3">
<path d="M25.3338 35.4315C25.0898 35.4315 24.8918 35.6295 24.8918 35.8735C24.8918 36.1175 25.0898 36.3155 25.3338 36.3155C25.5778 36.3155 25.7758 36.1175 25.7758 35.8735C25.7758 35.6295 25.5778 35.4315 25.3338 35.4315Z" fill="black"/>
</g>
<g style="mix-blend-mode:overlay" opacity="0.3">
<path d="M29.2937 28.8514C29.0497 28.8514 28.8517 29.0494 28.8517 29.2934C28.8517 29.5374 29.0497 29.7354 29.2937 29.7354C29.5377 29.7354 29.7357 29.5374 29.7357 29.2934C29.7357 29.0494 29.5377 28.8514 29.2937 28.8514Z" fill="black"/>
</g>
<g style="mix-blend-mode:overlay" opacity="0.3">
<path d="M39.1257 28.8514C39.3697 28.8514 39.5677 29.0494 39.5677 29.2934C39.5677 29.5374 39.3697 29.7354 39.1257 29.7354C38.8817 29.7354 38.6837 29.5374 38.6837 29.2934C38.6837 29.0494 38.8817 28.8514 39.1257 28.8514Z" fill="black"/>
</g>
<g style="mix-blend-mode:overlay" opacity="0.3">
<path d="M35.8479 28.8514C36.0919 28.8514 36.2899 29.0494 36.2899 29.2934C36.2899 29.5374 36.0919 29.7354 35.8479 29.7354C35.6039 29.7354 35.4059 29.5374 35.4059 29.2934C35.4059 29.0494 35.6039 28.8514 35.8479 28.8514Z" fill="black"/>
</g>
<g style="mix-blend-mode:overlay" opacity="0.3">
<path d="M32.572 28.8514C32.816 28.8514 33.014 29.0494 33.014 29.2934C33.014 29.5374 32.816 29.7354 32.572 29.7354C32.328 29.7354 32.13 29.5374 32.13 29.2934C32.13 29.0494 32.328 28.8514 32.572 28.8514Z" fill="black"/>
</g>
<g style="mix-blend-mode:overlay" opacity="0.3">
<path d="M29.2937 43.1036C29.0497 43.1036 28.8517 42.9056 28.8517 42.6616C28.8517 42.4176 29.0497 42.2196 29.2937 42.2196C29.5377 42.2196 29.7357 42.4176 29.7357 42.6616C29.7357 42.9056 29.5377 43.1036 29.2937 43.1036Z" fill="black"/>
</g>
<g style="mix-blend-mode:overlay" opacity="0.3">
<path d="M42.4041 43.1036C42.6481 43.1036 42.8461 42.9056 42.8461 42.6616C42.8461 42.4176 42.6481 42.2196 42.4041 42.2196C42.1601 42.2196 41.9621 42.4176 41.9621 42.6616C41.9621 42.9056 42.1601 43.1036 42.4041 43.1036Z" fill="black"/>
</g>
<g style="mix-blend-mode:overlay" opacity="0.3">
<path d="M32.572 43.1036C32.328 43.1036 32.13 42.9056 32.13 42.6616C32.13 42.4176 32.328 42.2196 32.572 42.2196C32.816 42.2196 33.014 42.4176 33.014 42.6616C33.014 42.9056 32.816 43.1036 32.572 43.1036Z" fill="black"/>
</g>
<g style="mix-blend-mode:overlay" opacity="0.3">
<path d="M35.8479 43.1036C35.6039 43.1036 35.4059 42.9056 35.4059 42.6616C35.4059 42.4176 35.6039 42.2196 35.8479 42.2196C36.0919 42.2196 36.2899 42.4176 36.2899 42.6616C36.2899 42.9056 36.0919 43.1036 35.8479 43.1036Z" fill="black"/>
</g>
<g style="mix-blend-mode:overlay" opacity="0.3">
<path d="M39.1257 43.1036C38.8817 43.1036 38.6837 42.9056 38.6837 42.6616C38.6837 42.4176 38.8817 42.2196 39.1257 42.2196C39.3697 42.2196 39.5677 42.4176 39.5677 42.6616C39.5677 42.9056 39.3697 43.1036 39.1257 43.1036Z" fill="black"/>
</g>
<g style="mix-blend-mode:overlay" opacity="0.3">
<path d="M16.2042 45.0283L18.9902 87.0443H16.6262C16.6262 87.0443 11.8502 45.1543 12.3542 45.1543L17.2962 23.3723L22.4902 21.1943L19.5262 23.3843L16.2042 45.0303V45.0283Z" fill="black"/>
</g>
<path d="M44.794 16.9999H76.812V19.2059H44.794V16.9999Z" fill="#E97B08"/>
<path d="M46.838 19.2058H74.77V21.1918H46.838V19.2058Z" fill="#C7AE76"/>
<g style="mix-blend-mode:overlay" opacity="0.3">
<path d="M46.838 19.2058H74.77V20.1998H46.838V19.2058Z" fill="black"/>
</g>
<path d="M22.23 80.1219H20.004C19.568 80.1219 19.216 80.4759 19.216 80.9099V81.5239C19.216 81.9599 19.57 82.3119 20.004 82.3119H22.23C22.666 82.3119 23.02 81.9579 23.02 81.5219V80.9079C23.02 80.4719 22.666 80.1199 22.232 80.1199L22.23 80.1219Z" fill="#F7941E"/>
<path d="M125.542 80.1219H123.316C122.88 80.1219 122.528 80.4759 122.528 80.9099V81.5239C122.528 81.9599 122.882 82.3119 123.316 82.3119H125.542C125.978 82.3119 126.332 81.9579 126.332 81.5219V80.9079C126.332 80.4719 125.978 80.1199 125.544 80.1199L125.542 80.1219Z" fill="#F7941E"/>
<path d="M206.088 76.1339H203.862C203.426 76.1339 203.074 76.4879 203.074 76.9219V77.5359C203.074 77.9719 203.428 78.3239 203.862 78.3239H206.088C206.524 78.3239 206.876 77.9699 206.876 77.5359V76.9219C206.876 76.4859 206.522 76.1319 206.086 76.1319L206.088 76.1339Z" fill="#F7941E"/>
<g style="mix-blend-mode:overlay" opacity="0.3">
<path d="M127.604 21.4883C128.164 22.0063 128.708 22.5563 129.244 23.1103V87.0423H127.604V21.4883Z" fill="white"/>
</g>
</svg>
