<svg width="24" height="24" viewBox="0 0 24 24" fill="none" xmlns="http://www.w3.org/2000/svg">
<path d="M9.17574 11.7166C9.33194 11.8728 9.33194 12.126 9.17574 12.2822L5.28284 16.1751C5.04841 16.4096 5.04909 16.7899 5.28329 17.0241C5.51749 17.2583 5.89783 17.259 6.13226 17.0246L10.7332 12.4237C10.9675 12.1894 10.9675 11.8095 10.7332 11.5751L6.13226 6.97425C5.89783 6.73982 5.51749 6.7405 5.28329 6.9747C5.04909 7.20889 5.04841 7.58924 5.28284 7.82367L9.17574 11.7166Z" fill="white" stroke="white" stroke-width="0.2"/>
<path d="M17.1757 11.7166C17.3319 11.8728 17.3319 12.126 17.1757 12.2822L13.2828 16.1751C13.0484 16.4096 13.0491 16.7899 13.2833 17.0241C13.5175 17.2583 13.8978 17.259 14.1323 17.0246L18.7332 12.4237C18.9675 12.1894 18.9675 11.8095 18.7332 11.5751L14.1323 6.97425C13.8978 6.73982 13.5175 6.7405 13.2833 6.9747C13.0491 7.20889 13.0484 7.58924 13.2828 7.82367L17.1757 11.7166Z" fill="white" stroke="white" stroke-width="0.2"/>
</svg>
