<svg width="32" height="22" viewBox="0 0 32 22" fill="none" xmlns="http://www.w3.org/2000/svg">
<path d="M4.86912 16.681L4.82099 15.5977L2.47824 13.1056L2.62354 16.377L0.227261 19.531C-0.145294 20.0212 -0.0498179 20.7207 0.440494 21.0932C0.64214 21.2465 0.879072 21.3205 1.11417 21.3205C1.45074 21.3205 1.78349 21.1686 2.00282 20.88L4.64308 17.4049C4.80075 17.1975 4.88071 16.9413 4.86912 16.681Z" fill="#181919"/>
<path d="M2.30918 12.5146C2.34106 12.5609 2.37555 12.606 2.41519 12.6482L5.5793 16.0139L6.46795 20.4294C6.57448 20.9589 7.03972 21.3247 7.55973 21.3246C7.63264 21.3246 7.70668 21.3174 7.78089 21.3025C8.38463 21.181 8.77547 20.5931 8.65396 19.9895L7.70259 15.2621C7.66156 15.0582 7.56435 14.8699 7.42193 14.7183L5.0781 12.2252C5.08541 12.0921 5.08411 11.9395 5.07366 11.7628C5.04025 11.5135 5.02514 11.257 5.02194 10.9975C5.02082 10.9077 5.02124 10.8176 5.02318 10.7271L4.67164 10.5502C4.44569 10.4365 4.27417 10.2427 4.1889 10.0043L3.26479 7.42177C3.08248 6.91229 3.34867 6.34959 3.85798 6.16745C3.96469 6.12921 4.07592 6.10987 4.18846 6.10987C4.60187 6.10987 4.97311 6.37136 5.1123 6.76064L5.90418 8.97364L6.96258 9.50628L8.37969 9.80531L8.4384 10.249L8.6103 10.3355C9.09356 10.5785 9.28894 11.1695 9.04573 11.6528C8.96057 11.8221 8.83173 11.9583 8.67697 12.0518L8.76018 12.6806C8.83263 13.2281 9.33521 13.6132 9.88272 13.5408L22.206 11.91C22.2066 11.8312 22.2155 11.7515 22.2361 11.6718L23.2035 7.93534C23.2735 7.66505 23.4559 7.43683 23.704 7.30905L26.5622 5.83653C26.7005 5.7651 26.8558 5.72721 27.011 5.72721C27.3802 5.72721 27.7146 5.93112 27.8837 6.25934C28.1315 6.74034 27.9418 7.33318 27.4609 7.5809L24.9931 8.8523L24.7337 9.85428C24.7302 10.3676 24.7666 10.9163 24.8401 11.5476C24.9234 11.9762 25.0698 12.2893 25.2556 12.5184C25.2976 12.5813 25.3464 12.6409 25.4026 12.6959L28.6287 15.8581L29.804 20.4984C29.9318 21.0035 30.3858 21.3399 30.884 21.3399C30.9746 21.3399 31.0667 21.3287 31.1586 21.3055C31.7554 21.1543 32.1168 20.5478 31.9656 19.9509L30.7135 15.0072C30.6633 14.8088 30.5594 14.628 30.4132 14.4847L28.037 12.1557C28.0399 12.0433 28.0375 11.9183 28.0292 11.7781C27.8236 10.2447 28.2571 8.45414 28.5015 7.20557C28.7574 6.31805 28.4226 5.25553 27.6613 5.06564C27.2936 4.97401 26.8463 5.02351 26.4313 5.24566C26.4106 5.25453 26.39 5.26424 26.3698 5.27524L25.4674 5.76721L23.1481 7.03165L22.7193 3.79141C22.6468 3.24389 22.1442 2.85878 21.5967 2.93124L8.70451 4.63731C8.157 4.70977 7.77189 5.21235 7.84434 5.75986L8.18115 8.30492L6.78375 8.01002L5.36968 5.5444C5.32399 5.46475 5.26489 5.3978 5.19736 5.34358C5.06228 5.20164 4.89759 5.09825 4.70571 5.05039C3.94423 4.86067 2.84043 5.27408 2.39131 6.58014C1.89256 8.05871 1.71611 9.11413 1.79683 10.5426C1.81434 10.8525 1.84341 11.1791 1.88453 11.5324C1.96921 11.968 2.11911 12.2845 2.30918 12.5146Z" fill="#181919"/>
<path d="M8.4898 10.5741L5.68814 9.1642L4.8602 6.85041C4.72745 6.47934 4.31893 6.28623 3.94795 6.41898C3.57687 6.55173 3.38376 6.96017 3.51652 7.33124L4.44062 9.91374C4.50238 10.0863 4.62808 10.2284 4.79175 10.3107L7.84838 11.8488C7.95125 11.9006 8.06074 11.9252 8.16857 11.9252C8.42963 11.9252 8.6811 11.7813 8.80653 11.5322C8.9836 11.1802 8.84189 10.7512 8.4898 10.5741Z" fill="#181919"/>
<path d="M5.70674 4.67411C6.81513 4.67411 7.71366 3.77558 7.71366 2.66719C7.71366 1.55881 6.81513 0.660278 5.70674 0.660278C4.59836 0.660278 3.69983 1.55881 3.69983 2.66719C3.69983 3.77558 4.59836 4.67411 5.70674 4.67411Z" fill="#181919"/>
<path d="M29.1563 4.93876C30.2647 4.93876 31.1632 4.04023 31.1632 2.93184C31.1632 1.82345 30.2647 0.924927 29.1563 0.924927C28.0479 0.924927 27.1494 1.82345 27.1494 2.93184C27.1494 4.04023 28.0479 4.93876 29.1563 4.93876Z" fill="#181919"/>
<path d="M25.579 16.3921L23.1828 19.5461C22.8102 20.0365 22.9058 20.7359 23.3961 21.1084C23.5978 21.2616 23.8346 21.3356 24.0697 21.3356C24.4063 21.3356 24.739 21.1837 24.9584 20.8951L27.5985 17.42C27.7562 17.2125 27.8362 16.9564 27.8246 16.696L27.7665 15.3871L25.4328 13.0997L25.579 16.3921Z" fill="#181919"/>
<path d="M24.764 8.66972L27.3382 7.34345C27.6886 7.16297 27.8262 6.73266 27.6457 6.38232C27.4652 6.0319 27.0349 5.89392 26.6846 6.07484L23.8264 7.54736C23.6458 7.64039 23.5133 7.80607 23.4624 8.00283L22.4951 11.7392C22.3964 12.1207 22.6256 12.5101 23.0071 12.6089C23.0671 12.6244 23.1272 12.6318 23.1864 12.6318C23.5038 12.6318 23.7935 12.4184 23.8768 12.0969L24.764 8.66972Z" fill="#181919"/>
</svg>
