<svg width="96" height="40" viewBox="0 0 96 40" fill="none" xmlns="http://www.w3.org/2000/svg">
<path d="M95.701 20.5757C95.701 13.7703 92.4045 8.40037 86.1043 8.40037C79.7772 8.40037 75.9492 13.7705 75.9492 20.5226C75.9492 28.5241 80.4686 32.5648 86.9548 32.5648C90.1184 32.5648 92.5109 31.8471 94.3186 30.837V25.5202C92.5111 26.4241 90.4374 26.9824 87.8057 26.9824C85.227 26.9824 82.9408 26.0785 82.6485 22.9417H95.6479C95.6479 22.5959 95.701 21.2136 95.701 20.5757ZM82.5686 18.0503C82.5686 15.0463 84.403 13.7968 86.0778 13.7968C87.6993 13.7968 89.4273 15.0463 89.4273 18.0503H82.5686ZM65.6883 8.40037C63.0828 8.40037 61.4081 9.62317 60.4778 10.474L60.132 8.82579H54.2838V39.822L60.9296 38.4132L60.9563 30.8901C61.9133 31.5813 63.3221 32.5648 65.6615 32.5648C70.42 32.5648 74.7531 28.7368 74.7531 20.3099C74.7266 12.6005 70.3402 8.40037 65.6881 8.40037M64.0929 26.7164C62.5245 26.7164 61.5939 26.1583 60.9561 25.4671L60.9294 15.6045C61.6206 14.8336 62.5776 14.302 64.0929 14.302C66.512 14.302 68.1868 17.0134 68.1868 20.4959C68.1868 24.0581 66.5385 26.7164 64.0929 26.7164ZM45.1389 6.83196L51.8114 5.39644V0L45.1389 1.40897V6.83196ZM45.1389 8.85233H51.8114V32.1129H45.1389V8.85233ZM37.9881 10.8194L37.5626 8.85233H31.8206V32.1129H38.4666V16.349C40.0348 14.302 42.6933 14.6742 43.5174 14.9665V8.85233C42.6668 8.53326 39.5565 7.9484 37.9881 10.8194ZM24.6961 3.08374L18.2097 4.46598L18.1832 25.7594C18.1832 29.694 21.134 32.5914 25.0684 32.5914C27.2482 32.5914 28.8432 32.1927 29.7204 31.7142V26.3177C28.8699 26.6633 24.6695 27.8861 24.6695 23.9518V14.5146H29.7204V8.85233H24.6695L24.6961 3.08374ZM6.72561 15.6045C6.72561 14.5678 7.57627 14.169 8.98542 14.169C11.0056 14.169 13.5576 14.7805 15.578 15.8705V9.62317C13.3716 8.74597 11.1918 8.40037 8.98542 8.40037C3.58879 8.40037 0 11.2183 0 15.9237C0 23.2605 10.1017 22.091 10.1017 25.2546C10.1017 26.4772 9.03851 26.8761 7.54972 26.8761C5.34337 26.8761 2.52542 25.9721 0.292337 24.7493V31.0762C2.76467 32.1396 5.26355 32.5914 7.54972 32.5914C13.0791 32.5914 16.8806 29.8534 16.8806 25.0949C16.854 17.1731 6.72561 18.5819 6.72561 15.6045Z" fill="#635BFF"/>
</svg>
