<svg width="120" height="120" viewBox="0 0 120 120" fill="none" xmlns="http://www.w3.org/2000/svg">
<path d="M84.375 7.5C84.375 3.35621 81.0188 0 76.875 0H9.375C5.23121 0 1.875 3.35621 1.875 7.5V93.75C1.875 97.8937 5.23121 101.25 9.375 101.25V18.75C9.375 12.5438 14.4188 7.5 20.625 7.5H84.375Z" fill="black"/>
<path d="M105.507 98.5125C103.556 99.0749 101.494 99.375 99.3752 99.375C97.2565 99.375 95.194 99.0749 93.2439 98.5125L91.2565 110.419C90.8628 112.819 91.5377 115.237 93.094 117.094C94.669 118.931 96.9565 120 99.3752 120C101.794 120 104.082 118.931 105.656 117.094C107.213 115.237 107.888 112.819 107.494 110.419L105.507 98.5125Z" fill="black"/>
<path d="M41.25 41.25C43.3211 41.25 45 39.5711 45 37.5C45 35.4289 43.3211 33.75 41.25 33.75C39.1789 33.75 37.5 35.4289 37.5 37.5C37.5 39.5711 39.1789 41.25 41.25 41.25Z" fill="black"/>
<path d="M41.2499 45C37.8597 45 34.808 46.8027 33.1475 49.6793C35.3815 51.4398 38.1919 52.5 41.2499 52.5C44.3079 52.5 47.1183 51.4399 49.3523 49.6794C47.6918 46.8028 44.6401 45 41.2499 45Z" fill="black"/>
<path d="M41.25 26.25C34.0137 26.25 28.125 32.1387 28.125 39.375C28.125 42.1718 29.0119 44.7617 30.509 46.8938C31.8369 44.9794 33.6123 43.456 35.6892 42.4864C34.4971 41.1581 33.75 39.4217 33.75 37.5C33.75 33.3636 37.1136 30 41.25 30C45.3864 30 48.75 33.3636 48.75 37.5C48.75 39.4217 48.0029 41.1581 46.8108 42.4864C48.8877 43.456 50.6632 44.9794 51.9911 46.8938C53.4882 44.7617 54.375 42.1718 54.375 39.375C54.375 32.1387 48.4863 26.25 41.25 26.25Z" fill="#E97B08"/>
<path d="M41.25 86.25C43.3211 86.25 45 84.5711 45 82.5C45 80.4289 43.3211 78.75 41.25 78.75C39.1789 78.75 37.5 80.4289 37.5 82.5C37.5 84.5711 39.1789 86.25 41.25 86.25Z" fill="black"/>
<path d="M41.2499 90C37.8597 90 34.808 91.8027 33.1475 94.6793C35.3815 96.4398 38.1919 97.5 41.2499 97.5C44.3079 97.5 47.1183 96.4399 49.3523 94.6794C47.6918 91.8028 44.6401 90 41.2499 90Z" fill="black"/>
<path d="M41.25 71.25C34.0137 71.25 28.125 77.1387 28.125 84.375C28.125 87.1718 29.0119 89.7617 30.509 91.8938C31.8369 89.9794 33.6123 88.456 35.6892 87.4864C34.4971 86.1581 33.75 84.4217 33.75 82.5C33.75 78.3636 37.1136 75 41.25 75C45.3864 75 48.75 78.3636 48.75 82.5C48.75 84.4217 48.0029 86.1581 46.8108 87.4864C48.8877 88.456 50.6632 89.9794 51.9911 91.8938C53.4882 89.7617 54.375 87.1718 54.375 84.375C54.375 77.1387 48.4863 71.25 41.25 71.25Z" fill="#E97B08"/>
<path d="M78.9197 86.25H65.625C64.5886 86.25 63.75 85.4114 63.75 84.375C63.75 83.3386 64.5886 82.5 65.625 82.5H77.6002C77.2868 81.2854 77.0653 80.0347 76.959 78.75H65.625C64.5886 78.75 63.75 77.9114 63.75 76.875C63.75 75.8386 64.5886 75 65.625 75H76.9601C77.8124 64.7123 85.5971 56.3739 95.625 54.6937V18.75C95.625 14.6062 92.2688 11.25 88.125 11.25H20.625C16.4812 11.25 13.125 14.6062 13.125 18.75V105C13.125 109.144 16.4812 112.5 20.625 112.5H87.4125C87.375 111.6 87.4125 110.7 87.5625 109.8L89.6625 97.1812C84.9329 94.9045 81.1149 91.026 78.9197 86.25ZM65.625 30H82.5C83.5364 30 84.375 30.8386 84.375 31.875C84.375 32.9114 83.5364 33.75 82.5 33.75H65.625C64.5886 33.75 63.75 32.9114 63.75 31.875C63.75 30.8386 64.5886 30 65.625 30ZM65.625 37.5H82.5C83.5364 37.5 84.375 38.3386 84.375 39.375C84.375 40.4114 83.5364 41.25 82.5 41.25H65.625C64.5886 41.25 63.75 40.4114 63.75 39.375C63.75 38.3386 64.5886 37.5 65.625 37.5ZM65.625 45H73.125C74.1614 45 75 45.8386 75 46.875C75 47.9114 74.1614 48.75 73.125 48.75H65.625C64.5886 48.75 63.75 47.9114 63.75 46.875C63.75 45.8386 64.5886 45 65.625 45ZM53.0169 96.4476C52.9972 96.4681 52.9754 96.4846 52.9547 96.5041C49.9176 99.4359 45.7949 101.25 41.25 101.25C36.7051 101.25 32.5824 99.4359 29.5453 96.5041C29.5246 96.4846 29.5028 96.4681 29.4831 96.4476C26.3372 93.3807 24.375 89.1054 24.375 84.375C24.375 75.0696 31.9446 67.5 41.25 67.5C50.5554 67.5 58.125 75.0696 58.125 84.375C58.125 89.1054 56.1628 93.3807 53.0169 96.4476ZM53.0169 51.4476C52.9972 51.4681 52.9754 51.4846 52.9547 51.5041C49.9176 54.4359 45.7949 56.25 41.25 56.25C36.7051 56.25 32.5824 54.4359 29.5453 51.5041C29.5246 51.4846 29.5028 51.4681 29.4831 51.4476C26.3372 48.3807 24.375 44.1054 24.375 39.375C24.375 30.0696 31.9446 22.5 41.25 22.5C50.5554 22.5 58.125 30.0696 58.125 39.375C58.125 44.1054 56.1628 48.3807 53.0169 51.4476ZM71.25 93.75H65.625C64.5886 93.75 63.75 92.9114 63.75 91.875C63.75 90.8386 64.5886 90 65.625 90H71.25C72.2864 90 73.125 90.8386 73.125 91.875C73.125 92.9114 72.2864 93.75 71.25 93.75Z" fill="black"/>
<path d="M99.375 58.125C89.0356 58.125 80.625 66.5356 80.625 76.875C80.625 87.2143 89.0356 95.625 99.375 95.625C109.714 95.625 118.125 87.2143 118.125 76.875C118.125 66.5356 109.714 58.125 99.375 58.125ZM108.201 74.4507L98.8257 83.8257C98.4595 84.1919 97.9797 84.375 97.5 84.375C97.0203 84.375 96.5405 84.1919 96.1743 83.8257L90.5493 78.2007C89.8169 77.4683 89.8169 76.2817 90.5493 75.5493C91.2817 74.8169 92.4683 74.8169 93.2007 75.5493L97.5 79.8486L105.549 71.7993C106.282 71.0669 107.468 71.0669 108.201 71.7993C108.933 72.5317 108.933 73.7183 108.201 74.4507Z" fill="#E97B08"/>
</svg>
