<svg width="120" height="120" viewBox="0 0 120 120" fill="none" xmlns="http://www.w3.org/2000/svg">
<path d="M14.3261 98.2779C14.1582 97.631 14.0845 96.9642 14.1074 96.2976L14.845 74.292L11.2856 72.2679V102.289H15.9632C15.3872 101.553 14.9521 100.695 14.7064 99.7469L14.3261 98.2779Z" fill="#EC7715"/>
<path d="M18.9253 44.7L23.1342 29.4615C23.8588 26.8365 26.1738 24.9787 28.893 24.8388L60.0002 23.2365L91.1075 24.8388C93.8267 24.9787 96.1416 26.8365 96.8663 29.4615L101.075 44.7H107.809C108.118 44.7 108.42 44.73 108.715 44.7822V2.69781C108.715 1.2078 107.507 0 106.017 0H13.9835C12.4935 0 11.2856 1.20783 11.2856 2.69781V44.7822C11.58 44.73 11.8821 44.7 12.1916 44.7H18.9253Z" fill="#EC7715"/>
<path d="M105.893 96.2993C105.916 96.9642 105.842 97.6309 105.674 98.2787L105.294 99.7463C105.048 100.694 104.613 101.553 104.037 102.289H108.715V72.2682L105.155 74.292L105.893 96.2993Z" fill="#EC7715"/>
<path d="M15.0107 67.929L15.0573 67.9555L15.0592 67.8997C15.0424 67.9093 15.0278 67.9194 15.0107 67.929Z" fill="black"/>
<path d="M103.211 52.3024H103.175L103.211 52.4345V52.3024Z" fill="black"/>
<path d="M16.7891 52.3024V52.4346L16.8256 52.3024H16.7891Z" fill="black"/>
<path d="M104.941 67.8997L104.943 67.9555L104.99 67.929C104.973 67.9194 104.958 67.9093 104.941 67.8997Z" fill="black"/>
<path d="M11.4778 68.1397C11.0564 67.9002 10.7943 67.4623 10.7606 66.9832C12.9099 66.8721 14.8594 66.2794 14.8594 65.2013V51.4658C14.8594 50.388 12.9111 49.795 10.7618 49.6839C10.8354 48.9562 11.4447 48.3837 12.1916 48.3837H17.9078L18.3923 46.6295H12.1916C10.4711 46.6295 9.06751 47.9963 8.99956 49.7002C6.95985 49.8455 5.17139 50.4331 5.17139 51.4658V65.2012C5.17139 66.2337 6.95926 66.8212 8.99897 66.9669C9.02752 68.0827 9.63736 69.1114 10.611 69.6646L14.9179 72.1138L14.9843 70.1338L11.4778 68.1397Z" fill="black"/>
<path d="M107.809 48.3836C108.556 48.3836 109.165 48.9561 109.238 49.6838C107.089 49.7949 105.141 50.3879 105.141 51.4657V65.2012C105.141 66.2793 107.09 66.872 109.24 66.9831C109.206 67.4622 108.944 67.9001 108.522 68.14L105.016 70.1339L105.082 72.1138L109.389 69.6649C110.363 69.1113 110.973 68.0826 111.001 66.9668C113.041 66.8211 114.829 66.2336 114.829 65.2011V51.4657C114.829 50.4332 113.04 49.8454 111.001 49.7001C110.933 47.9961 109.529 46.6294 107.809 46.6294H101.608L102.092 48.3836L107.809 48.3836Z" fill="black"/>
<path d="M87.0161 120H97.8737C98.3485 120 98.7334 119.615 98.7334 119.14V109.994H102.23V103.906C101.155 104.575 99.8934 104.959 98.559 104.959H21.4418C20.1074 104.959 18.8462 104.575 17.771 103.906V109.994H21.2673V119.14C21.2673 119.615 21.6522 120 22.1271 120H32.9846C33.4594 120 33.8444 119.615 33.8444 119.14V109.994H86.1564V119.14C86.1563 119.615 86.5413 120 87.0161 120Z" fill="black"/>
<path d="M16.1936 97.7944L16.5743 99.2627C17.1493 101.48 19.1507 103.029 21.4418 103.029H60.0002H98.5585C100.85 103.029 102.851 101.48 103.426 99.2627L103.807 97.7944C103.928 97.3277 103.981 96.8459 103.965 96.364L102.709 58.8981C102.683 58.1158 102.564 57.3394 102.356 56.5849L95.0064 29.9752C94.504 28.1559 92.893 26.8628 91.008 26.7657L60.0002 25.1687L28.9923 26.7657C27.1074 26.8628 25.4964 28.1559 24.9939 29.9752L17.6446 56.5849C17.4362 57.3394 17.3176 58.1158 17.2914 58.8981L16.0356 96.364C16.0193 96.8459 16.0726 97.3277 16.1936 97.7944ZM48.9426 98.1496V93.1874C48.9426 92.8455 49.2197 92.5683 49.5616 92.5683H70.4386C70.7805 92.5683 71.0576 92.8455 71.0576 93.1874V98.1496C71.0576 98.4915 70.7805 98.7687 70.4386 98.7687H49.5616C49.2197 98.7687 48.9426 98.4915 48.9426 98.1496ZM98.0896 88.8955H82.656V87.5506H98.0896V88.8955ZM98.1605 76.7891V83.1907C98.1605 83.5184 97.8949 83.7839 97.5672 83.7839H83.2477C82.92 83.7839 82.6544 83.5184 82.6544 83.1907V76.7891C82.6544 76.4615 82.92 76.1959 83.2477 76.1959H97.5672C97.8949 76.1959 98.1605 76.4615 98.1605 76.7891ZM21.9105 88.8955V87.5506H37.3442V88.8955H21.9105ZM37.3458 83.1907C37.3458 83.5184 37.0802 83.7839 36.7526 83.7839H22.4329C22.1053 83.7839 21.8397 83.5184 21.8397 83.1907V76.7891C21.8397 76.4615 22.1053 76.1959 22.4329 76.1959H36.7525C37.0802 76.1959 37.3458 76.4615 37.3458 76.7891L37.3458 83.1907ZM28.2032 30.8615C28.3241 30.4242 28.7098 30.1143 29.1631 30.0909L60 28.5031L90.837 30.0909C91.2903 30.1143 91.6759 30.4242 91.7969 30.8619L99.1463 57.4713L20.8544 57.4703L28.2032 30.8615Z" fill="black"/>
<path d="M54.0068 30.3497H65.994V33.6794H54.0068V30.3497Z" fill="black"/>
<path d="M78.2752 51.3135C75.9078 51.3135 73.9781 53.2042 73.9058 55.5544H82.6446C82.5723 53.2042 80.6426 51.3135 78.2752 51.3135Z" fill="black"/>
<path d="M72.0316 55.5543C72.1045 52.1705 74.8743 49.4391 78.2753 49.4391C81.6763 49.4391 84.4461 52.1705 84.5191 55.5543H90.8894C90.1871 51.3848 88.9867 48.5678 87.2759 47.0548C86.2617 46.1576 85.28 45.8973 84.5988 45.8437C84.5038 45.8324 84.4077 45.8248 84.3096 45.8248H83.9366C82.4917 47.2829 80.4896 48.174 78.2841 48.174C78.0187 48.174 77.7497 48.1606 77.4843 48.1342C75.6242 47.9484 73.9258 47.1358 72.6267 45.8248H72.2408C72.1427 45.8248 72.0464 45.8324 71.9514 45.8437C71.2703 45.8973 70.2891 46.1577 69.2748 47.0549C67.564 48.568 66.3634 51.3851 65.6611 55.5544L72.0316 55.5543Z" fill="#EC7715"/>
<path d="M78.2752 47.2366C82.157 47.2366 85.3039 44.0898 85.3039 40.208C85.3039 36.3262 82.157 33.1793 78.2752 33.1793C74.3934 33.1793 71.2466 36.3262 71.2466 40.208C71.2466 44.0898 74.3934 47.2366 78.2752 47.2366Z" fill="black"/>
</svg>
