<svg width="220" height="120" viewBox="0 0 220 120" fill="none" xmlns="http://www.w3.org/2000/svg">
<path d="M55.2065 66.1204C56.5745 65.9424 67.7624 65.8164 81.0844 65.7344V63.4204C87.7423 63.4844 96.3223 63.5524 105.634 63.6164V41.3945H116.534V63.6904C146.64 63.8864 179.45 64.0504 179.45 64.0504L188.292 76.0463L187.492 82.2163L186.044 85.1703H86.0083L85.0484 86.1303H37.5505L32.2406 80.8203C32.2406 80.8203 51.7325 66.5724 55.2065 66.1184V66.1204Z" fill="#0E1316"/>
<path d="M59.7039 94.542C52.8997 94.542 47.3839 89.0262 47.3839 82.2221C47.3839 75.4179 52.8997 69.9021 59.7039 69.9021C66.508 69.9021 72.0238 75.4179 72.0238 82.2221C72.0238 89.0262 66.508 94.542 59.7039 94.542Z" fill="#273239"/>
<path d="M59.7039 94.542C52.8997 94.542 47.3839 89.0262 47.3839 82.2221C47.3839 75.4179 52.8997 69.9021 59.7039 69.9021C66.508 69.9021 72.0238 75.4179 72.0238 82.2221C72.0238 89.0262 66.508 94.542 59.7039 94.542Z" fill="#273239"/>
<g style="mix-blend-mode:overlay" opacity="0.3">
<path d="M59.7039 69.9041C66.5078 69.9041 72.0238 75.42 72.0238 82.224C72.0238 89.028 66.5078 94.544 59.7039 94.544C52.8999 94.544 47.3839 89.028 47.3839 82.224C47.3839 75.42 52.8999 69.9041 59.7039 69.9041ZM59.7039 93.562C65.9658 93.562 71.0418 88.486 71.0418 82.224C71.0418 75.962 65.9658 70.8861 59.7039 70.8861C53.4419 70.8861 48.3659 75.962 48.3659 82.224C48.3659 88.486 53.4419 93.562 59.7039 93.562Z" fill="black"/>
</g>
<path d="M59.7039 89.872C55.4789 89.872 52.0539 86.447 52.0539 82.2221C52.0539 77.9971 55.4789 74.5721 59.7039 74.5721C63.9289 74.5721 67.3539 77.9971 67.3539 82.2221C67.3539 86.447 63.9289 89.872 59.7039 89.872Z" fill="#BBC5CD"/>
<g style="mix-blend-mode:overlay" opacity="0.6">
<path d="M59.7037 80.4578C60.6777 80.4578 61.4677 81.2478 61.4677 82.2217C61.4677 83.1957 60.6777 83.9858 59.7037 83.9858C58.7297 83.9858 57.9397 83.1957 57.9397 82.2217C57.9397 81.2478 58.7297 80.4578 59.7037 80.4578Z" fill="black"/>
</g>
<path d="M59.7039 78.746C59.9439 78.746 60.1399 78.94 60.1399 79.182C60.1399 79.424 59.9459 79.6181 59.7039 79.6181C59.4619 79.6181 59.2679 79.424 59.2679 79.182C59.2679 78.94 59.4619 78.746 59.7039 78.746Z" fill="#273239"/>
<g style="mix-blend-mode:overlay" opacity="0.6">
<path d="M59.704 84.5544C59.944 84.5544 60.14 85.2764 60.14 86.1664C60.14 87.0564 59.946 87.7784 59.704 87.7784C59.462 87.7784 59.268 87.0564 59.268 86.1664C59.268 85.2764 59.462 84.5544 59.704 84.5544Z" fill="black"/>
</g>
<g style="mix-blend-mode:overlay" opacity="0.6">
<path d="M57.4881 82.9424C57.5621 83.1704 56.9361 83.5804 56.0881 83.8544C55.2421 84.1304 54.4941 84.1664 54.4201 83.9384C54.3461 83.7104 54.9721 83.3004 55.8201 83.0264C56.6661 82.7504 57.4141 82.7144 57.4881 82.9424Z" fill="black"/>
</g>
<g style="mix-blend-mode:overlay" opacity="0.6">
<path d="M58.3339 80.3381C58.1399 80.4801 57.5579 80.0101 57.0339 79.2901C56.5099 78.5701 56.2439 77.8701 56.4379 77.7301C56.6319 77.5881 57.2139 78.0581 57.7379 78.7781C58.2619 79.4981 58.5279 80.1981 58.3339 80.3381Z" fill="black"/>
</g>
<g style="mix-blend-mode:overlay" opacity="0.6">
<path d="M61.0738 80.3381C60.8798 80.1961 61.1458 79.4981 61.6698 78.7781C62.1938 78.0581 62.7758 77.5881 62.9698 77.7301C63.1638 77.8721 62.8978 78.5701 62.3738 79.2901C61.8498 80.0101 61.2678 80.4801 61.0738 80.3381Z" fill="black"/>
</g>
<g style="mix-blend-mode:overlay" opacity="0.6">
<path d="M61.9196 82.9418C61.9936 82.7138 62.7416 82.7517 63.5876 83.0257C64.4336 83.3017 65.0616 83.7097 64.9876 83.9377C64.9136 84.1657 64.1656 84.1278 63.3196 83.8538C62.4736 83.5778 61.8456 83.1698 61.9196 82.9418Z" fill="black"/>
</g>
<path d="M63.0117 81.1478C63.0857 81.3758 62.9617 81.6218 62.7317 81.6958C62.5037 81.7698 62.2577 81.6458 62.1837 81.4158C62.1097 81.1878 62.2337 80.9418 62.4637 80.8678C62.6917 80.7938 62.9377 80.9178 63.0117 81.1478Z" fill="#273239"/>
<path d="M61.7478 85.036C61.5538 85.178 61.2818 85.134 61.1398 84.94C60.9978 84.746 61.0418 84.474 61.2358 84.332C61.4298 84.19 61.7018 84.234 61.8438 84.428C61.9858 84.622 61.9418 84.894 61.7478 85.036Z" fill="#273239"/>
<path d="M57.6599 85.036C57.4659 84.894 57.4219 84.622 57.5639 84.428C57.7059 84.234 57.9779 84.19 58.1719 84.332C58.3659 84.474 58.4099 84.746 58.2679 84.94C58.1259 85.134 57.8539 85.178 57.6599 85.036Z" fill="#273239"/>
<path d="M56.3958 81.1476C56.4698 80.9196 56.7158 80.7936 56.9438 80.8676C57.1718 80.9416 57.2978 81.1876 57.2238 81.4156C57.1498 81.6436 56.9038 81.7696 56.6758 81.6956C56.4478 81.6216 56.3218 81.3756 56.3958 81.1476Z" fill="#273239"/>
<path d="M59.7039 76.4177C61.0279 76.4137 61.9659 77.0437 61.8679 77.2217C61.7799 77.4137 60.8379 77.1537 59.7039 77.1657C58.5719 77.1557 57.6299 77.4137 57.5399 77.2217C57.4419 77.0457 58.3779 76.4137 59.7039 76.4177Z" fill="#273239"/>
<path d="M65.2259 80.4301C65.6399 81.6881 65.3279 82.7741 65.1299 82.7361C64.9199 82.7101 64.8759 81.7361 64.5159 80.6621C64.1759 79.5821 63.6399 78.7661 63.7939 78.6221C63.9319 78.4741 64.8219 79.1701 65.2259 80.4301Z" fill="#273239"/>
<path d="M63.1158 86.9201C62.0478 87.7021 60.9178 87.7421 60.8938 87.5421C60.8538 87.3361 61.7678 86.9901 62.6778 86.3161C63.5998 85.6581 64.2098 84.8961 64.3938 84.9981C64.5778 85.0821 64.1898 86.1441 63.1158 86.9201Z" fill="#273239"/>
<path d="M56.2918 86.9201C55.2178 86.1461 54.8318 85.0841 55.0138 84.9981C55.1978 84.8961 55.8078 85.6581 56.7298 86.3161C57.6398 86.9901 58.5537 87.3341 58.5137 87.5421C58.4897 87.7421 57.3598 87.7021 56.2918 86.9201Z" fill="#273239"/>
<path d="M54.1818 80.4281C54.5878 79.1681 55.4778 78.4721 55.6138 78.6201C55.7678 78.7641 55.2318 79.5801 54.8918 80.6601C54.5318 81.7341 54.4858 82.7101 54.2778 82.7341C54.0798 82.7741 53.7679 81.6861 54.1818 80.4281Z" fill="#273239"/>
<g style="mix-blend-mode:overlay" opacity="0.6">
<path d="M59.7039 75.9881C63.1478 75.9881 65.9398 78.7801 65.9398 82.2241C65.9398 85.6681 63.1478 88.46 59.7039 88.46C56.2599 88.46 53.4679 85.6681 53.4679 82.2241C53.4679 78.7801 56.2599 75.9881 59.7039 75.9881ZM59.7039 86.72C62.1878 86.72 64.2018 84.7061 64.2018 82.2221C64.2018 79.7381 62.1878 77.7241 59.7039 77.7241C57.2199 77.7241 55.2059 79.7381 55.2059 82.2221C55.2059 84.7061 57.2199 86.72 59.7039 86.72Z" fill="black"/>
</g>
<g style="mix-blend-mode:overlay" opacity="0.3">
<path d="M59.7037 72.6658C64.9817 72.6658 69.2596 76.9437 69.2596 82.2217C69.2596 87.4997 64.9817 91.7777 59.7037 91.7777C54.4257 91.7777 50.1477 87.4997 50.1477 82.2217C50.1477 76.9437 54.4257 72.6658 59.7037 72.6658ZM59.7037 89.3197C63.6237 89.3197 66.8017 86.1417 66.8017 82.2217C66.8017 78.3017 63.6237 75.1237 59.7037 75.1237C55.7837 75.1237 52.6057 78.3017 52.6057 82.2217C52.6057 86.1417 55.7837 89.3197 59.7037 89.3197Z" fill="white"/>
</g>
<path d="M28.9519 72.1578V57.8519L31.5059 27.534L33.0959 26.002H110.318L112.902 28.586V83.4438H73.7757C73.6138 81.8998 73.4857 80.6778 73.4677 80.5398C73.4317 80.2398 73.3258 79.6198 73.3258 79.6198C72.1058 73.2078 66.4738 68.3578 59.7058 68.3578C52.9378 68.3578 47.0678 73.4118 46.0118 80.0238L45.5759 83.4438H29.3779L28.1859 81.9538V73.7778L28.9519 72.1598V72.1578Z" fill="#E97B08"/>
<path d="M112.9 83.4423H73.774C73.612 81.8983 73.484 80.6763 73.466 80.5383C73.46 80.4883 73.452 80.4283 73.442 80.3643H112.898V83.4423H112.9Z" fill="#303D49"/>
<path d="M28.9525 72.1583V71.5583H40.4145L46.9185 76.8563C46.4985 77.8583 46.1885 78.9183 46.0125 80.0223L45.5765 83.4423H29.3785L28.1865 81.9523V73.7763L28.9525 72.1583Z" fill="#303D49"/>
<g style="mix-blend-mode:overlay" opacity="0.3">
<path d="M28.9525 71.5583H40.4145L46.9185 76.8563C46.8045 77.1263 46.7005 77.4023 46.6045 77.6803L40.8565 73.7763H28.1865L28.9525 72.1583V71.5583Z" fill="white"/>
</g>
<path d="M28.9519 57.85L29.418 52.326H112.9V58.23H28.9519V57.85Z" fill="#010066"/>
<path d="M86.0944 33.6943H98.2583V41.4443H86.0944V33.6943Z" fill="#303D49"/>
<g style="mix-blend-mode:overlay" opacity="0.3">
<path d="M75.4778 29.436H31.3459L31.4179 28.584H112.9V29.436H108.874V79.9378H112.9V80.7898H73.4958C73.4818 80.6578 73.4718 80.5698 73.4678 80.5378C73.4478 80.3798 73.4098 80.1358 73.3778 79.9378H75.4778V29.436ZM76.3298 79.9378H108.024V29.436H76.3298V79.9378Z" fill="black"/>
</g>
<g style="mix-blend-mode:overlay" opacity="0.3">
<path d="M40.5118 71.1639L47.1118 76.4078C46.9878 76.6738 46.8738 76.9458 46.7678 77.2218L40.2138 72.0139H28.9519V71.1619H40.5118V71.1639Z" fill="black"/>
</g>
<path d="M28.9519 62.1045L28.9959 61.9705L36.3579 64.0125V69.3905H28.9519V62.1045Z" fill="#DD3225"/>
<path d="M34.0499 66.5584C34.5199 66.5584 34.9019 66.9404 34.9019 67.4104C34.9019 67.8804 34.5199 68.2624 34.0499 68.2624H28.9519V66.5584H34.0499Z" fill="#BBC5CD"/>
<g style="mix-blend-mode:overlay" opacity="0.3">
<path d="M31.382 29.01L31.5059 27.534L33.0959 26H110.318L112.9 28.584V83.4418H111.14V29.01H31.382Z" fill="white"/>
</g>
<g style="mix-blend-mode:overlay" opacity="0.3">
<path d="M29.316 53.5184H112.9V60.8704H28.9519V57.8504L29.316 53.5184Z" fill="white"/>
</g>
<g style="mix-blend-mode:overlay" opacity="0.3">
<path d="M112.9 83.4423H73.774C73.612 81.8983 73.484 80.6763 73.466 80.5383C73.46 80.4883 73.452 80.4283 73.442 80.3643H112.898V83.4423H112.9Z" fill="black"/>
</g>
<g style="mix-blend-mode:overlay" opacity="0.3">
<path d="M28.9519 72.1578V57.8519L31.5059 27.534L33.0959 26.002H34.9499C34.0919 27.2619 33.132 28.766 33.132 28.766V29.438H112.9V30.1999H33.132L31.0019 60.8718L31.3459 71.1658L30.4199 74.1958V80.8498H45.9039L45.5739 83.4438H29.376L28.184 81.9538V73.7778L28.9499 72.1598L28.9519 72.1578Z" fill="black"/>
</g>
<g style="mix-blend-mode:overlay" opacity="0.3">
<path d="M98.2583 33.6943V41.4443H86.0944V33.6943H98.2583ZM86.6284 39.9743L87.5284 40.8743H96.7583L97.5363 40.0963V34.8583L96.8983 34.2703H87.2184L86.6304 34.8583V39.9723L86.6284 39.9743Z" fill="black"/>
</g>
<g style="mix-blend-mode:overlay" opacity="0.5">
<path d="M88.5123 33.6943L93.3983 41.4443H98.2583V33.6943H88.5123ZM86.0944 35.2863L89.9763 41.4443H86.0944V35.2863Z" fill="white"/>
</g>
<path d="M116.002 38.8203H133.56L155.944 54.8723L189.944 60.3863L192 63.0282L191.754 78.7302L188.588 83.4422H180.918C180.656 80.8822 180.2 76.5262 180.17 76.2702C180.138 76.0002 180.042 75.4422 180.042 75.4422C178.944 69.6722 173.878 65.3103 167.788 65.3103C161.698 65.3103 156.42 69.8562 155.47 75.8062L154.496 83.4422H114.516V40.3103L116.004 38.8223L116.002 38.8203Z" fill="#E97B08"/>
<path d="M114.514 80.4922H154.87L154.494 83.4422H114.514V80.4922Z" fill="#303D49"/>
<path d="M191.753 78.7278L188.587 83.4398H180.917C180.655 80.8798 180.199 76.5238 180.169 76.2678C180.137 75.9978 180.041 75.4398 180.041 75.4398C179.827 74.3158 179.461 73.2438 178.967 72.2478H191.857L191.755 78.7278H191.753Z" fill="#303D49"/>
<path d="M114.514 57.7441H145.304L189.102 62.0881L192 63.0261H114.514V57.7441Z" fill="#010066"/>
<path d="M192 63.0263L191.916 68.3883H187.15L185.65 65.1063H181.302L179.45 61.2684L191.16 61.9463L192 63.0263Z" fill="#7C8B9B"/>
<path d="M155.943 54.8723L152.556 56.1983L135.548 42.1344L136.804 41.1484L155.943 54.8723Z" fill="#303D49"/>
<path d="M117.316 43.1406H132.085L145.819 56.1985L145.303 57.7445H117.316V43.1406Z" fill="#303D49"/>
<g style="mix-blend-mode:overlay" opacity="0.3">
<path d="M117.316 43.1406H119.472V56.8365H140.825V53.4005C140.825 53.4005 133.374 45.0546 131.622 43.1406H132.088L145.819 56.1985L145.303 57.7445H117.316V43.1406Z" fill="black"/>
</g>
<g style="mix-blend-mode:overlay" opacity="0.5">
<path d="M120.41 43.1406H132.086L133.17 44.1705L141.726 57.7445H129.616L120.41 43.1406Z" fill="white"/>
<path d="M117.316 51.7706V44.2306L125.836 57.7446H121.082L117.316 51.7706Z" fill="white"/>
</g>
<path d="M167.785 89.4508C161.343 89.4508 156.121 84.2287 156.121 77.7868C156.121 71.345 161.343 66.1229 167.785 66.1229C174.227 66.1229 179.449 71.345 179.449 77.7868C179.449 84.2287 174.227 89.4508 167.785 89.4508Z" fill="#273239"/>
<path d="M167.785 89.4508C161.343 89.4508 156.121 84.2287 156.121 77.7868C156.121 71.345 161.343 66.1229 167.785 66.1229C174.227 66.1229 179.449 71.345 179.449 77.7868C179.449 84.2287 174.227 89.4508 167.785 89.4508Z" fill="#303D49"/>
<g style="mix-blend-mode:overlay" opacity="0.3">
<path d="M167.785 66.1229C174.227 66.1229 179.449 71.3449 179.449 77.7868C179.449 84.2288 174.227 89.4508 167.785 89.4508C161.343 89.4508 156.121 84.2288 156.121 77.7868C156.121 71.3449 161.343 66.1229 167.785 66.1229ZM167.785 88.5228C173.713 88.5228 178.521 83.7168 178.521 77.7868C178.521 71.8569 173.715 67.0509 167.785 67.0509C161.855 67.0509 157.049 71.8569 157.049 77.7868C157.049 83.7168 161.855 88.5228 167.785 88.5228Z" fill="black"/>
</g>
<path d="M159.247 79.7832C158.133 75.0639 161.056 70.3351 165.775 69.2212C170.494 68.1073 175.223 71.0302 176.337 75.7495C177.451 80.4689 174.528 85.1977 169.809 86.3116C165.089 87.4255 160.361 84.5026 159.247 79.7832Z" fill="#BBC5CD"/>
<g style="mix-blend-mode:overlay" opacity="0.6">
<path d="M167.785 75.6989C168.939 75.6989 169.873 76.6329 169.873 77.7869C169.873 78.9409 168.939 79.8748 167.785 79.8748C166.631 79.8748 165.697 78.9409 165.697 77.7869C165.697 76.6329 166.631 75.6989 167.785 75.6989Z" fill="black"/>
</g>
<path d="M166.991 79.1948C167.091 79.1948 167.187 79.1468 167.245 79.0648C167.295 78.9968 167.315 78.9148 167.301 78.8308C167.287 78.7468 167.243 78.6748 167.175 78.6248C167.121 78.5868 167.057 78.5648 166.991 78.5648C166.891 78.5648 166.795 78.6128 166.737 78.6948C166.635 78.8348 166.667 79.0308 166.807 79.1328C166.861 79.1728 166.925 79.1928 166.991 79.1928V79.1948ZM168.579 79.1948C168.645 79.1948 168.709 79.1748 168.763 79.1348C168.903 79.0328 168.935 78.8348 168.833 78.6948C168.775 78.6128 168.679 78.5648 168.579 78.5648C168.513 78.5648 168.449 78.5848 168.395 78.6248C168.327 78.6748 168.283 78.7468 168.269 78.8308C168.255 78.9148 168.275 78.9968 168.325 79.0648C168.383 79.1468 168.479 79.1948 168.579 79.1948ZM166.499 77.6828C166.635 77.6828 166.755 77.5968 166.797 77.4668C166.851 77.3028 166.759 77.1248 166.595 77.0708C166.563 77.0608 166.531 77.0548 166.497 77.0548C166.361 77.0548 166.241 77.1408 166.199 77.2708C166.173 77.3508 166.179 77.4348 166.217 77.5108C166.255 77.5868 166.319 77.6408 166.399 77.6668C166.431 77.6768 166.463 77.6828 166.497 77.6828H166.499ZM169.069 77.6828C169.101 77.6828 169.135 77.6768 169.167 77.6668C169.247 77.6408 169.311 77.5848 169.349 77.5108C169.387 77.4368 169.393 77.3508 169.367 77.2708C169.325 77.1408 169.205 77.0548 169.069 77.0548C169.037 77.0548 169.003 77.0608 168.971 77.0708C168.807 77.1248 168.715 77.3028 168.769 77.4668C168.811 77.5968 168.931 77.6828 169.067 77.6828H169.069ZM167.785 76.7488C167.959 76.7488 168.099 76.6088 168.099 76.4348C168.099 76.2608 167.959 76.1208 167.785 76.1208C167.611 76.1208 167.471 76.2608 167.471 76.4348C167.471 76.6088 167.611 76.7488 167.785 76.7488Z" fill="#273239"/>
<path d="M167.175 83.2723C167.175 84.5183 167.447 85.5303 167.785 85.5303C168.123 85.5303 168.395 84.5203 168.395 83.2723C168.395 82.0243 168.123 81.0143 167.785 81.0143C167.447 81.0143 167.175 82.0243 167.175 83.2723ZM164.683 78.7624C164.787 79.0824 163.909 79.6544 162.725 80.0404C161.539 80.4264 160.493 80.4784 160.389 80.1584C160.285 79.8384 161.163 79.2664 162.347 78.8804C163.533 78.4944 164.579 78.4424 164.683 78.7624ZM165.867 75.1544C165.595 75.3524 164.779 74.6944 164.047 73.6864C163.315 72.6784 162.941 71.7004 163.213 71.5024C163.485 71.3044 164.301 71.9624 165.033 72.9704C165.765 73.9784 166.139 74.9564 165.867 75.1544ZM169.703 75.1144C169.431 74.9164 169.805 73.9384 170.537 72.9304C171.269 71.9224 172.085 71.2644 172.357 71.4624C172.629 71.6604 172.255 72.6384 171.523 73.6464C170.791 74.6544 169.975 75.3124 169.703 75.1144ZM170.887 78.7624C170.991 78.4424 172.037 78.4944 173.223 78.8804C174.409 79.2664 175.285 79.8384 175.181 80.1584C175.077 80.4784 174.031 80.4264 172.845 80.0404C171.659 79.6544 170.783 79.0824 170.887 78.7624ZM167.785 74.4924C167.449 74.4924 167.175 73.4824 167.175 72.2344C167.175 70.9864 167.447 69.9764 167.785 69.9764C168.123 69.9764 168.395 70.9864 168.395 72.2344C168.395 73.4824 168.123 74.4924 167.785 74.4924ZM170.887 76.7464C170.783 76.4264 171.661 75.8544 172.845 75.4684C174.029 75.0824 175.077 75.0304 175.181 75.3504C175.285 75.6704 174.407 76.2424 173.223 76.6284C172.039 77.0144 170.991 77.0664 170.887 76.7464ZM169.703 80.3924C169.975 80.1944 170.791 80.8523 171.523 81.8603C172.255 82.8683 172.629 83.8464 172.357 84.0444C172.085 84.2424 171.269 83.5843 170.537 82.5763C169.805 81.5683 169.431 80.5904 169.703 80.3924ZM165.867 80.3924C166.139 80.5904 165.765 81.5683 165.033 82.5763C164.301 83.5843 163.485 84.2424 163.213 84.0444C162.941 83.8464 163.315 82.8683 164.047 81.8603C164.779 80.8523 165.595 80.1944 165.867 80.3924ZM164.683 76.7864C164.579 77.1064 163.533 77.0544 162.347 76.6684C161.161 76.2824 160.285 75.7104 160.389 75.3904C160.493 75.0704 161.539 75.1224 162.725 75.5084C163.911 75.8944 164.787 76.4664 164.683 76.7864Z" fill="#273239"/>
<g style="mix-blend-mode:overlay" opacity="0.3">
<path d="M167.785 67.7969C173.303 67.7969 177.775 72.2689 177.775 77.7869C177.775 83.3048 173.303 87.7768 167.785 87.7768C162.267 87.7768 157.795 83.3048 157.795 77.7869C157.795 72.2689 162.267 67.7969 167.785 67.7969ZM167.785 85.9588C172.299 85.9588 175.957 82.3008 175.957 77.7869C175.957 73.2729 172.299 69.6149 167.785 69.6149C163.271 69.6149 159.613 73.2729 159.613 77.7869C159.613 82.3008 163.271 85.9588 167.785 85.9588Z" fill="white"/>
</g>
<g style="mix-blend-mode:overlay" opacity="0.3">
<path d="M152.332 83.4418L153.34 75.5338L153.35 75.4678C154.488 68.3398 160.56 63.1658 167.786 63.1658C175.012 63.1658 180.838 68.1598 182.146 75.0418L182.152 75.0798C182.17 75.1818 182.258 75.7058 182.296 76.0138C182.302 76.0718 182.8 80.7538 183.07 83.4438H180.914C180.652 80.8838 180.196 76.5278 180.164 76.2718C180.132 76.0018 180.036 75.4438 180.036 75.4438C178.938 69.6738 173.872 65.3118 167.782 65.3118C161.692 65.3118 156.414 69.8578 155.464 75.8078L154.49 83.4438H152.328L152.332 83.4418Z" fill="white"/>
</g>
<g style="mix-blend-mode:overlay" opacity="0.3">
<path d="M191.849 72.59H179.125C179.019 72.36 178.909 72.132 178.789 71.908H191.859L191.849 72.59Z" fill="black"/>
</g>
<g style="mix-blend-mode:overlay" opacity="0.3">
<path d="M114.514 80.2033H117.02V41.6635H114.514V40.9814H132.81L150.616 57.4454V80.2033H154.908L154.822 80.8853H114.516V80.2033H114.514ZM117.702 80.2033H149.934V57.7434L132.544 41.6635H117.702V80.2033Z" fill="black"/>
</g>
<path d="M139.014 54.5106L144.09 56.1206V57.0066H138.14L139.014 54.5106Z" fill="#1B2328"/>
<path d="M138.767 51.5888C138.767 51.6528 140.487 55.4828 140.487 55.4828V56.1968C140.487 56.1968 139.695 56.9748 139.627 56.9968C139.559 57.0188 136.257 56.9968 136.257 56.9968L136.775 51.5868H138.767V51.5888Z" fill="#1B2328"/>
<g style="mix-blend-mode:overlay" opacity="0.3">
<path d="M138.759 56.9987C138.815 56.9787 139.463 56.2407 139.463 56.2407V55.5647C139.463 55.5647 138.055 51.9367 138.055 51.8747H136.747L136.775 51.5887H138.767C138.767 51.6527 140.487 55.4827 140.487 55.4827V56.1967C140.487 56.1967 139.695 56.9747 139.627 56.9967C139.599 57.0067 138.747 57.0027 138.759 56.9967V56.9987Z" fill="white"/>
</g>
<g style="mix-blend-mode:overlay" opacity="0.3">
<path d="M132.67 41.3963H114.514V40.3083L116.002 38.8203H133.56L155.944 54.8723L189.944 60.3863L192 63.0262L191.754 78.7282L188.586 83.4422H187.984L190.296 78.3002L190.012 65.0722L188.292 63.1202L178.998 62.0883H114.514V59.2363H151.574L151.49 58.7703L132.67 41.3963Z" fill="white"/>
</g>
<g style="mix-blend-mode:overlay" opacity="0.3">
<path d="M122.708 63.6542C121.225 63.6542 120.022 62.8053 120.022 61.7582C120.022 60.711 121.225 59.8622 122.708 59.8622C124.192 59.8622 125.394 60.711 125.394 61.7582C125.394 62.8053 124.192 63.6542 122.708 63.6542Z" fill="black"/>
</g>
<path d="M120.136 60.9562H125.28C125.722 60.9562 126.082 61.3142 126.082 61.7582C126.082 62.2022 125.724 62.5602 125.28 62.5602H120.136C119.694 62.5602 119.334 62.2022 119.334 61.7582C119.334 61.3142 119.692 60.9562 120.136 60.9562Z" fill="#303D49"/>
<g style="mix-blend-mode:overlay" opacity="0.3">
<path d="M81.661 60.1258C80.1776 60.1258 78.9751 59.2769 78.9751 58.2298C78.9751 57.1827 80.1776 56.3338 81.661 56.3338C83.1445 56.3338 84.347 57.1827 84.347 58.2298C84.347 59.2769 83.1445 60.1258 81.661 60.1258Z" fill="black"/>
</g>
<path d="M79.0883 57.4277H84.2323C84.6743 57.4277 85.0343 57.7857 85.0343 58.2297C85.0343 58.6737 84.6763 59.0317 84.2323 59.0317H79.0883C78.6463 59.0317 78.2863 58.6737 78.2863 58.2297C78.2863 57.7857 78.6443 57.4277 79.0883 57.4277Z" fill="#303D49"/>
<g style="mix-blend-mode:overlay" opacity="0.3">
<path d="M188.585 83.4423H180.915C180.853 82.8423 180.781 82.1443 180.707 81.4223H189.943L188.587 83.4423H188.585Z" fill="black"/>
</g>
<g style="mix-blend-mode:overlay" opacity="0.3">
<path d="M114.514 80.2043H154.905L154.493 83.4423H114.514V80.2043Z" fill="black"/>
</g>
<g style="mix-blend-mode:overlay" opacity="0.3">
<path d="M114.514 67.2734H153.63L151.89 72.5894H114.514V67.2734Z" fill="black"/>
</g>
<g style="mix-blend-mode:overlay" opacity="0.3">
<path d="M73.8257 67.2742H109.214H112.944V72.5902H109.214H75.5657H74.1837L69.4178 67.2742H73.8257Z" fill="black"/>
</g>
<g style="mix-blend-mode:overlay" opacity="0.3">
<path d="M117.266 38.8203L115.91 40.2443V83.4422H114.514V40.3083L116.002 38.8203H117.266Z" fill="black"/>
</g>
</svg>
