<svg width="220" height="120" viewBox="0 0 220 120" fill="none" xmlns="http://www.w3.org/2000/svg">
<g clip-path="url(#clip0_187_593)">
<path d="M85.4955 99.106C86.2749 99.6986 87.191 99.9845 88.1001 99.9845C89.4014 99.9845 90.6882 99.3975 91.5363 98.2814L101.745 84.8447C102.355 84.0425 102.664 83.052 102.619 82.0452L102.367 76.3593L93.3546 67.7684L93.936 80.8698L84.6708 93.0652C83.2302 94.9611 83.5996 97.6658 85.4955 99.106Z" fill="#010066"/>
<path d="M100.557 38.4802C99.8029 37.69 98.8661 37.1765 97.8042 37.1092C94.7757 36.9185 90.8656 39.26 90.0679 44.5403C89.0136 51.8068 89.3336 56.3529 91.592 63.7284C91.8386 64.3578 92.1111 64.9083 92.4042 65.3922C92.6225 65.8381 92.9174 66.2554 93.2975 66.6179L93.6227 66.928C93.6531 66.957 93.6834 66.987 93.7138 67.0149L106.978 79.6587L111.161 96.714C111.643 98.6816 113.405 99.9991 115.345 99.9991C115.684 99.9991 116.03 99.9584 116.375 99.8739C118.687 99.3065 120.103 96.9723 119.535 94.6598L115.051 76.3805C114.855 75.5814 114.435 74.8547 113.839 74.287L104.289 65.1839C104.3 64.462 104.167 63.5494 103.882 62.3823C103.421 60.9662 103.1 59.4614 102.878 57.9246L102.299 57.828C101.277 57.6576 100.382 57.052 99.8456 56.1663L93.8162 46.2261C93.324 45.4146 93.1771 44.4603 93.403 43.5387C93.6289 42.6172 94.2004 41.8384 95.0116 41.3462C95.5669 41.0093 96.2032 40.831 96.8506 40.831C98.1046 40.831 99.2414 41.4704 99.8908 42.5413L105.075 51.0877L118.748 53.3668C120.68 53.6889 121.989 55.5227 121.668 57.4548C121.381 59.1751 119.909 60.4237 118.167 60.4237C117.972 60.4237 117.774 60.4074 117.58 60.3747L108.092 58.7933L108.708 62.1543C108.907 63.2408 109.95 63.9602 111.036 63.7611L134.241 59.5087C135.328 59.3096 136.047 58.2675 135.848 57.181L131.596 33.9758C131.396 32.8894 130.354 32.17 129.268 32.3691L106.063 36.6215C104.976 36.8206 104.257 37.8627 104.456 38.9492L105.978 47.2553L105.746 47.187L103.271 42.8558L101.205 39.2424C101.033 38.9416 100.811 38.6878 100.557 38.4802Z" fill="#010066"/>
<path d="M99.3657 35.2354C103.493 34.0868 105.908 29.81 104.759 25.6828C103.61 21.5556 99.3335 19.1409 95.2062 20.2895C91.079 21.4381 88.6644 25.715 89.813 29.8422C90.9616 33.9694 95.2384 36.384 99.3657 35.2354Z" fill="#010066"/>
<path d="M117.71 59.5933C117.864 59.6189 118.016 59.6313 118.167 59.6313C119.491 59.6313 120.66 58.6749 120.885 57.3253C121.136 55.8223 120.121 54.4006 118.617 54.1499L104.585 51.8112L99.2127 42.9533C98.4226 41.6506 96.7254 41.235 95.4231 42.0252C94.1201 42.8157 93.7045 44.5122 94.495 45.8152L100.524 55.7554C100.941 56.4427 101.637 56.9139 102.429 57.046L117.71 59.5933Z" fill="#010066"/>
</g>
<defs>
<clipPath id="clip0_187_593">
<rect width="80" height="80" fill="white" transform="translate(70 20)"/>
</clipPath>
</defs>
</svg>
