<svg width="120" height="114" viewBox="0 0 120 114" fill="none" xmlns="http://www.w3.org/2000/svg">
<path d="M61.0793 47.1871H0V53.7227H5.22197V113.144H48.4035V53.7227H61.0793V47.1871Z" fill="#010002"/>
<path d="M92.665 76.8593C92.6762 76.8593 92.6965 76.8666 92.7097 76.8666C100.675 77.0986 105.222 74.7245 105.927 68.414L109.158 39.3572C109.76 33.9434 105.444 29.8125 101.131 28.2321L101.096 28.2208C101.096 28.2208 99.5584 27.7207 98.1522 27.5289C96.6864 27.3335 95.2436 27.5977 95.2436 27.5977C91.8748 27.9905 88.547 30.3727 88.547 30.3727C82.3513 34.7854 72.7464 35.7388 59.9782 33.2032C56.766 32.5569 53.6434 34.6539 53.0054 37.8648C52.3672 41.0764 54.4541 44.1971 57.6668 44.8356C63.0195 45.9029 67.998 46.4309 72.5905 46.4309C76.7642 46.4309 80.5135 45.9688 84.0379 45.0898L84.0099 45.4997L81.9508 64.0193C71.1648 64.4089 64.3696 66.631 61.7062 70.6673C58.104 76.1523 52.2513 98.2654 50.5445 105.049C49.6623 108.553 51.7919 112.109 55.2966 112.993C55.8297 113.127 56.3676 113.194 56.8973 113.194C59.8259 113.194 62.4969 111.213 63.2425 108.245C66.2504 96.2958 70.4062 83.9103 72.3039 79.9892C73.876 76.579 84.2768 76.3975 92.665 76.8593Z" fill="#010002"/>
<path d="M96.5843 26.7911C103.902 26.7911 109.833 20.8594 109.833 13.5422C109.833 6.22507 103.902 0.293335 96.5843 0.293335C89.2672 0.293335 83.3354 6.22507 83.3354 13.5422C83.3354 20.8594 89.2672 26.7911 96.5843 26.7911Z" fill="#010002"/>
<path d="M118.24 64.0068L120 41.1938C120.005 41.0644 119.956 40.9388 119.866 40.8456C119.776 40.7524 119.653 40.6997 119.523 40.6997H112.282C112.025 40.6997 111.814 40.9032 111.805 41.1603L110.169 63.99C109.953 71.0286 107.88 79.6852 96.0575 79.6852C95.8899 79.6852 82.9843 79.6562 82.9843 79.6562H82.984C82.8572 79.6562 82.7362 79.7064 82.6464 79.7957C82.5571 79.8853 82.5066 80.007 82.5066 80.1336V87.1878C82.5066 87.4516 82.7203 87.6653 82.984 87.6653L94.852 87.6648V103.879H91.1259C86.2479 103.879 82.127 108.162 82.127 113.23C82.127 113.493 82.3407 113.707 82.6042 113.707H87.3045C87.5683 113.707 87.782 113.493 87.782 113.23C87.782 111.365 89.3122 109.79 91.1239 109.79H106.577C108.39 109.79 109.921 111.365 109.921 113.23C109.921 113.493 110.135 113.707 110.399 113.707H115.101C115.364 113.707 115.578 113.493 115.578 113.23C115.578 108.162 111.456 103.879 106.577 103.879H102.854V86.795C114.508 86.4801 117.212 74.9321 118.24 64.0068Z" fill="#E97B08"/>
<path d="M49.6567 40.2206H27.2803L19.7069 12.4676C19.6535 12.2724 19.4525 12.157 19.2575 12.2109L15.2193 13.3127C15.1256 13.3383 15.0461 13.4 14.998 13.4842C14.9497 13.5686 14.937 13.6684 14.9627 13.7621L23.4507 44.8656C23.4941 45.0246 23.6388 45.1351 23.8037 45.1351H49.6569C49.8592 45.1351 50.0229 44.9714 50.0229 44.7692V40.5863C50.0226 40.3843 49.8589 40.2206 49.6567 40.2206Z" fill="#E97B08"/>
</svg>
