<svg width="120" height="102" viewBox="0 0 120 102" fill="none" xmlns="http://www.w3.org/2000/svg">
<path d="M0 79.2422V92.6016H22.5V101.273H29.5312C29.5312 98.7961 29.5312 95.0883 29.5312 92.6016H90.4688V101.273H97.5C97.5 98.7961 97.5 95.0883 97.5 92.6016H120V79.2422H0Z" fill="black"/>
<path d="M106.875 33.3047H98.4375V48.3047H83.4375V72.2109H106.875V33.3047Z" fill="#E97B08"/>
<path d="M83.4375 33.3047H91.4062V41.2734H83.4375V33.3047Z" fill="black"/>
<path d="M76.4062 72.2109C76.4062 53.1949 76.4062 19.497 76.4062 0.726562H55.0781V15.7266H33.0469V0.726562H11.7188V72.2109H76.4062ZM19.4531 42.2109H26.4844V49.2422H19.4531V42.2109ZM34.2188 64.2422H19.4531V57.2109H34.2188V64.2422Z" fill="#E97B08"/>
<path d="M40.0781 0.726562H48.0469V8.69531H40.0781V0.726562Z" fill="black"/>
</svg>
