<svg width="124" height="32" viewBox="0 0 124 32" fill="none" xmlns="http://www.w3.org/2000/svg">
<g clip-path="url(#clip0_187_913)">
<path d="M23.7126 2.49028C22.2361 0.807421 19.5672 0.0859375 16.1528 0.0859375H6.24341C5.9056 0.08595 5.57886 0.206472 5.32196 0.425834C5.06505 0.645196 4.89482 0.949009 4.84188 1.28265L0.715785 27.4513C0.633772 27.9674 1.03335 28.4347 1.55637 28.4347H7.67409L9.21051 18.6894L9.16283 18.9945C9.27229 18.3057 9.86143 17.7976 10.5591 17.7976H13.4662C19.1772 17.7976 23.6491 15.4779 24.9554 8.76758C24.9941 8.56912 25.0277 8.37595 25.0568 8.18724C24.8919 8.09992 24.8919 8.09992 25.0568 8.18724C25.4457 5.70702 25.0541 4.01876 23.7126 2.49028Z" fill="#27346A"/>
<path d="M11.5514 7.29378C11.7186 7.21414 11.9016 7.17287 12.0868 7.17298H19.8556C20.7755 7.17298 21.6336 7.23285 22.4177 7.35905C22.6371 7.39403 22.8554 7.4358 23.0722 7.48429C23.3796 7.55211 23.6833 7.63511 23.9824 7.73298C24.3679 7.86173 24.7269 8.01166 25.0569 8.18724C25.4457 5.70607 25.0541 4.01876 23.7126 2.49028C22.2353 0.807421 19.5672 0.0859375 16.1528 0.0859375H6.24257C5.54482 0.0859375 4.95123 0.593911 4.84188 1.28265L0.715786 27.4504C0.633773 27.9673 1.03335 28.4339 1.55552 28.4339H7.67409L10.8617 8.21987C10.893 8.02118 10.9722 7.83309 11.0923 7.67176C11.2125 7.51044 11.37 7.38073 11.5514 7.29378Z" fill="#27346A"/>
<path d="M24.9543 8.76784C23.6481 15.4772 19.1763 17.7979 13.4652 17.7979H10.5572C9.85957 17.7979 9.27032 18.306 9.16192 18.9948L7.25051 31.1119C7.17909 31.5635 7.52833 31.9727 7.98523 31.9727H13.1423C13.4377 31.9726 13.7234 31.8672 13.948 31.6753C14.1726 31.4834 14.3214 31.2176 14.3675 30.9258L14.4178 30.663L15.3897 24.5029L15.4524 24.1625C15.4985 23.8707 15.6473 23.605 15.8718 23.4131C16.0964 23.2212 16.3821 23.1157 16.6775 23.1156H17.4493C22.445 23.1156 26.3567 21.086 27.4998 15.2163C27.977 12.7633 27.7301 10.7153 26.4679 9.27677C26.085 8.84106 25.6096 8.48122 25.0558 8.1875C25.0258 8.37717 24.9932 8.56938 24.9543 8.76784Z" fill="#2790C3"/>
<path d="M23.6891 7.6424C23.4854 7.58292 23.2798 7.53026 23.0726 7.48452C22.8557 7.43682 22.6374 7.39533 22.4181 7.36012C21.6331 7.23307 20.7757 7.1731 19.8549 7.1731H12.0871C11.9017 7.17268 11.7186 7.21431 11.5516 7.29485C11.3701 7.38153 11.2123 7.51117 11.0921 7.67254C10.9719 7.8339 10.8929 8.02214 10.8618 8.22094L9.21077 18.6896L9.16309 18.9948C9.2717 18.3059 9.86083 17.7978 10.5586 17.7978H13.4666C19.1776 17.7978 23.6493 15.4782 24.9556 8.7678C24.9945 8.56934 25.0271 8.37702 25.0571 8.18746C24.7263 8.01283 24.3683 7.86195 23.9827 7.73405C23.8854 7.7018 23.7875 7.67124 23.6892 7.6424" fill="#1F264F"/>
</g>
<path d="M49.8965 5.95178C49.5665 5.28978 49.0445 4.74378 48.3965 4.33378C47.7205 3.91978 46.9225 3.62978 46.0105 3.45778C45.0825 3.28978 44.0105 3.21378 42.7685 3.20178L37.0345 3.20578C36.4385 3.21378 35.8545 3.67778 35.7145 4.25378L31.8565 21.0578C31.7165 21.6258 32.0905 22.1018 32.6865 22.1018H35.4325C36.0285 22.1018 36.6185 21.6398 36.7505 21.0578L37.6925 16.9778C37.8185 16.4098 38.4065 15.9358 39.0085 15.9358H39.7945C43.1525 15.9318 45.7525 15.2458 47.6205 13.8718C49.4985 12.4958 50.4245 10.6778 50.4245 8.42578C50.4225 7.43978 50.2605 6.61178 49.8965 5.95178ZM43.9745 11.4418C43.1445 12.0498 41.9905 12.3538 40.5025 12.3538H39.8305C39.2325 12.3538 38.8665 11.8818 38.9965 11.3058L39.8225 7.73778C39.9385 7.16578 40.5405 6.69178 41.1305 6.69578L42.0305 6.68978C43.0805 6.68978 43.8825 6.87178 44.4185 7.22378C44.9485 7.57178 45.2145 8.12578 45.2105 8.85978C45.2265 9.97578 44.8005 10.8338 43.9745 11.4418Z" fill="#27346A"/>
<path d="M63.1394 8.35513C62.1034 7.77113 60.4674 7.47913 58.2314 7.47913C57.1254 7.47913 56.0234 7.56513 54.9094 7.73713C54.0874 7.86313 54.0074 7.88712 53.5014 7.99712C52.4574 8.22512 52.2934 9.26712 52.2934 9.26712L51.9574 10.6491C51.7674 11.5311 52.2754 11.4971 52.4874 11.4231C52.9434 11.2871 53.1974 11.1471 54.1294 10.9391C55.0194 10.7371 55.9574 10.5851 56.7014 10.5951C57.7994 10.5951 58.6394 10.7111 59.1994 10.9471C59.7514 11.1871 60.0274 11.5991 60.0274 12.1951L59.9794 12.5831L59.5834 12.8271C58.0254 12.9251 56.8994 13.0691 55.5334 13.2671C54.1974 13.4531 53.0254 13.7791 52.0514 14.2251C51.0054 14.6851 50.2294 15.3031 49.6874 16.0891C49.1634 16.8791 48.9014 17.8371 48.9014 18.9611C48.9014 20.0191 49.2814 20.8931 50.0194 21.5691C50.7614 22.2331 51.7414 22.5571 52.9134 22.5571C53.6554 22.5531 54.2294 22.4951 54.6374 22.3971L55.9674 21.9391L57.0934 21.3151L58.1294 20.6311L58.1434 20.6511L58.0394 21.0911L58.0334 21.1091V21.1131C57.9214 21.6491 58.2454 22.0891 58.7674 22.1411L58.7774 22.1531H58.8254H60.9314H61.3274L61.3634 22.1371C61.9114 22.0731 62.4254 21.6331 62.5454 21.1091L64.5474 12.4431L64.6514 11.7371L64.6994 11.0751C64.7074 9.84713 64.1774 8.93713 63.1394 8.35513ZM58.7114 18.0991L58.2834 18.6631L57.2034 19.2211C56.6954 19.4271 56.2134 19.5311 55.7674 19.5311C55.0914 19.5311 54.5614 19.4331 54.2034 19.2331L53.6734 18.2031C53.6734 17.6451 53.8014 17.2031 54.0754 16.8631L55.2394 16.0711C55.7374 15.9031 56.3454 15.7611 57.0494 15.6631C57.6774 15.5851 58.9174 15.4431 59.0794 15.4391L59.2694 15.7731C59.2314 15.9631 58.8794 17.4351 58.7114 18.0991Z" fill="#27346A"/>
<path d="M113.014 8.36689C111.972 7.78289 110.338 7.48889 108.108 7.48889C107.002 7.48889 105.898 7.57489 104.788 7.75289C103.964 7.87289 103.882 7.89889 103.374 8.00689C102.332 8.23289 102.17 9.27889 102.17 9.27889L101.834 10.6589C101.646 11.5409 102.142 11.5009 102.374 11.4329C102.832 11.2969 103.078 11.1629 104.002 10.9469C104.888 10.7469 105.834 10.5989 106.58 10.6029C107.674 10.6029 108.514 10.7209 109.072 10.9569C109.628 11.1969 109.9 11.6129 109.9 12.2029L109.858 12.5889L109.466 12.8389C107.892 12.9329 106.764 13.0769 105.412 13.2749C104.08 13.4609 102.904 13.7849 101.928 14.2329C100.886 14.6949 100.1 15.3129 99.5644 16.1009C99.0344 16.8909 98.7764 17.8469 98.7764 18.9609C98.7764 20.0269 99.1524 20.9009 99.9004 21.5729C100.646 22.2349 101.616 22.5669 102.788 22.5669C103.526 22.5589 104.1 22.5109 104.51 22.4049L105.836 21.9529L106.972 21.3289L108 20.6369L108.018 20.6589L107.924 21.1029L107.914 21.1109L107.918 21.1189C107.794 21.6549 108.12 22.0989 108.648 22.1469L108.652 22.1569H108.7C109.046 22.1569 110.242 22.1569 110.812 22.1569H111.2L111.242 22.1429C111.784 22.0769 112.296 21.6369 112.41 21.1069L114.418 12.4529L114.524 11.7429L114.582 11.0789C114.584 9.85489 114.06 8.94889 113.014 8.36689ZM108.596 18.1109L108.15 18.6809L107.08 19.2349C106.572 19.4389 106.088 19.5449 105.65 19.5449C104.952 19.5449 104.436 19.4449 104.088 19.2449L103.552 18.2189C103.552 17.6589 103.682 17.2209 103.944 16.8749C104.21 16.5489 104.616 16.2809 105.12 16.0849C105.612 15.9169 106.22 15.7809 106.928 15.6789C107.552 15.6009 108.788 15.4549 108.948 15.4529L109.142 15.7869C109.114 15.9769 108.76 17.4429 108.596 18.1109Z" fill="#2790C3"/>
<path d="M99.7652 6.01433C99.4212 5.34833 98.9052 4.81033 98.2532 4.39033C97.5852 3.97433 96.7932 3.68233 95.8672 3.51433C94.9572 3.35233 93.8712 3.26433 92.6372 3.26233L86.8952 3.26633C86.2972 3.27633 85.7232 3.74033 85.5852 4.31033L81.7232 21.1223C81.5832 21.6923 81.9672 22.1643 82.5512 22.1643L85.3012 22.1603C85.8852 22.1643 86.4832 21.6963 86.6212 21.1203L87.5512 17.0383C87.6872 16.4703 88.2772 15.9923 88.8712 15.9963H89.6572C93.0192 15.9963 95.6252 15.3043 97.5012 13.9343C99.3552 12.5483 100.293 10.7343 100.293 8.48033C100.283 7.49833 100.113 6.66833 99.7652 6.01433ZM93.8432 11.5123C93.0152 12.1083 91.8592 12.4123 90.3792 12.4123H89.6952C89.1052 12.4183 88.7232 11.9383 88.8552 11.3663L89.6872 7.80433C89.8092 7.23433 90.4052 6.75633 90.9992 6.76233L91.8892 6.75633C92.9452 6.76233 93.7372 6.93633 94.2772 7.28833C94.8152 7.64033 95.0692 8.19233 95.0752 8.92433C95.0812 10.0403 94.6672 10.9003 93.8432 11.5123Z" fill="#2790C3"/>
<path d="M123.312 4.44482C123.438 3.87082 123.078 3.40482 122.488 3.41282H120.028C119.524 3.41282 119.07 3.78682 118.848 4.24682L118.712 4.45882L118.588 5.00282L115.15 20.6308L115.038 21.1108L115.042 21.1228C114.928 21.6368 115.244 22.0248 115.732 22.0988L115.774 22.1568H118.328C118.828 22.1568 119.298 21.7768 119.512 21.3088L119.644 21.1088L123.32 4.44682L123.312 4.44482Z" fill="#2790C3"/>
<path d="M81.7995 7.68834C81.1495 7.69634 78.5075 7.68834 78.5075 7.68834C77.9155 7.68834 77.1555 8.16634 76.7795 8.73634C76.7795 8.73634 72.8475 15.4843 72.4655 16.1623L72.0095 16.1563L70.7855 8.78234C70.6495 8.20234 70.0435 7.70634 69.2895 7.70634L66.8295 7.71034C66.2375 7.71034 65.8735 8.18234 66.0075 8.75834C66.0075 8.75834 67.8755 19.3883 68.2495 21.8903C68.4235 23.2703 68.2275 23.5163 68.2275 23.5163L65.7955 27.7523C65.4355 28.3283 65.6295 28.7983 66.2195 28.7983L69.0635 28.7943C69.6555 28.7943 70.4335 28.3283 70.7855 27.7503L81.7255 9.24634C81.7255 9.24634 82.7775 7.66634 81.7995 7.68834Z" fill="#27346A"/>
<defs>
<clipPath id="clip0_187_913">
<rect width="27.1258" height="32" fill="white" transform="translate(0.701172)"/>
</clipPath>
</defs>
</svg>
