<svg width="28" height="28" viewBox="0 0 28 28" fill="none" xmlns="http://www.w3.org/2000/svg">
<path d="M13.818 0.0108888L14 0C14.381 5.02609e-05 14.7487 0.139932 15.0335 0.393113C15.3182 0.646294 15.5001 0.995165 15.5447 1.37356L15.5556 1.55556V12.4444H26.4444C26.8255 12.4445 27.1932 12.5844 27.4779 12.8376C27.7626 13.0907 27.9445 13.4396 27.9891 13.818L28 14C28 14.381 27.8601 14.7487 27.6069 15.0335C27.3537 15.3182 27.0048 15.5001 26.6264 15.5447L26.4444 15.5556H15.5556V26.4444C15.5555 26.8255 15.4156 27.1932 15.1624 27.4779C14.9093 27.7626 14.5604 27.9445 14.182 27.9891L14 28C13.619 28 13.2513 27.8601 12.9665 27.6069C12.6818 27.3537 12.4999 27.0048 12.4553 26.6264L12.4444 26.4444V15.5556H1.55556C1.17455 15.5555 0.806809 15.4156 0.522088 15.1624C0.237367 14.9093 0.0554667 14.5604 0.0108888 14.182L0 14C5.02609e-05 13.619 0.139932 13.2513 0.393113 12.9665C0.646294 12.6818 0.995165 12.4999 1.37356 12.4553L1.55556 12.4444H12.4444V1.55556C12.4445 1.17455 12.5844 0.806809 12.8376 0.522088C13.0907 0.237367 13.4396 0.0554667 13.818 0.0108888Z" fill="#181919"/>
</svg>
