<svg width="120" height="112" viewBox="0 0 120 112" fill="none" xmlns="http://www.w3.org/2000/svg">
<path d="M84.0164 76.6823H75.8883L90.0328 102.677C91.0031 104.46 90.9633 106.567 89.925 108.314C88.8867 110.06 87.0562 111.103 85.0242 111.103C84.143 111.103 83.2594 110.892 82.4695 110.498L75.3516 106.931H53.8922C51.8367 106.931 49.9359 105.817 48.9258 104.029L37.6711 84.0674L0 56.512V0.988525L44.2945 63.5831L54.3984 61.0143C58.6406 59.9362 63.1664 60.351 67.1414 62.1838L75.9797 66.2573H92.8547V67.8463C92.8547 72.719 88.8891 76.6823 84.0164 76.6823Z" fill="black"/>
<path d="M18.9751 79.1035V101.922H39.6657L32.2923 88.8465L18.9751 79.1035Z" fill="#E97B08"/>
<path d="M59.8267 0.897217H79.1509V25.7574H59.8267V0.897217Z" fill="black"/>
<path d="M120 0.897217H86.1821V32.7886H52.7954V0.897217H18.9751V15.63L47.2431 55.5769L52.6665 54.1988C62.6373 51.7322 68.8529 55.1321 77.522 59.2261H99.886V67.8464C99.886 75.398 94.5845 81.7332 87.5087 83.3269L97.6269 101.922H120V0.897217Z" fill="#E97B08"/>
</svg>
