<svg width="220" height="120" viewBox="0 0 220 120" fill="none" xmlns="http://www.w3.org/2000/svg">
<path d="M181.354 84.1743L180.334 86.6723L170.036 89.5683H52.9337L44.1898 83.6163L50.0938 60.4023L173.52 62.8083L181.354 77.9583V84.1743Z" fill="#0E1316"/>
<path d="M164.15 93.3037C157.155 93.3037 151.484 87.6329 151.484 80.6377C151.484 73.6424 157.155 67.9717 164.15 67.9717C171.145 67.9717 176.816 73.6424 176.816 80.6377C176.816 87.6329 171.145 93.3037 164.15 93.3037Z" fill="#273239"/>
<path d="M164.15 93.3037C157.155 93.3037 151.484 87.6329 151.484 80.6377C151.484 73.6424 157.155 67.9717 164.15 67.9717C171.145 67.9717 176.816 73.6424 176.816 80.6377C176.816 87.6329 171.145 93.3037 164.15 93.3037Z" fill="#273239"/>
<g style="mix-blend-mode:overlay" opacity="0.3">
<path d="M164.15 67.9717C171.146 67.9717 176.816 73.6417 176.816 80.6377C176.816 87.6337 171.146 93.3037 164.15 93.3037C157.154 93.3037 151.484 87.6337 151.484 80.6377C151.484 73.6417 157.154 67.9717 164.15 67.9717ZM164.15 92.2957C170.588 92.2957 175.808 87.0757 175.808 80.6377C175.808 74.1997 170.588 68.9797 164.15 68.9797C157.712 68.9797 152.492 74.1997 152.492 80.6377C152.492 87.0757 157.712 92.2957 164.15 92.2957Z" fill="black"/>
</g>
<path d="M158.589 86.201C155.517 83.1291 155.517 78.1486 158.589 75.0767C161.661 72.0049 166.641 72.0049 169.713 75.0768C172.785 78.1486 172.785 83.1291 169.713 86.201C166.641 89.2728 161.661 89.2728 158.589 86.201Z" fill="#BBC5CD"/>
<g style="mix-blend-mode:overlay" opacity="0.6">
<path d="M164.151 78.8234C165.153 78.8234 165.965 79.6354 165.965 80.6374C165.965 81.6394 165.153 82.4514 164.151 82.4514C163.149 82.4514 162.337 81.6394 162.337 80.6374C162.337 79.6354 163.149 78.8234 164.151 78.8234Z" fill="black"/>
</g>
<path d="M164.15 77.0637C164.398 77.0637 164.598 77.2637 164.598 77.5117C164.598 77.7597 164.398 77.9597 164.15 77.9597C163.902 77.9597 163.702 77.7597 163.702 77.5117C163.702 77.2637 163.902 77.0637 164.15 77.0637Z" fill="#273239"/>
<g style="mix-blend-mode:overlay" opacity="0.6">
<path d="M164.15 86.3504C163.903 86.3504 163.702 85.608 163.702 84.6924C163.702 83.7767 163.903 83.0344 164.15 83.0344C164.398 83.0344 164.598 83.7767 164.598 84.6924C164.598 85.608 164.398 86.3504 164.15 86.3504Z" fill="black"/>
</g>
<g style="mix-blend-mode:overlay" opacity="0.6">
<path d="M161.873 81.3799C161.949 81.6159 161.305 82.0359 160.435 82.3179C159.565 82.5999 158.797 82.6399 158.719 82.4039C158.643 82.1679 159.287 81.7479 160.157 81.4659C161.027 81.1839 161.795 81.1439 161.873 81.3799Z" fill="black"/>
</g>
<g style="mix-blend-mode:overlay" opacity="0.6">
<path d="M162.742 78.6997C162.542 78.8457 161.944 78.3618 161.406 77.6217C160.868 76.8817 160.594 76.1617 160.794 76.0177C160.994 75.8737 161.592 76.3557 162.13 77.0957C162.668 77.8357 162.942 78.5557 162.742 78.6997Z" fill="black"/>
</g>
<g style="mix-blend-mode:overlay" opacity="0.6">
<path d="M165.559 78.6994C165.359 78.5534 165.633 77.8354 166.171 77.0954C166.709 76.3554 167.307 75.8714 167.507 76.0174C167.707 76.1634 167.433 76.8814 166.895 77.6214C166.357 78.3614 165.759 78.8454 165.559 78.6994Z" fill="black"/>
</g>
<g style="mix-blend-mode:overlay" opacity="0.6">
<path d="M166.429 81.3799C166.505 81.1439 167.273 81.1839 168.145 81.4659C169.015 81.7479 169.659 82.1679 169.583 82.4039C169.507 82.6399 168.739 82.5999 167.867 82.3179C166.997 82.0359 166.353 81.6159 166.429 81.3799Z" fill="black"/>
</g>
<path d="M167.55 79.5337C167.626 79.7697 167.498 80.0217 167.262 80.0977C167.026 80.1737 166.774 80.0457 166.698 79.8097C166.622 79.5737 166.75 79.3217 166.986 79.2457C167.222 79.1697 167.474 79.2977 167.55 79.5337Z" fill="#273239"/>
<path d="M166.253 83.5314C166.053 83.6774 165.773 83.6314 165.627 83.4314C165.481 83.2314 165.527 82.9514 165.727 82.8054C165.927 82.6594 166.207 82.7054 166.353 82.9054C166.499 83.1054 166.453 83.3854 166.255 83.5314H166.253Z" fill="#273239"/>
<path d="M162.048 83.5313C161.848 83.3853 161.804 83.1053 161.95 82.9053C162.096 82.7053 162.376 82.6613 162.576 82.8053C162.776 82.9493 162.82 83.2313 162.676 83.4313C162.53 83.6313 162.25 83.6753 162.05 83.5313H162.048Z" fill="#273239"/>
<path d="M160.75 79.5337C160.826 79.2977 161.078 79.1697 161.314 79.2457C161.55 79.3217 161.678 79.5737 161.602 79.8097C161.526 80.0457 161.274 80.1737 161.038 80.0977C160.802 80.0217 160.674 79.7697 160.75 79.5337Z" fill="#273239"/>
<path d="M164.15 74.6701C165.512 74.6661 166.474 75.3141 166.374 75.4961C166.282 75.6921 165.314 75.4261 164.15 75.4381C162.986 75.4281 162.018 75.6921 161.926 75.4961C161.824 75.3141 162.788 74.6661 164.15 74.6701Z" fill="#273239"/>
<path d="M169.827 78.7935C170.253 80.0875 169.933 81.2035 169.729 81.1635C169.513 81.1375 169.467 80.1355 169.097 79.0295C168.747 77.9195 168.195 77.0795 168.355 76.9315C168.497 76.7795 169.411 77.4955 169.829 78.7915L169.827 78.7935Z" fill="#273239"/>
<path d="M167.659 85.4683C166.561 86.2723 165.399 86.3143 165.375 86.1063C165.333 85.8943 166.273 85.5403 167.209 84.8463C168.157 84.1703 168.785 83.3863 168.973 83.4923C169.161 83.5803 168.763 84.6703 167.659 85.4683Z" fill="#273239"/>
<path d="M160.642 85.4683C159.538 84.6723 159.14 83.5803 159.328 83.4923C159.518 83.3863 160.144 84.1703 161.092 84.8463C162.028 85.5403 162.968 85.8943 162.926 86.1063C162.902 86.3123 161.74 86.2723 160.642 85.4683Z" fill="#273239"/>
<path d="M158.474 78.7932C158.89 77.4972 159.806 76.7812 159.948 76.9332C160.108 77.0812 159.554 77.9192 159.206 79.0292C158.836 80.1332 158.79 81.1372 158.574 81.1632C158.37 81.2032 158.05 80.0872 158.476 78.7932H158.474Z" fill="#273239"/>
<g style="mix-blend-mode:overlay" opacity="0.6">
<path d="M164.15 74.2277C167.69 74.2277 170.56 77.0977 170.56 80.6377C170.56 84.1777 167.69 87.0497 164.15 87.0497C160.61 87.0497 157.74 84.1797 157.74 80.6377C157.74 77.0957 160.61 74.2277 164.15 74.2277ZM164.15 85.2617C166.704 85.2617 168.774 83.1917 168.774 80.6377C168.774 78.0837 166.704 76.0137 164.15 76.0137C161.596 76.0137 159.526 78.0837 159.526 80.6377C159.526 83.1917 161.596 85.2617 164.15 85.2617Z" fill="black"/>
</g>
<g style="mix-blend-mode:overlay" opacity="0.3">
<path d="M164.15 70.8137C169.576 70.8137 173.976 75.2137 173.976 80.6397C173.976 86.0657 169.576 90.4657 164.15 90.4657C158.724 90.4657 154.324 86.0657 154.324 80.6397C154.324 75.2137 158.724 70.8137 164.15 70.8137ZM164.15 87.9357C168.18 87.9357 171.448 84.6677 171.448 80.6377C171.448 76.6077 168.18 73.3397 164.15 73.3397C160.12 73.3397 156.852 76.6077 156.852 80.6377C156.852 84.6677 160.12 87.9357 164.15 87.9357Z" fill="white"/>
</g>
<path d="M68.0352 93.3047C61.0399 93.3047 55.3692 87.6339 55.3692 80.6387C55.3692 73.6434 61.0399 67.9727 68.0352 67.9727C75.0304 67.9727 80.7012 73.6434 80.7012 80.6387C80.7012 87.6339 75.0304 93.3047 68.0352 93.3047Z" fill="#273239"/>
<path d="M68.0352 93.3047C61.0399 93.3047 55.3692 87.6339 55.3692 80.6387C55.3692 73.6434 61.0399 67.9727 68.0352 67.9727C75.0304 67.9727 80.7012 73.6434 80.7012 80.6387C80.7012 87.6339 75.0304 93.3047 68.0352 93.3047Z" fill="#273239"/>
<g style="mix-blend-mode:overlay" opacity="0.3">
<path d="M68.0352 67.9727C75.0312 67.9727 80.7012 73.6427 80.7012 80.6387C80.7012 87.6347 75.0312 93.3047 68.0352 93.3047C61.0392 93.3047 55.3692 87.6347 55.3692 80.6387C55.3692 73.6427 61.0392 67.9727 68.0352 67.9727ZM68.0352 92.2967C74.4732 92.2967 79.6932 87.0767 79.6932 80.6387C79.6932 74.2007 74.4732 68.9807 68.0352 68.9807C61.5972 68.9807 56.3772 74.2007 56.3772 80.6387C56.3772 87.0767 61.5972 92.2967 68.0352 92.2967Z" fill="black"/>
</g>
<path d="M60.3961 82.4346C59.3982 78.2065 62.0167 73.97 66.2448 72.9721C70.4729 71.9741 74.7095 74.5927 75.7074 78.8208C76.7053 83.0489 74.0867 87.2855 69.8586 88.2834C65.6305 89.2813 61.394 86.6627 60.3961 82.4346Z" fill="#BBC5CD"/>
<g style="mix-blend-mode:overlay" opacity="0.6">
<path d="M68.0351 78.8242C69.0371 78.8242 69.8491 79.6362 69.8491 80.6382C69.8491 81.6402 69.0371 82.4522 68.0351 82.4522C67.0331 82.4522 66.2211 81.6402 66.2211 80.6382C66.2211 79.6362 67.0331 78.8242 68.0351 78.8242Z" fill="black"/>
</g>
<path d="M68.0352 77.0646C68.2832 77.0646 68.4832 77.2646 68.4832 77.5126C68.4832 77.7606 68.2832 77.9606 68.0352 77.9606C67.7872 77.9606 67.5872 77.7606 67.5872 77.5126C67.5872 77.2646 67.7872 77.0646 68.0352 77.0646Z" fill="#273239"/>
<g style="mix-blend-mode:overlay" opacity="0.6">
<path d="M68.0353 86.3513C67.7879 86.3513 67.5873 85.609 67.5873 84.6933C67.5873 83.7776 67.7879 83.0353 68.0353 83.0353C68.2827 83.0353 68.4833 83.7776 68.4833 84.6933C68.4833 85.609 68.2827 86.3513 68.0353 86.3513Z" fill="black"/>
</g>
<g style="mix-blend-mode:overlay" opacity="0.6">
<path d="M65.7572 81.3807C65.8332 81.6167 65.1892 82.0367 64.3192 82.3187C63.4492 82.6007 62.6812 82.6407 62.6032 82.4047C62.5252 82.1687 63.1712 81.7487 64.0412 81.4667C64.9112 81.1847 65.6792 81.1447 65.7572 81.3807Z" fill="black"/>
</g>
<g style="mix-blend-mode:overlay" opacity="0.6">
<path d="M66.6272 78.7007C66.4272 78.8467 65.8292 78.3627 65.2912 77.6227C64.7532 76.8827 64.4792 76.1627 64.6792 76.0187C64.8792 75.8747 65.4772 76.3567 66.0152 77.0967C66.5532 77.8367 66.8272 78.5567 66.6272 78.7007Z" fill="black"/>
</g>
<g style="mix-blend-mode:overlay" opacity="0.6">
<path d="M69.4451 78.7002C69.2451 78.5542 69.5191 77.8362 70.0571 77.0962C70.5951 76.3562 71.1931 75.8722 71.3931 76.0182C71.5931 76.1642 71.3191 76.8822 70.7811 77.6222C70.2431 78.3622 69.6451 78.8462 69.4451 78.7002Z" fill="black"/>
</g>
<g style="mix-blend-mode:overlay" opacity="0.6">
<path d="M70.3151 81.3807C70.3911 81.1447 71.1591 81.1847 72.0311 81.4667C72.9011 81.7487 73.5451 82.1687 73.4691 82.4047C73.3931 82.6407 72.6251 82.6007 71.7531 82.3187C70.8831 82.0367 70.2391 81.6167 70.3151 81.3807Z" fill="black"/>
</g>
<path d="M71.4372 79.5346C71.5132 79.7706 71.3852 80.0226 71.1492 80.0986C70.9132 80.1746 70.6612 80.0466 70.5852 79.8106C70.5092 79.5746 70.6372 79.3226 70.8732 79.2466C71.1092 79.1706 71.3612 79.2986 71.4372 79.5346Z" fill="#273239"/>
<path d="M70.1366 83.5333C69.9366 83.6793 69.6566 83.6333 69.5106 83.4333C69.3646 83.2333 69.4106 82.9533 69.6086 82.8073C69.8086 82.6613 70.0886 82.7073 70.2346 82.9073C70.3806 83.1073 70.3346 83.3873 70.1366 83.5333Z" fill="#273239"/>
<path d="M65.9353 83.5323C65.7353 83.3863 65.6913 83.1063 65.8373 82.9063C65.9833 82.7063 66.2633 82.6623 66.4633 82.8063C66.6633 82.9523 66.7073 83.2323 66.5633 83.4323C66.4173 83.6323 66.1373 83.6763 65.9373 83.5323H65.9353Z" fill="#273239"/>
<path d="M64.6351 79.5346C64.7111 79.2986 64.9631 79.1706 65.1991 79.2466C65.4351 79.3226 65.5631 79.5746 65.4871 79.8106C65.4111 80.0466 65.1591 80.1746 64.9231 80.0986C64.6871 80.0226 64.5591 79.7706 64.6351 79.5346Z" fill="#273239"/>
<path d="M68.035 74.6709C69.397 74.6669 70.359 75.3149 70.259 75.4969C70.167 75.6929 69.199 75.4269 68.035 75.4389C66.871 75.4289 65.903 75.6929 65.811 75.4969C65.709 75.3149 66.673 74.6669 68.035 74.6709Z" fill="#273239"/>
<path d="M73.7131 78.7943C74.1391 80.0883 73.8191 81.2043 73.6151 81.1643C73.3991 81.1383 73.3531 80.1363 72.9831 79.0303C72.6331 77.9203 72.0811 77.0803 72.2411 76.9323C72.3831 76.7803 73.2971 77.4963 73.7151 78.7923L73.7131 78.7943Z" fill="#273239"/>
<path d="M71.5454 85.4693C70.4474 86.2733 69.2854 86.3153 69.2614 86.1073C69.2194 85.8953 70.1594 85.5413 71.0954 84.8473C72.0434 84.1713 72.6714 83.3873 72.8594 83.4933C73.0474 83.5813 72.6494 84.6713 71.5454 85.4693Z" fill="#273239"/>
<path d="M64.527 85.4693C63.423 84.6733 63.025 83.5813 63.213 83.4933C63.403 83.3873 64.029 84.1713 64.977 84.8473C65.913 85.5413 66.853 85.8953 66.811 86.1073C66.787 86.3133 65.625 86.2733 64.527 85.4693Z" fill="#273239"/>
<path d="M62.359 78.7942C62.775 77.4982 63.691 76.7822 63.833 76.9342C63.993 77.0822 63.439 77.9202 63.091 79.0302C62.721 80.1342 62.675 81.1382 62.459 81.1642C62.255 81.2042 61.935 80.0882 62.361 78.7942H62.359Z" fill="#273239"/>
<g style="mix-blend-mode:overlay" opacity="0.6">
<path d="M68.0351 74.2286C71.5751 74.2286 74.4451 77.0986 74.4451 80.6386C74.4451 84.1786 71.5751 87.0506 68.0351 87.0506C64.4951 87.0506 61.6231 84.1806 61.6231 80.6386C61.6231 77.0966 64.4931 74.2286 68.0351 74.2286ZM68.0351 85.2626C70.5891 85.2626 72.6591 83.1926 72.6591 80.6386C72.6591 78.0846 70.5891 76.0146 68.0351 76.0146C65.4811 76.0146 63.4111 78.0846 63.4111 80.6386C63.4111 83.1926 65.4811 85.2626 68.0351 85.2626Z" fill="black"/>
</g>
<g style="mix-blend-mode:overlay" opacity="0.3">
<path d="M68.0352 70.8146C73.4612 70.8146 77.8612 75.2146 77.8612 80.6406C77.8612 86.0667 73.4612 90.4667 68.0352 90.4667C62.6092 90.4667 58.2092 86.0667 58.2092 80.6406C58.2092 75.2146 62.6092 70.8146 68.0352 70.8146ZM68.0352 87.9367C72.0652 87.9367 75.3332 84.6687 75.3332 80.6386C75.3332 76.6086 72.0652 73.3406 68.0352 73.3406C64.0052 73.3406 60.7372 76.6086 60.7372 80.6386C60.7372 84.6687 64.0052 87.9367 68.0352 87.9367Z" fill="white"/>
</g>
<path d="M37.4881 69.08V57.102L38.512 54.158L37.6921 52.878L41.0201 31.378L44.2961 27.002H100.224L113.738 32.3L148.14 53.264L179.008 60.406L180.62 62.248L183.998 71.578L183.23 72.462L183.422 75.072L183.998 75.916L182.308 84.746L178.994 85.55C178.698 82.688 178.328 79.152 178.298 78.908C178.26 78.6 178.152 77.962 178.152 77.962C176.898 71.368 171.106 66.384 164.148 66.384C157.19 66.384 151.154 71.58 150.07 78.378L148.944 87.206H83.0521C82.7541 84.294 82.222 79.206 82.186 78.91C82.148 78.602 82.04 77.964 82.04 77.964C80.786 71.37 74.994 66.386 68.036 66.386C61.078 66.386 55.042 71.582 53.958 78.38L52.832 87.208H47.3161L39.3301 82.524L36.1821 71.466L37.4881 69.086V69.08Z" fill="#E97B08"/>
<path d="M144.48 55.8724L179.524 60.9904L180.622 62.2464L182.038 66.1564L148.1 62.4304H37.4879V57.1004L38.0619 55.4504H90.4039L144.48 55.8724Z" fill="#010066"/>
<path d="M183.232 72.4584L182.906 72.3244L179.282 72.3364L180.142 74.1324L183.014 75.1204L183.424 75.0704L183.232 72.4584Z" fill="#7C8B9B"/>
<g style="mix-blend-mode:overlay" opacity="0.3">
<path d="M181.788 65.4643L178.48 67.0063L175.094 71.5023C175.264 71.7063 175.426 71.9143 175.586 72.1263L178.98 67.6203L182.054 66.1883L181.792 65.4643H181.788ZM37.2419 69.5303L37.4879 69.0803V68.8003L43.5338 70.2343L54.1058 77.5964C54.0498 77.8544 53.9978 78.1124 53.9558 78.3764L53.9498 78.4243L43.2138 70.9484L37.2399 69.5323L37.2419 69.5303ZM82.7098 83.8744H149.37L149.468 83.1064H146.96L149.066 65.3703L146.87 55.1003L126.678 41.7423H86.8258L85.4198 43.5883L83.7118 57.5643L84.8818 65.4943L90.0358 83.1044H82.6298C82.6558 83.3584 82.6838 83.6144 82.7098 83.8724V83.8744ZM113.43 57.3423L111.488 42.5123H126.446L146.184 55.5703L148.288 65.4083L146.186 83.1084H114.122V66.0103L113.43 57.3443V57.3423ZM90.8378 83.1064L85.6278 65.3063L84.4878 57.5563L86.1578 43.8883L87.2078 42.5103H110.716L112.668 57.4203L113.358 66.0383V83.1064H90.8378Z" fill="black"/>
</g>
<g style="mix-blend-mode:overlay" opacity="0.5">
<path d="M52.8319 87.2023L53.9579 78.3743C55.0439 71.5763 60.9319 66.3803 68.0359 66.3803C75.1399 66.3803 80.7859 71.3663 82.0399 77.9583C82.0399 77.9583 82.1499 78.5963 82.1859 78.9043C82.2219 79.2003 82.7539 84.2903 83.0519 87.2003H85.1639C84.8559 84.1543 84.2799 78.7163 84.2719 78.6503C84.2299 78.3003 84.1219 77.6723 84.1099 77.6023L84.1039 77.5643C82.6399 69.8643 75.8819 64.2763 68.0359 64.2763C60.1899 64.2763 53.1559 70.0663 51.8819 78.0423L50.7139 87.2003H52.8319V87.2023ZM146.828 87.2023L147.996 78.0443C149.268 70.0683 156.062 64.2783 164.15 64.2783C172.238 64.2783 178.754 69.8663 180.218 77.5663L180.224 77.6043C180.236 77.6743 180.344 78.3043 180.386 78.6523C180.392 78.7043 180.754 82.1163 181.058 85.0483L178.996 85.5483C178.7 82.6863 178.33 79.1503 178.3 78.9063C178.262 78.5983 178.154 77.9603 178.154 77.9603C176.9 71.3663 171.108 66.3823 164.15 66.3823C157.192 66.3823 151.156 71.5783 150.072 78.3763L148.946 87.2043H146.828V87.2023Z" fill="white"/>
</g>
<path d="M183.014 68.8503L180.546 67.8903L177.204 62.2463L174.71 61.6703V60.6723L179.01 60.4023L180.622 62.2463L183.014 68.8503Z" fill="#7C8B9B"/>
<path d="M145.452 57.6907L85.3542 57.1007L86.7861 43.8687L87.6061 42.8447H126.512L145.452 55.5907V57.6907Z" fill="#303D49"/>
<g style="mix-blend-mode:overlay" opacity="0.3">
<path d="M86.7861 43.8687L87.6061 42.8447H87.6681L86.6341 55.9507L110.54 56.2047L109.564 42.8447H112.704L115.404 56.2567L139.872 56.6667V53.7987L125.91 42.8447H126.512L145.452 55.5907V57.6907L85.3542 57.1007L86.7861 43.8687Z" fill="black"/>
</g>
<path d="M37.4877 69.0803H40.6617L41.5837 68.1583V65.3883L39.9957 62.6043V58.8163L39.5357 57.8183H37.4877V69.0803Z" fill="#DD3225"/>
<path d="M37.4879 66.6484H40.9698V67.9724H37.4879V66.6484Z" fill="#BBC5CD"/>
<g style="mix-blend-mode:overlay" opacity="0.3">
<path d="M146.528 55.334L126.564 42.128L123.184 40.054L109.4 37.828L85.354 38.21L83.562 40.668L81.872 52.1L82.102 39.9L84.866 35.062H109.4L99.994 29.458H42.458L44.298 27H100.224L113.74 32.298L148.14 53.262L179.01 60.402L180.622 62.246L184 71.576L183.232 72.4581L183.424 75.0701L184 75.9141L182.312 84.7441L183.176 76.2221L180.642 75.9921L183.014 75.1201L182.906 72.324L183.176 71.25L179.036 63.68L174.71 62.296L147.356 60.402H37.488V57.1L38.512 54.158H131.426L146.528 55.334Z" fill="white"/>
</g>
<g style="mix-blend-mode:overlay" opacity="0.3">
<path d="M178.998 85.548L182.312 84.744L182.81 82.14L178.672 82.412C178.778 83.424 178.892 84.528 178.998 85.548ZM37.4876 69.08V57.102L38.5116 54.158L37.6916 52.878L41.0196 31.378L44.2956 27.002H45.3596C43.9996 29.086 42.5556 31.482 42.5556 31.482L40.1756 50.654L40.9696 52.104H81.8716L81.9476 51.576L83.5596 40.672L85.3516 38.214L109.4 37.83L123.184 40.056L108.29 39.134H87.0416L84.9436 41.412L82.9476 57.524L84.0996 65.984L89.4456 83.484H149.42L148.946 87.204H83.0536C82.9456 86.142 82.8056 84.788 82.6696 83.484H88.5756L83.4596 65.832L81.6816 56.618V54.16H40.1776L39.2296 57.82V68.984L38.2056 71.566L41.5836 80.372L49.0576 84.11L53.2816 83.678L52.8316 87.208H47.3156L39.3296 82.524L36.1816 71.466L37.4876 69.086V69.08Z" fill="black"/>
</g>
<g style="mix-blend-mode:overlay" opacity="0.3">
<path d="M184 71.576L183.176 71.25L179.282 72.336L182.906 72.324L183.232 72.458L184 71.576Z" fill="black"/>
</g>
<g style="mix-blend-mode:overlay" opacity="0.5">
<path d="M123.781 42.8447H107.645L116.827 57.4107L133.063 57.5707L123.781 42.8467V42.8447ZM111.759 57.3607L105.385 57.2987L96.2735 42.8447H102.607L111.759 57.3607Z" fill="white"/>
</g>
<g style="mix-blend-mode:overlay" opacity="0.3">
<path d="M119.349 64.5658C117.891 64.5658 116.709 63.7322 116.709 62.7038C116.709 61.6754 117.891 60.8418 119.349 60.8418C120.807 60.8418 121.989 61.6754 121.989 62.7038C121.989 63.7322 120.807 64.5658 119.349 64.5658Z" fill="black"/>
</g>
<path d="M116.823 61.9158H121.877C122.313 61.9158 122.665 62.2678 122.665 62.7038C122.665 63.1398 122.313 63.4918 121.877 63.4918H116.823C116.387 63.4918 116.035 63.1398 116.035 62.7038C116.035 62.2678 116.387 61.9158 116.823 61.9158Z" fill="#303D49"/>
<g style="mix-blend-mode:overlay" opacity="0.3">
<path d="M90.4036 64.5657C88.9456 64.5657 87.7636 63.7321 87.7636 62.7037C87.7636 61.6754 88.9456 60.8417 90.4036 60.8417C91.8616 60.8417 93.0436 61.6754 93.0436 62.7037C93.0436 63.7321 91.8616 64.5657 90.4036 64.5657Z" fill="black"/>
</g>
<path d="M87.8755 61.916H92.9295C93.3655 61.916 93.7175 62.268 93.7175 62.704C93.7175 63.14 93.3655 63.492 92.9295 63.492H87.8755C87.4395 63.492 87.0875 63.14 87.0875 62.704C87.0875 62.268 87.4395 61.916 87.8755 61.916Z" fill="#303D49"/>
<path d="M137.613 54.6064L142.689 56.2164V57.1024H136.739L137.613 54.6064Z" fill="#1B2328"/>
<path d="M136.66 50.2666C136.66 50.3486 138.38 55.1786 138.38 55.1786V56.0786C138.38 56.0786 137.588 57.0606 137.52 57.0886C137.452 57.1166 134.15 57.0886 134.15 57.0886L134.668 50.2666H136.66Z" fill="#1B2328"/>
<g style="mix-blend-mode:overlay" opacity="0.3">
<path d="M136.652 57.0906C136.708 57.0646 137.356 56.1346 137.356 56.1346V55.2806C137.356 55.2806 135.948 50.7046 135.948 50.6266H134.64L134.668 50.2666H136.66C136.66 50.3486 138.38 55.1786 138.38 55.1786V56.0786C138.38 56.0786 137.588 57.0606 137.52 57.0886C137.492 57.1006 136.64 57.0966 136.652 57.0886V57.0906Z" fill="white"/>
</g>
<g style="mix-blend-mode:overlay" opacity="0.3">
<path d="M146.326 71.25L145.816 75.74H89.9777L88.5297 71.25H146.326Z" fill="black"/>
</g>
</svg>
