<svg width="120" height="110" viewBox="0 0 120 110" fill="none" xmlns="http://www.w3.org/2000/svg">
<path d="M34.9391 88.5295C33.532 81.625 28.0809 76.174 21.1765 74.7669V0.294189H0V7.35301H14.1176V74.7669C6.07271 76.4067 0 83.5365 0 92.0589C0 101.789 7.91671 109.706 17.6471 109.706C26.1694 109.706 33.2995 103.633 34.9391 95.5883H112.941V109.706H120V88.5295H34.9391ZM17.6471 97.0502L12.6558 92.0589L17.6471 87.0676L22.6384 92.0589L17.6471 97.0502Z" fill="black"/>
<path d="M112.941 53.2354H42.353V81.4706H112.941V53.2354ZM98.8236 70.8824H84.706V63.8236H98.8236V70.8824Z" fill="#E97B08"/>
<path d="M112.941 25H60V46.1765H112.941V25ZM98.8235 39.1176H84.7059V32.0588H98.8235V39.1176Z" fill="#E97B08"/>
</svg>
