<svg width="24" height="24" viewBox="0 0 24 24" fill="none" xmlns="http://www.w3.org/2000/svg">
<path d="M12 2C17.523 2 22 6.477 22 12C22 17.523 17.523 22 12 22C6.477 22 2 17.523 2 12C2 6.477 6.477 2 12 2ZM11.07 7.581C10.8849 7.581 10.7073 7.65454 10.5764 7.78544C10.4455 7.91634 10.372 8.09388 10.372 8.279V13.86C10.372 14.246 10.684 14.558 11.07 14.558H16.651C16.7448 14.5616 16.8384 14.5461 16.9261 14.5127C17.0138 14.4792 17.0939 14.4284 17.1615 14.3633C17.2292 14.2982 17.283 14.2201 17.3197 14.1337C17.3565 14.0473 17.3754 13.9544 17.3754 13.8605C17.3754 13.7666 17.3565 13.6737 17.3197 13.5873C17.283 13.5009 17.2292 13.4228 17.1615 13.3577C17.0939 13.2926 17.0138 13.2418 16.9261 13.2083C16.8384 13.1749 16.7448 13.1594 16.651 13.163H11.767V8.279C11.767 8.09405 11.6936 7.91666 11.5629 7.78579C11.4322 7.65492 11.2549 7.58126 11.07 7.581Z" fill="#7C7C7C"/>
</svg>
